RobotoSlab-Thin.ufo
<glyph name="dollar" format="1">
  <advance width="1086"/>
  <unicode hex="0024"/>
  <outline>
    <contour>
      <point x="532" y="702" type="curve" smooth="yes"/>
      <point x="245.333333333" y="796.666666667"/>
      <point x="124.0" y="887.333333333"/>
      <point x="124" y="1110" type="curve" smooth="yes"/>
      <point x="124.0" y="1323.33333333"/>
      <point x="274.0" y="1466.66666667"/>
      <point x="510" y="1476" type="curve"/>
      <point x="510" y="1663" type="line"/>
      <point x="565" y="1663" type="line"/>
      <point x="565" y="1476" type="line"/>
      <point x="806.333333333" y="1462.66666667"/>
      <point x="948.0" y="1309.33333333"/>
      <point x="944" y="1052" type="curve"/>
      <point x="942" y="1047" type="line"/>
      <point x="895" y="1047" type="line"/>
      <point x="895.0" y="1268.33333333"/>
      <point x="761.666666667" y="1424.0"/>
      <point x="535" y="1424" type="curve" smooth="yes"/>
      <point x="303.0" y="1424.0"/>
      <point x="178.0" y="1284.0"/>
      <point x="178" y="1112" type="curve" smooth="yes"/>
      <point x="178.0" y="937.333333333"/>
      <point x="250.333333333" y="851.333333333"/>
      <point x="549" y="754" type="curve" smooth="yes"/>
      <point x="829.0" y="656.666666667"/>
      <point x="957.0" y="566.0"/>
      <point x="957" y="346" type="curve" smooth="yes"/>
      <point x="957.0" y="131.333333333"/>
      <point x="806.666666667" y="-6.66666666667"/>
      <point x="576" y="-20" type="curve"/>
      <point x="576" y="-208" type="line"/>
      <point x="521" y="-208" type="line"/>
      <point x="521" y="-21" type="line"/>
      <point x="269.0" y="-13.0"/>
      <point x="76.3333333333" y="117.666666667"/>
      <point x="83" y="403" type="curve"/>
      <point x="85" y="409" type="line"/>
      <point x="131" y="409" type="line"/>
      <point x="131.0" y="143.666666667"/>
      <point x="318.0" y="32.0"/>
      <point x="542" y="32" type="curve" smooth="yes"/>
      <point x="759.333333333" y="32.0"/>
      <point x="903.0" y="173.333333333"/>
      <point x="903" y="344" type="curve" smooth="yes"/>
      <point x="903.0" y="517.333333333"/>
      <point x="816.0" y="599.333333333"/>
    </contour>
  </outline>
</glyph>
<glyph name="ampersand" format="1">
  <advance width="1253"/>
  <unicode hex="0026"/>
  <outline>
    <contour>
      <point x="74" y="352" type="curve" smooth="yes"/>
      <point x="74.0" y="504.0"/>
      <point x="168.666666667" y="626.0"/>
      <point x="330" y="762" type="curve" smooth="yes"/>
      <point x="381" y="803" type="line"/>
      <point x="271.666666667" y="940.333333333"/>
      <point x="221.0" y="1045.66666667"/>
      <point x="221" y="1167" type="curve" smooth="yes"/>
      <point x="221.0" y="1365.66666667"/>
      <point x="336.666666667" y="1477.0"/>
      <point x="526" y="1477" type="curve" smooth="yes"/>
      <point x="702.0" y="1477.0"/>
      <point x="802.0" y="1372.33333333"/>
      <point x="802" y="1215" type="curve" smooth="yes"/>
      <point x="802.0" y="1103.0"/>
      <point x="748.333333333" y="1032.66666667"/>
      <point x="655" y="958" type="curve" smooth="yes"/>
      <point x="453" y="797" type="line"/>
      <point x="928" y="257" type="line"/>
      <point x="1000.0" y="358.333333333"/>
      <point x="1043.0" y="486.666666667"/>
      <point x="1043" y="632" type="curve"/>
      <point x="1098" y="632" type="line"/>
      <point x="1098.0" y="465.333333333"/>
      <point x="1049.0" y="330.666666667"/>
      <point x="965" y="216" type="curve"/>
      <point x="1150" y="5" type="line"/>
      <point x="1148" y="0" type="line"/>
      <point x="1088" y="0" type="line"/>
      <point x="931" y="177" type="line"/>
      <point x="829" y="71"/>
      <point x="702.509803922" y="-21.0"/>
      <point x="508" y="-21" type="curve" smooth="yes"/>
      <point x="238.666666667" y="-21.0"/>
      <point x="74.0" y="122.666666667"/>
    </contour>
    <contour>
      <point x="508" y="33" type="curve" smooth="yes"/>
      <point x="654.666666667" y="33.0"/>
      <point x="794.666666667" y="98.6666666667"/>
      <point x="896" y="216" type="curve"/>
      <point x="413" y="764" type="line"/>
      <point x="361" y="723" type="line" smooth="yes"/>
      <point x="178.333333333" y="565.666666667"/>
      <point x="128.0" y="456.0"/>
      <point x="128" y="352" type="curve" smooth="yes"/>
      <point x="128.0" y="173.333333333"/>
      <point x="262.666666667" y="33.0"/>
    </contour>
    <contour>
      <point x="276" y="1169" type="curve" smooth="yes"/>
      <point x="276.0" y="1063.66666667"/>
      <point x="321.0" y="951.333333333"/>
      <point x="421" y="834" type="curve"/>
      <point x="630" y="1000" type="line" smooth="yes"/>
      <point x="710.0" y="1066.66666667"/>
      <point x="746.0" y="1137.66666667"/>
      <point x="746" y="1215" type="curve" smooth="yes"/>
      <point x="746.0" y="1340.33333333"/>
      <point x="668.666666667" y="1423.0"/>
      <point x="526" y="1423" type="curve" smooth="yes"/>
      <point x="366.0" y="1423.0"/>
      <point x="276.0" y="1314.33333333"/>
    </contour>
  </outline>
</glyph>
<glyph name="parenleft" format="1">
  <advance width="615"/>
  <unicode hex="0028"/>
  <outline>
    <contour>
      <point x="114" y="586" type="line" smooth="yes"/>
      <point x="114.0" y="1036.6666666666665"/>
      <point x="298.33333333333337" y="1478.6666666666665"/>
      <point x="525" y="1616" type="curve"/>
      <point x="531" y="1616" type="line"/>
      <point x="547" y="1580" type="line"/>
      <point x="343.0" y="1445.3333333333335"/>
      <point x="168.0" y="1011.3333333333333"/>
      <point x="168" y="590" type="curve" smooth="yes"/>
      <point x="168" y="564" type="line" smooth="yes"/>
      <point x="168.0" y="141.33333333333337"/>
      <point x="343.0" y="-292.33333333333337"/>
      <point x="547" y="-427" type="curve"/>
      <point x="531" y="-463" type="line"/>
      <point x="525" y="-463" type="line"/>
      <point x="295.66666666666674" y="-323.0"/>
      <point x="114.0" y="95.33333333333337"/>
      <point x="114" y="566" type="curve" smooth="yes"/>
    </contour>
  </outline>
</glyph>
<glyph name="parenright" format="1">
  <advance width="608"/>
  <unicode hex="0029"/>
  <outline>
    <contour>
      <point x="444" y="566" type="line" smooth="yes"/>
      <point x="444.0" y="95.33333333333337"/>
      <point x="261.0" y="-323.0"/>
      <point x="33" y="-463" type="curve"/>
      <point x="27" y="-463" type="line"/>
      <point x="11" y="-427" type="line"/>
      <point x="213.66666666666666" y="-292.33333333333337"/>
      <point x="390.0" y="141.33333333333337"/>
      <point x="390" y="564" type="curve" smooth="yes"/>
      <point x="390" y="590" type="line" smooth="yes"/>
      <point x="390.0" y="1011.3333333333333"/>
      <point x="213.66666666666666" y="1445.3333333333335"/>
      <point x="11" y="1580" type="curve"/>
      <point x="27" y="1616" type="line"/>
      <point x="33" y="1616" type="line"/>
      <point x="258.3333333333333" y="1478.6666666666665"/>
      <point x="444.0" y="1036.6666666666665"/>
      <point x="444" y="586" type="curve" smooth="yes"/>
    </contour>
  </outline>
</glyph>
<glyph name="zero" format="1">
  <advance width="1150"/>
  <unicode hex="0030"/>
  <outline>
    <contour>
      <point x="1008" y="574" type="line" smooth="yes"/>
      <point x="1008.0" y="194.0"/>
      <point x="847.3333333333333" y="-21.0"/>
      <point x="566" y="-21" type="curve" smooth="yes"/>
      <point x="284.66666666666674" y="-21.0"/>
      <point x="121.0" y="195.33333333333337"/>
      <point x="121" y="574" type="curve" smooth="yes"/>
      <point x="121" y="882" type="line" smooth="yes"/>
      <point x="121.0" y="1260.6666666666665"/>
      <point x="282.66666666666674" y="1477.0"/>
      <point x="564" y="1477" type="curve" smooth="yes"/>
      <point x="845.3333333333333" y="1477.0"/>
      <point x="1008.0" y="1260.6666666666665"/>
      <point x="1008" y="882" type="curve" smooth="yes"/>
    </contour>
    <contour>
      <point x="954" y="882" type="line" smooth="yes"/>
      <point x="954.0" y="1220.6666666666665"/>
      <point x="817.3333333333333" y="1423.0"/>
      <point x="564" y="1423" type="curve" smooth="yes"/>
      <point x="310.66666666666674" y="1423.0"/>
      <point x="175.0" y="1220.6666666666665"/>
      <point x="175" y="882" type="curve" smooth="yes"/>
      <point x="175" y="576" type="line" smooth="yes"/>
      <point x="175.0" y="240.0"/>
      <point x="312.66666666666674" y="33.0"/>
      <point x="566" y="33" type="curve" smooth="yes"/>
      <point x="818.0" y="33.0"/>
      <point x="954.0" y="238.66666666666674"/>
      <point x="954" y="576" type="curve" smooth="yes"/>
    </contour>
  </outline>
</glyph>
<glyph name="one" format="1">
  <advance width="821"/>
  <unicode hex="0031"/>
  <outline>
    <contour>
      <point x="108" y="54" type="line"/>
      <point x="401" y="54" type="line"/>
      <point x="401" y="1406" type="line"/>
      <point x="63" y="1330" type="line"/>
      <point x="63" y="1380" type="line"/>
      <point x="455" y="1464" type="line"/>
      <point x="455" y="54" type="line"/>
      <point x="748" y="54" type="line"/>
      <point x="748" y="0" type="line"/>
      <point x="108" y="0" type="line"/>
    </contour>
  </outline>
</glyph>
<glyph name="five" format="1">
  <advance width="1061"/>
  <unicode hex="0035"/>
  <outline>
    <contour>
      <point x="834" y="1265" type="line"/>
      <point x="834" y="1403" type="line"/>
      <point x="237" y="1403" type="line"/>
      <point x="176" y="785" type="line"/>
      <point x="260.0" y="869.0"/>
      <point x="339.66666666666674" y="910.6666666666667"/>
      <point x="533" y="916" type="curve" smooth="yes"/>
      <point x="765.0" y="922.6666666666667"/>
      <point x="933.0" y="742.6666666666665"/>
      <point x="933" y="464" type="curve" smooth="yes"/>
      <point x="933.0" y="166.66666666666674"/>
      <point x="796.3333333333333" y="-21.0"/>
      <point x="503" y="-21" type="curve" smooth="yes"/>
      <point x="267.0" y="-21.0"/>
      <point x="90.33333333333334" y="114.33333333333337"/>
      <point x="97" y="377" type="curve"/>
      <point x="99" y="383" type="line"/>
      <point x="146" y="383" type="line"/>
      <point x="146.0" y="153.66666666666674"/>
      <point x="283.0" y="33.0"/>
      <point x="503" y="33" type="curve" smooth="yes"/>
      <point x="761.6666666666665" y="33.0"/>
      <point x="878.0" y="175.33333333333337"/>
      <point x="878" y="462" type="curve" smooth="yes"/>
      <point x="878.0" y="707.3333333333333"/>
      <point x="751.3333333333333" y="858.0"/>
      <point x="534" y="858" type="curve" smooth="yes"/>
      <point x="320.66666666666674" y="858.0"/>
      <point x="204.33333333333331" y="786.0"/>
      <point x="151" y="646" type="curve"/>
      <point x="110" y="662" type="line"/>
      <point x="188" y="1456" type="line"/>
      <point x="888" y="1456" type="line"/>
      <point x="888" y="1265" type="line"/>
    </contour>
  </outline>
</glyph>
<glyph name="nine" format="1">
  <advance width="1125"/>
  <unicode hex="0039"/>
  <outline>
    <contour>
      <point x="501" y="33" type="curve" smooth="yes"/>
      <point x="751.6666666666667" y="33.0"/>
      <point x="900.0" y="219.33333333333337"/>
      <point x="900" y="578" type="curve" smooth="yes"/>
      <point x="900" y="701" type="line"/>
      <point x="825.3333333333333" y="555.6666666666667"/>
      <point x="681.3333333333333" y="468.0"/>
      <point x="512" y="468" type="curve" smooth="yes"/>
      <point x="261.33333333333337" y="468.0"/>
      <point x="84.0" y="687.3333333333335"/>
      <point x="84" y="958" type="curve" smooth="yes"/>
      <point x="84.0" y="1244.6666666666665"/>
      <point x="266.66666666666674" y="1477.0"/>
      <point x="520" y="1477" type="curve" smooth="yes"/>
      <point x="786.6666666666665" y="1477.0"/>
      <point x="962.0" y="1299.0"/>
      <point x="962" y="923" type="curve" smooth="yes"/>
      <point x="962" y="580" type="line" smooth="yes"/>
      <point x="962.0" y="181.33333333333337"/>
      <point x="785.0" y="-21.0"/>
      <point x="501" y="-21" type="curve" smooth="yes"/>
      <point x="397.0" y="-21.0"/>
      <point x="293.3333333333333" y="0.6666666666666714"/>
      <point x="188" y="42" type="curve"/>
      <point x="204" y="99" type="line"/>
      <point x="304.0" y="53.666666666666686"/>
      <point x="386.33333333333337" y="33.0"/>
    </contour>
    <contour>
      <point x="512" y="521" type="curve" smooth="yes"/>
      <point x="709.3333333333333" y="521.0"/>
      <point x="846.6666666666667" y="652.3333333333333"/>
      <point x="900" y="811" type="curve"/>
      <point x="900" y="922" type="line" smooth="yes"/>
      <point x="900.0" y="1263.3333333333335"/>
      <point x="752.0" y="1423.0"/>
      <point x="524" y="1423" type="curve" smooth="yes"/>
      <point x="300.0" y="1423.0"/>
      <point x="146.0" y="1204.6666666666665"/>
      <point x="146" y="958" type="curve" smooth="yes"/>
      <point x="146.0" y="720.6666666666667"/>
      <point x="290.66666666666674" y="521.0"/>
    </contour>
  </outline>
</glyph>
<glyph name="less" format="1">
  <advance width="1027"/>
  <unicode hex="003C"/>
  <outline>
    <contour>
      <point x="133" y="540" type="line"/>
      <point x="133" y="534" type="line"/>
      <point x="252" y="498" type="line"/>
      <point x="913" y="195" type="line"/>
      <point x="913" y="136" type="line"/>
      <point x="76" y="515" type="line"/>
      <point x="76" y="565" type="line"/>
      <point x="913" y="943" type="line"/>
      <point x="913" y="885" type="line"/>
      <point x="252" y="577" type="line"/>
    </contour>
  </outline>
</glyph>
<glyph name="C" format="1">
  <advance width="1348"/>
  <unicode hex="0043"/>
  <outline>
    <contour>
      <point x="1216" y="1062" type="line"/>
      <point x="1161" y="1062" type="line"/>
      <point x="1161" y="1296" type="line"/>
      <point x="1052" y="1377"/>
      <point x="957.6666666666669" y="1423.0"/>
      <point x="767" y="1423" type="curve" smooth="yes"/>
      <point x="421.66666666666674" y="1423.0"/>
      <point x="184.0" y="1147.0"/>
      <point x="184" y="739" type="curve" smooth="yes"/>
      <point x="184" y="719" type="line" smooth="yes"/>
      <point x="184.0" y="309.66666666666674"/>
      <point x="410" y="33"/>
      <point x="791" y="33" type="curve" smooth="yes"/>
      <point x="937" y="33"/>
      <point x="1081" y="73"/>
      <point x="1176" y="137" type="curve"/>
      <point x="1176" y="372" type="line"/>
      <point x="1231" y="372" type="line"/>
      <point x="1231" y="103" type="line"/>
      <point x="1105" y="19"/>
      <point x="958" y="-21"/>
      <point x="794" y="-21" type="curve" smooth="yes"/>
      <point x="369" y="-21"/>
      <point x="130.0" y="280.33333333333337"/>
      <point x="130" y="719" type="curve" smooth="yes"/>
      <point x="130" y="737" type="line" smooth="yes"/>
      <point x="130.0" y="1177.0"/>
      <point x="387.0" y="1477.0"/>
      <point x="767" y="1477" type="curve" smooth="yes"/>
      <point x="977.6666666666669" y="1477.0"/>
      <point x="1097" y="1423"/>
      <point x="1216" y="1319" type="curve"/>
    </contour>
  </outline>
</glyph>
<glyph name="G" format="1">
  <advance width="1417"/>
  <unicode hex="0047"/>
  <outline>
    <contour>
      <point x="1248" y="111" type="line"/>
      <point x="1126" y="37"/>
      <point x="976" y="-21"/>
      <point x="770" y="-21" type="curve" smooth="yes"/>
      <point x="372" y="-21"/>
      <point x="130.0" y="280.0"/>
      <point x="130" y="720" type="curve" smooth="yes"/>
      <point x="130" y="758" type="line" smooth="yes"/>
      <point x="130.0" y="1183.3333333333333"/>
      <point x="394" y="1477"/>
      <point x="754" y="1477" type="curve" smooth="yes"/>
      <point x="959" y="1477"/>
      <point x="1093" y="1417"/>
      <point x="1213" y="1324" type="curve"/>
      <point x="1213" y="1072" type="line"/>
      <point x="1159" y="1072" type="line"/>
      <point x="1159" y="1296" type="line"/>
      <point x="1060" y="1373"/>
      <point x="948" y="1423"/>
      <point x="754" y="1423" type="curve" smooth="yes"/>
      <point x="430" y="1423"/>
      <point x="184.0" y="1150.6666666666665"/>
      <point x="184" y="760" type="curve" smooth="yes"/>
      <point x="184" y="720" type="line" smooth="yes"/>
      <point x="184.0" y="313.3333333333335"/>
      <point x="400" y="33"/>
      <point x="768" y="33" type="curve" smooth="yes"/>
      <point x="946" y="33"/>
      <point x="1093" y="84"/>
      <point x="1194" y="141" type="curve"/>
      <point x="1194" y="565" type="line"/>
      <point x="879" y="565" type="line"/>
      <point x="879" y="620" type="line"/>
      <point x="1248" y="620" type="line"/>
    </contour>
  </outline>
</glyph>
<glyph name="K" format="1">
  <advance width="1388"/>
  <unicode hex="004B"/>
  <outline>
    <contour>
      <point x="71" y="54" type="line"/>
      <point x="234" y="54" type="line"/>
      <point x="234" y="1402" type="line"/>
      <point x="71" y="1402" type="line"/>
      <point x="71" y="1456" type="line"/>
      <point x="451" y="1456" type="line"/>
      <point x="451" y="1402" type="line"/>
      <point x="288" y="1402" type="line"/>
      <point x="288" y="764" type="line"/>
      <point x="526" y="764" type="line"/>
      <point x="1091" y="1397" type="line"/>
      <point x="1089" y="1402" type="line"/>
      <point x="921" y="1402" type="line"/>
      <point x="921" y="1456" type="line"/>
      <point x="1282" y="1456" type="line"/>
      <point x="1282" y="1402" type="line"/>
      <point x="1167" y="1402" type="line"/>
      <point x="571" y="730" type="line"/>
      <point x="1210" y="54" type="line"/>
      <point x="1328" y="54" type="line"/>
      <point x="1328" y="0" type="line"/>
      <point x="967" y="0" type="line"/>
      <point x="967" y="54" type="line"/>
      <point x="1130" y="54" type="line"/>
      <point x="1133" y="60" type="line"/>
      <point x="511" y="711" type="line"/>
      <point x="288" y="711" type="line"/>
      <point x="288" y="54" type="line"/>
      <point x="451" y="54" type="line"/>
      <point x="451" y="0" type="line"/>
      <point x="71" y="0" type="line"/>
    </contour>
  </outline>
</glyph>
<glyph name="M" format="1">
  <advance width="1824"/>
  <unicode hex="004D"/>
  <outline>
    <contour>
      <point x="1530.0" y="1363.0" type="line"/>
      <point x="932.0" y="0.0" type="line"/>
      <point x="889.0" y="0.0" type="line"/>
      <point x="294.0" y="1356.0" type="line"/>
      <point x="288.0" y="1354.0" type="line"/>
      <point x="288.0" y="872.0" type="line"/>
      <point x="288.0" y="54.0" type="line"/>
      <point x="451.0" y="54.0" type="line"/>
      <point x="451.0" y="0.0" type="line"/>
      <point x="71.0" y="0.0" type="line"/>
      <point x="71.0" y="54.0" type="line"/>
      <point x="234.0" y="54.0" type="line"/>
      <point x="234.0" y="1402.0" type="line"/>
      <point x="71.0" y="1402.0" type="line"/>
      <point x="71.0" y="1456.0" type="line"/>
      <point x="234.0" y="1456.0" type="line"/>
      <point x="311.0" y="1456.0" type="line"/>
      <point x="907.0" y="86.0" type="line"/>
      <point x="913.0" y="86.0" type="line"/>
      <point x="1511.0" y="1456.0" type="line"/>
      <point x="1753.0" y="1456.0" type="line"/>
      <point x="1753.0" y="1402.0" type="line"/>
      <point x="1590.0" y="1402.0" type="line"/>
      <point x="1590.0" y="54.0" type="line"/>
      <point x="1753.0" y="54.0" type="line"/>
      <point x="1753.0" y="0.0" type="line"/>
      <point x="1373.0" y="0.0" type="line"/>
      <point x="1373.0" y="54.0" type="line"/>
      <point x="1536.0" y="54.0" type="line"/>
      <point x="1536.0" y="845.0" type="line"/>
      <point x="1536.0" y="1361.0" type="line"/>
    </contour>
  </outline>
</glyph>
<glyph name="N" format="1">
  <advance width="1517"/>
  <unicode hex="004E"/>
  <outline>
    <contour>
      <point x="1446" y="1456" type="line"/>
      <point x="1446" y="1402" type="line"/>
      <point x="1283" y="1402" type="line"/>
      <point x="1283" y="0" type="line"/>
      <point x="1229" y="0" type="line"/>
      <point x="295" y="1356" type="line"/>
      <point x="289" y="1354" type="line"/>
      <point x="289" y="54" type="line"/>
      <point x="452" y="54" type="line"/>
      <point x="452" y="0" type="line"/>
      <point x="71" y="0" type="line"/>
      <point x="71" y="54" type="line"/>
      <point x="234" y="54" type="line"/>
      <point x="234" y="1402" type="line"/>
      <point x="71" y="1402" type="line"/>
      <point x="71" y="1456" type="line"/>
      <point x="234" y="1456" type="line"/>
      <point x="289" y="1456" type="line"/>
      <point x="1223" y="103" type="line"/>
      <point x="1229" y="105" type="line"/>
      <point x="1229" y="1402" type="line"/>
      <point x="1066" y="1402" type="line"/>
      <point x="1066" y="1456" type="line"/>
      <point x="1283" y="1456" type="line"/>
    </contour>
  </outline>
</glyph>
<glyph name="Q" format="1">
  <advance width="1478"/>
  <unicode hex="0051"/>
  <outline>
    <contour>
      <point x="1348" y="719" type="line" smooth="yes"/>
      <point x="1348.0" y="409.66666666666674"/>
      <point x="1230.3333333333335" y="170.66666666666666"/>
      <point x="1033" y="56" type="curve"/>
      <point x="1343" y="-165" type="line"/>
      <point x="1308" y="-206" type="line"/>
      <point x="979" y="28" type="line"/>
      <point x="905.6666666666667" y="-5.333333333333329"/>
      <point x="825.3333333333333" y="-21.0"/>
      <point x="740" y="-21" type="curve" smooth="yes"/>
      <point x="377.3333333333334" y="-21.0"/>
      <point x="130.0" y="272.33333333333337"/>
      <point x="130" y="719" type="curve" smooth="yes"/>
      <point x="130" y="737" type="line" smooth="yes"/>
      <point x="130.0" y="1183.6666666666665"/>
      <point x="375.3333333333335" y="1477.0"/>
      <point x="738" y="1477" type="curve" smooth="yes"/>
      <point x="1099.3333333333333" y="1477.0"/>
      <point x="1348.0" y="1183.6666666666665"/>
      <point x="1348" y="737" type="curve" smooth="yes"/>
    </contour>
    <contour>
      <point x="1294" y="739" type="line" smooth="yes"/>
      <point x="1294.0" y="1151.0"/>
      <point x="1075.3333333333333" y="1423.0"/>
      <point x="738" y="1423" type="curve" smooth="yes"/>
      <point x="402.0" y="1423.0"/>
      <point x="185.0" y="1151.0"/>
      <point x="185" y="739" type="curve" smooth="yes"/>
      <point x="185" y="719" type="line" smooth="yes"/>
      <point x="185.0" y="304.33333333333337"/>
      <point x="402.66666666666674" y="33.0"/>
      <point x="740" y="33" type="curve" smooth="yes"/>
      <point x="1077.3333333333333" y="33.0"/>
      <point x="1294.0" y="304.33333333333337"/>
      <point x="1294" y="719" type="curve" smooth="yes"/>
    </contour>
  </outline>
</glyph>
<glyph name="S" format="1">
  <advance width="1183"/>
  <unicode hex="0053"/>
  <outline>
    <contour>
      <point x="1035" y="1088" type="line"/>
      <point x="981" y="1088" type="line"/>
      <point x="981" y="1292" type="line"/>
      <point x="877" y="1379"/>
      <point x="738" y="1423"/>
      <point x="582" y="1423" type="curve" smooth="yes"/>
      <point x="328" y="1423"/>
      <point x="186" y="1286"/>
      <point x="186" y="1131" type="curve" smooth="yes"/>
      <point x="186" y="966"/>
      <point x="262" y="870"/>
      <point x="594" y="781" type="curve" smooth="yes"/>
      <point x="917" y="694"/>
      <point x="1083" y="580"/>
      <point x="1083" y="351" type="curve" smooth="yes"/>
      <point x="1083" y="120"/>
      <point x="872" y="-21"/>
      <point x="589" y="-21" type="curve" smooth="yes"/>
      <point x="433" y="-21"/>
      <point x="259" y="26"/>
      <point x="100" y="133" type="curve"/>
      <point x="100" y="390" type="line"/>
      <point x="154" y="390" type="line"/>
      <point x="154" y="164" type="line"/>
      <point x="298" y="73"/>
      <point x="449" y="33"/>
      <point x="589" y="33" type="curve" smooth="yes"/>
      <point x="845" y="33"/>
      <point x="1028" y="162"/>
      <point x="1028" y="349" type="curve" smooth="yes"/>
      <point x="1028" y="532"/>
      <point x="910" y="637"/>
      <point x="579" y="729" type="curve" smooth="yes"/>
      <point x="247" y="821"/>
      <point x="132" y="917"/>
      <point x="132" y="1129" type="curve" smooth="yes"/>
      <point x="132" y="1336"/>
      <point x="311" y="1477"/>
      <point x="582" y="1477" type="curve" smooth="yes"/>
      <point x="770" y="1477"/>
      <point x="921" y="1417"/>
      <point x="1035" y="1322" type="curve"/>
    </contour>
  </outline>
</glyph>
<glyph name="Z" format="1">
  <advance width="1220"/>
  <unicode hex="005A"/>
  <outline>
    <contour>
      <point x="1096" y="1456" type="line"/>
      <point x="1096" y="1418" type="line"/>
      <point x="166" y="54" type="line"/>
      <point x="1074" y="54" type="line"/>
      <point x="1074" y="293" type="line"/>
      <point x="1128" y="293" type="line"/>
      <point x="1128" y="0" type="line"/>
      <point x="92" y="0" type="line"/>
      <point x="92" y="44" type="line"/>
      <point x="1021" y="1403" type="line"/>
      <point x="186" y="1403" type="line"/>
      <point x="186" y="1163" type="line"/>
      <point x="132" y="1163" type="line"/>
      <point x="132" y="1456" type="line"/>
    </contour>
  </outline>
</glyph>
<glyph name="grave" format="1">
  <advance width="546"/>
  <unicode hex="0060"/>
  <outline>
    <contour>
      <point x="384" y="1215" type="line"/>
      <point x="382" y="1210" type="line"/>
      <point x="333" y="1210" type="line"/>
      <point x="96" y="1471" type="line"/>
      <point x="98" y="1476" type="line"/>
      <point x="163" y="1476" type="line"/>
    </contour>
  </outline>
</glyph>
<glyph name="b" format="1">
  <advance width="1088"/>
  <unicode hex="0062"/>
  <outline>
    <contour>
      <point x="984" y="521" type="line" smooth="yes"/>
      <point x="984.0" y="187.66666666666669"/>
      <point x="831.3333333333333" y="-21.0"/>
      <point x="578" y="-21" type="curve" smooth="yes"/>
      <point x="406.0" y="-21.0"/>
      <point x="277.66666666666663" y="54.33333333333334"/>
      <point x="207" y="173" type="curve"/>
      <point x="200" y="0" type="line"/>
      <point x="155" y="0" type="line"/>
      <point x="155" y="1506" type="line"/>
      <point x="-8" y="1506" type="line"/>
      <point x="-8" y="1560" type="line"/>
      <point x="209" y="1560" type="line"/>
      <point x="209" y="885" type="line"/>
      <point x="281.0" y="1019.6666666666667"/>
      <point x="404.0000000000001" y="1102.0"/>
      <point x="576" y="1102" type="curve" smooth="yes"/>
      <point x="830.6666666666667" y="1102.0"/>
      <point x="984.0" y="884.6666666666665"/>
      <point x="984" y="542" type="curve" smooth="yes"/>
    </contour>
    <contour>
      <point x="928" y="542" type="line" smooth="yes"/>
      <point x="928.0" y="842.0"/>
      <point x="805.0" y="1048.0"/>
      <point x="577" y="1048" type="curve" smooth="yes"/>
      <point x="366.33333333333337" y="1048.0"/>
      <point x="258.3333333333333" y="926.0"/>
      <point x="209" y="770" type="curve"/>
      <point x="209" y="274" type="line"/>
      <point x="261.0" y="127.33333333333337"/>
      <point x="387.0" y="33.0"/>
      <point x="579" y="33" type="curve" smooth="yes"/>
      <point x="807.0" y="33.0"/>
      <point x="928.0" y="222.33333333333337"/>
      <point x="928" y="521" type="curve" smooth="yes"/>
    </contour>
  </outline>
</glyph>
<glyph name="c" format="1">
  <advance width="1082"/>
  <unicode hex="0063"/>
  <outline>
    <contour>
      <point x="543" y="33" type="curve" smooth="yes"/>
      <point x="728" y="33"/>
      <point x="865" y="125"/>
      <point x="889" y="323" type="curve"/>
      <point x="935" y="323" type="line"/>
      <point x="937" y="317" type="line"/>
      <point x="912" y="94"/>
      <point x="759" y="-21"/>
      <point x="540" y="-21" type="curve" smooth="yes"/>
      <point x="291" y="-21"/>
      <point x="104.0" y="196.0"/>
      <point x="104" y="520" type="curve" smooth="yes"/>
      <point x="104" y="562" type="line" smooth="yes"/>
      <point x="104" y="885"/>
      <point x="284" y="1102"/>
      <point x="538" y="1102" type="curve" smooth="yes"/>
      <point x="701" y="1102"/>
      <point x="833" y="1024"/>
      <point x="920" y="925" type="curve"/>
      <point x="920" y="693" type="line"/>
      <point x="866" y="693" type="line"/>
      <point x="866" y="905" type="line"/>
      <point x="780" y="996"/>
      <point x="674" y="1048"/>
      <point x="539" y="1048" type="curve" smooth="yes"/>
      <point x="310" y="1048"/>
      <point x="158" y="847"/>
      <point x="158" y="562" type="curve" smooth="yes"/>
      <point x="158" y="520" type="line" smooth="yes"/>
      <point x="158.0" y="231.99999999999994"/>
      <point x="311" y="33"/>
    </contour>
  </outline>
</glyph>
<glyph name="d" format="1">
  <advance width="1205"/>
  <unicode hex="0064"/>
  <outline>
    <contour>
      <point x="879" y="173" type="line"/>
      <point x="808.3333333333333" y="54.33333333333334"/>
      <point x="680.6666666666667" y="-21.0"/>
      <point x="510" y="-21" type="curve" smooth="yes"/>
      <point x="255.33333333333337" y="-21.0"/>
      <point x="104.0" y="187.66666666666674"/>
      <point x="104" y="521" type="curve" smooth="yes"/>
      <point x="104" y="542" type="line" smooth="yes"/>
      <point x="104.0" y="884.6666666666665"/>
      <point x="256.0" y="1102.0"/>
      <point x="512" y="1102" type="curve" smooth="yes"/>
      <point x="682.6666666666667" y="1102.0"/>
      <point x="805.6666666666667" y="1019.0"/>
      <point x="879" y="883" type="curve"/>
      <point x="879" y="1506" type="line"/>
      <point x="716" y="1506" type="line"/>
      <point x="716" y="1560" type="line"/>
      <point x="879" y="1560" type="line"/>
      <point x="933" y="1560" type="line"/>
      <point x="933" y="54" type="line"/>
      <point x="1096" y="54" type="line"/>
      <point x="1096" y="0" type="line"/>
      <point x="881" y="0" type="line"/>
    </contour>
    <contour>
      <point x="160" y="521" type="line" smooth="yes"/>
      <point x="160.0" y="222.33333333333337"/>
      <point x="279.66666666666674" y="33.0"/>
      <point x="509" y="33" type="curve" smooth="yes"/>
      <point x="697.0" y="33.0"/>
      <point x="823.0" y="125.33333333333337"/>
      <point x="879" y="268" type="curve"/>
      <point x="879" y="775" type="line"/>
      <point x="827.0" y="929.6666666666667"/>
      <point x="717.6666666666667" y="1048.0"/>
      <point x="511" y="1048" type="curve" smooth="yes"/>
      <point x="281.6666666666668" y="1048.0"/>
      <point x="160.0" y="842.0"/>
      <point x="160" y="542" type="curve" smooth="yes"/>
    </contour>
  </outline>
</glyph>
<glyph name="e" format="1">
  <advance width="1084"/>
  <unicode hex="0065"/>
  <outline>
    <contour>
      <point x="564" y="-21" type="curve" smooth="yes"/>
      <point x="304" y="-21"/>
      <point x="112" y="194"/>
      <point x="112" y="500" type="curve" smooth="yes"/>
      <point x="112" y="564" type="line" smooth="yes"/>
      <point x="112.0" y="874.6666666666665"/>
      <point x="298" y="1102"/>
      <point x="551" y="1102" type="curve" smooth="yes"/>
      <point x="795" y="1102"/>
      <point x="957" y="929"/>
      <point x="957" y="660" type="curve" smooth="yes"/>
      <point x="957" y="577" type="line"/>
      <point x="166" y="577" type="line"/>
      <point x="166" y="500" type="line" smooth="yes"/>
      <point x="166" y="232"/>
      <point x="332" y="33"/>
      <point x="564" y="33" type="curve" smooth="yes"/>
      <point x="701" y="33"/>
      <point x="805" y="83"/>
      <point x="888" y="165" type="curve"/>
      <point x="917" y="123" type="line"/>
      <point x="828" y="37"/>
      <point x="719" y="-21"/>
    </contour>
    <contour>
      <point x="551" y="1048" type="curve" smooth="yes"/>
      <point x="346" y="1048"/>
      <point x="192.66666666666669" y="871.6666666666667"/>
      <point x="174" y="637" type="curve"/>
      <point x="177" y="631" type="line"/>
      <point x="903" y="631" type="line"/>
      <point x="903" y="664" type="line" smooth="yes"/>
      <point x="903" y="884"/>
      <point x="764" y="1048"/>
    </contour>
  </outline>
</glyph>
<glyph name="n" format="1">
  <advance width="1320"/>
  <unicode hex="006E"/>
  <outline>
    <contour>
      <point x="89" y="54" type="line"/>
      <point x="252" y="54" type="line"/>
      <point x="252" y="1028" type="line"/>
      <point x="89" y="1028" type="line"/>
      <point x="89" y="1082" type="line"/>
      <point x="298" y="1082" type="line"/>
      <point x="305" y="859" type="line"/>
      <point x="370.33333333333337" y="1013.6666666666667"/>
      <point x="495.9999999999999" y="1102.0"/>
      <point x="680" y="1102" type="curve" smooth="yes"/>
      <point x="916.0000000000001" y="1102.0"/>
      <point x="1034.0" y="959.6666666666663"/>
      <point x="1034" y="637" type="curve" smooth="yes"/>
      <point x="1034" y="54" type="line"/>
      <point x="1197" y="54" type="line"/>
      <point x="1197" y="0" type="line"/>
      <point x="817" y="0" type="line"/>
      <point x="817" y="54" type="line"/>
      <point x="980" y="54" type="line"/>
      <point x="980" y="639" type="line" smooth="yes"/>
      <point x="980.0" y="939.0"/>
      <point x="865.0" y="1048.0"/>
      <point x="681" y="1048" type="curve" smooth="yes"/>
      <point x="447.66666666666674" y="1048.0"/>
      <point x="335.33333333333337" y="893.3333333333333"/>
      <point x="306" y="676" type="curve"/>
      <point x="306" y="54" type="line"/>
      <point x="469" y="54" type="line"/>
      <point x="469" y="0" type="line"/>
      <point x="89" y="0" type="line"/>
    </contour>
  </outline>
</glyph>
<glyph name="q" format="1">
  <advance width="1136"/>
  <unicode hex="0071"/>
  <outline>
    <contour>
      <point x="104" y="542" type="line" smooth="yes"/>
      <point x="104.0" y="884.6666666666665"/>
      <point x="256.0" y="1102.0"/>
      <point x="512" y="1102" type="curve" smooth="yes"/>
      <point x="681.3333333333334" y="1102.0"/>
      <point x="805.6666666666667" y="1020.6666666666667"/>
      <point x="879" y="886" type="curve"/>
      <point x="884" y="1082" type="line"/>
      <point x="933" y="1082" type="line"/>
      <point x="933" y="-362" type="line"/>
      <point x="1096" y="-362" type="line"/>
      <point x="1096" y="-416" type="line"/>
      <point x="716" y="-416" type="line"/>
      <point x="716" y="-362" type="line"/>
      <point x="879" y="-362" type="line"/>
      <point x="879" y="170" type="line"/>
      <point x="807.0" y="52.666666666666686"/>
      <point x="679.3333333333333" y="-21.0"/>
      <point x="510" y="-21" type="curve" smooth="yes"/>
      <point x="255.33333333333337" y="-21.0"/>
      <point x="104.0" y="187.66666666666674"/>
      <point x="104" y="521" type="curve" smooth="yes"/>
    </contour>
    <contour>
      <point x="160" y="521" type="line" smooth="yes"/>
      <point x="160.0" y="222.33333333333337"/>
      <point x="279.66666666666674" y="33.0"/>
      <point x="509" y="33" type="curve" smooth="yes"/>
      <point x="699.6666666666667" y="33.0"/>
      <point x="825.6666666666667" y="127.33333333333334"/>
      <point x="879" y="274" type="curve"/>
      <point x="879" y="768" type="line"/>
      <point x="828.3333333333333" y="921.3333333333333"/>
      <point x="716.3333333333333" y="1048.0"/>
      <point x="511" y="1048" type="curve" smooth="yes"/>
      <point x="281.6666666666668" y="1048.0"/>
      <point x="160.0" y="842.0"/>
      <point x="160" y="542" type="curve" smooth="yes"/>
    </contour>
  </outline>
</glyph>
<glyph name="s" format="1">
  <advance width="1009"/>
  <unicode hex="0073"/>
  <outline>
    <contour>
      <point x="832" y="753" type="line"/>
      <point x="778" y="753" type="line"/>
      <point x="778" y="928" type="line"/>
      <point x="708" y="1005"/>
      <point x="619" y="1048"/>
      <point x="478" y="1048" type="curve" smooth="yes"/>
      <point x="282" y="1048"/>
      <point x="183" y="940"/>
      <point x="183" y="828" type="curve" smooth="yes"/>
      <point x="183" y="712"/>
      <point x="237" y="642"/>
      <point x="499" y="584" type="curve" smooth="yes"/>
      <point x="741" y="530"/>
      <point x="867.0" y="437.33333333333326"/>
      <point x="867" y="264" type="curve" smooth="yes"/>
      <point x="867.0" y="94.66666666666669"/>
      <point x="716.3333333333333" y="-21.0"/>
      <point x="487" y="-21" type="curve" smooth="yes"/>
      <point x="329.66666666666674" y="-21.0"/>
      <point x="192" y="33"/>
      <point x="103" y="122" type="curve"/>
      <point x="103" y="315" type="line"/>
      <point x="157" y="315" type="line"/>
      <point x="157" y="152" type="line"/>
      <point x="236" y="68"/>
      <point x="357.66666666666674" y="33.0"/>
      <point x="487" y="33" type="curve" smooth="yes"/>
      <point x="687.0" y="33.0"/>
      <point x="813.0" y="142.33333333333337"/>
      <point x="813" y="265" type="curve" smooth="yes"/>
      <point x="813.0" y="379.66666666666663"/>
      <point x="727.0" y="478.66666666666663"/>
      <point x="483" y="532" type="curve" smooth="yes"/>
      <point x="228.33333333333337" y="585.3333333333333"/>
      <point x="129" y="661"/>
      <point x="129" y="826" type="curve" smooth="yes"/>
      <point x="129" y="981"/>
      <point x="261" y="1102"/>
      <point x="478" y="1102" type="curve" smooth="yes"/>
      <point x="633" y="1102"/>
      <point x="751" y="1044"/>
      <point x="832" y="955" type="curve"/>
    </contour>
  </outline>
</glyph>
<glyph name="t" format="1">
  <advance width="719"/>
  <unicode hex="0074"/>
  <outline>
    <contour>
      <point x="320" y="1374" type="line"/>
      <point x="320" y="1082" type="line"/>
      <point x="586" y="1082" type="line"/>
      <point x="586" y="1027" type="line"/>
      <point x="320" y="1027" type="line"/>
      <point x="320" y="279" type="line" smooth="yes"/>
      <point x="320.0" y="101.66666666666669"/>
      <point x="385.33333333333337" y="33.0"/>
      <point x="484" y="33" type="curve" smooth="yes"/>
      <point x="526.6666666666666" y="33.0"/>
      <point x="551.3333333333333" y="35.33333333333333"/>
      <point x="610" y="42" type="curve"/>
      <point x="620" y="-7" type="line"/>
      <point x="580.0" y="-17.666666666666664"/>
      <point x="540.3333333333333" y="-21.0"/>
      <point x="487" y="-21" type="curve" smooth="yes"/>
      <point x="341.66666666666674" y="-21.0"/>
      <point x="265.0" y="68.33333333333337"/>
      <point x="265" y="279" type="curve" smooth="yes"/>
      <point x="265" y="1027" type="line"/>
      <point x="65" y="1027" type="line"/>
      <point x="65" y="1082" type="line"/>
      <point x="265" y="1082" type="line"/>
      <point x="265" y="1374" type="line"/>
    </contour>
  </outline>
</glyph>
<glyph name="u" format="1">
  <advance width="1202"/>
  <unicode hex="0075"/>
  <outline>
    <contour>
      <point x="898" y="194" type="line"/>
      <point x="830" y="57"/>
      <point x="713" y="-21"/>
      <point x="533" y="-21" type="curve" smooth="yes"/>
      <point x="314" y="-21"/>
      <point x="187.0" y="133.0"/>
      <point x="187" y="465" type="curve" smooth="yes"/>
      <point x="187" y="1028" type="line"/>
      <point x="44" y="1028" type="line"/>
      <point x="44" y="1082" type="line"/>
      <point x="187" y="1082" type="line"/>
      <point x="241" y="1082" type="line"/>
      <point x="241" y="463" type="line" smooth="yes"/>
      <point x="241.0" y="169.66666666666674"/>
      <point x="351" y="33"/>
      <point x="531" y="33" type="curve" smooth="yes"/>
      <point x="756" y="33"/>
      <point x="863" y="153"/>
      <point x="896" y="336" type="curve"/>
      <point x="896" y="1028" type="line"/>
      <point x="733" y="1028" type="line"/>
      <point x="733" y="1082" type="line"/>
      <point x="896" y="1082" type="line"/>
      <point x="951" y="1082" type="line"/>
      <point x="951" y="54" type="line"/>
      <point x="1114" y="54" type="line"/>
      <point x="1114" y="0" type="line"/>
      <point x="906" y="0" type="line"/>
    </contour>
  </outline>
</glyph>
<glyph name="v" format="1">
  <advance width="1165"/>
  <unicode hex="0076"/>
  <outline>
    <contour>
      <point x="370" y="1028" type="line"/>
      <point x="228" y="1028" type="line"/>
      <point x="541" y="229" type="line"/>
      <point x="592" y="83" type="line"/>
      <point x="598" y="83" type="line"/>
      <point x="650" y="229" type="line"/>
      <point x="962" y="1028" type="line"/>
      <point x="820" y="1028" type="line"/>
      <point x="820" y="1082" type="line"/>
      <point x="1138" y="1082" type="line"/>
      <point x="1138" y="1028" type="line"/>
      <point x="1020" y="1028" type="line"/>
      <point x="621" y="0" type="line"/>
      <point x="569" y="0" type="line"/>
      <point x="170" y="1028" type="line"/>
      <point x="52" y="1028" type="line"/>
      <point x="52" y="1082" type="line"/>
      <point x="370" y="1082" type="line"/>
    </contour>
  </outline>
</glyph>
<glyph name="braceright" format="1">
  <advance width="692"/>
  <unicode hex="007D"/>
  <outline>
    <contour>
      <point x="27" y="-395" type="line"/>
      <point x="217.66666666666666" y="-329.66666666666663"/>
      <point x="311.0" y="-185.33333333333331"/>
      <point x="311" y="20" type="curve" smooth="yes"/>
      <point x="311" y="265" type="line" smooth="yes"/>
      <point x="311.0" y="423.6666666666667"/>
      <point x="378.00000000000006" y="541.3333333333333"/>
      <point x="522" y="576" type="curve"/>
      <point x="378.0" y="609.3333333333333"/>
      <point x="311.0" y="725.0"/>
      <point x="311" y="885" type="curve" smooth="yes"/>
      <point x="311" y="1132" type="line" smooth="yes"/>
      <point x="311.0" y="1338.6666666666665"/>
      <point x="221.33333333333331" y="1490.6666666666665"/>
      <point x="32" y="1552" type="curve"/>
      <point x="46" y="1597" type="line"/>
      <point x="275.3333333333333" y="1523.6666666666665"/>
      <point x="365.0" y="1360.0"/>
      <point x="365" y="1132" type="curve" smooth="yes"/>
      <point x="365" y="885" type="line" smooth="yes"/>
      <point x="365.0" y="709.0"/>
      <point x="444.33333333333326" y="609.0"/>
      <point x="615" y="609" type="curve"/>
      <point x="615" y="543" type="line"/>
      <point x="444.33333333333326" y="543.0"/>
      <point x="365.0" y="439.66666666666663"/>
      <point x="365" y="265" type="curve" smooth="yes"/>
      <point x="365" y="20" type="line" smooth="yes"/>
      <point x="365.0" y="-207.99999999999994"/>
      <point x="276.6666666666667" y="-367.66666666666663"/>
      <point x="46" y="-441" type="curve"/>
    </contour>
  </outline>
</glyph>
<glyph name="sterling" format="1">
  <advance width="1151"/>
  <unicode hex="00A3"/>
  <outline>
    <contour>
      <point x="365" y="667" type="line"/>
      <point x="373" y="466" type="line" smooth="yes"/>
      <point x="373.0" y="299.333333333"/>
      <point x="323.0" y="142.0"/>
      <point x="235" y="54" type="curve"/>
      <point x="990" y="54" type="line"/>
      <point x="990" y="293" type="line"/>
      <point x="1044" y="293" type="line"/>
      <point x="1044" y="0" type="line"/>
      <point x="132" y="0" type="line"/>
      <point x="132" y="54" type="line"/>
      <point x="142" y="54" type="line"/>
      <point x="260.666666667" y="75.3333333333"/>
      <point x="319.0" y="283.333333333"/>
      <point x="319" y="466" type="curve" smooth="yes"/>
      <point x="311" y="667" type="line"/>
      <point x="68" y="667" type="line"/>
      <point x="68" y="721" type="line"/>
      <point x="309" y="721" type="line"/>
      <point x="298" y="1040" type="line" smooth="yes"/>
      <point x="298.0" y="1312.0"/>
      <point x="443.666666667" y="1477.0"/>
      <point x="669" y="1477" type="curve" smooth="yes"/>
      <point x="902.333333333" y="1477.0"/>
      <point x="1007.0" y="1332.33333333"/>
      <point x="1003" y="1095" type="curve"/>
      <point x="1001" y="1090" type="line"/>
      <point x="954" y="1090" type="line"/>
      <point x="954.0" y="1324.66666667"/>
      <point x="853.0" y="1423.0"/>
      <point x="669" y="1423" type="curve" smooth="yes"/>
      <point x="473.0" y="1423.0"/>
      <point x="352.0" y="1284.0"/>
      <point x="352" y="1040" type="curve" smooth="yes"/>
      <point x="363" y="721" type="line"/>
      <point x="841" y="721" type="line"/>
      <point x="841" y="667" type="line"/>
    </contour>
  </outline>
</glyph>
<glyph name="currency" format="1">
  <advance width="1461"/>
  <unicode hex="00A4"/>
  <outline>
    <contour>
      <point x="1139" y="156" type="line"/>
      <point x="1029.6666666666665" y="44.0"/>
      <point x="883.6666666666667" y="-20.0"/>
      <point x="725" y="-20" type="curve" smooth="yes"/>
      <point x="565.0" y="-20.0"/>
      <point x="419.33333333333337" y="43.33333333333334"/>
      <point x="310" y="154" type="curve"/>
      <point x="134" y="-26" type="line"/>
      <point x="94" y="13" type="line"/>
      <point x="273" y="195" type="line"/>
      <point x="181.0" y="307.0"/>
      <point x="129.0" y="450.66666666666674"/>
      <point x="129" y="608" type="curve" smooth="yes"/>
      <point x="129.0" y="770.6666666666667"/>
      <point x="184.33333333333337" y="918.6666666666667"/>
      <point x="283" y="1032" type="curve"/>
      <point x="94" y="1225" type="line"/>
      <point x="134" y="1264" type="line"/>
      <point x="322" y="1072" type="line"/>
      <point x="428.66666666666663" y="1174.6666666666665"/>
      <point x="570.3333333333333" y="1234.0"/>
      <point x="725" y="1234" type="curve" smooth="yes"/>
      <point x="877.0" y="1234.0"/>
      <point x="1018.6666666666665" y="1174.0"/>
      <point x="1128" y="1070" type="curve"/>
      <point x="1319" y="1265" type="line"/>
      <point x="1360" y="1225" type="line"/>
      <point x="1167" y="1029" type="line"/>
      <point x="1263.0" y="915.6666666666667"/>
      <point x="1319.0" y="768.0"/>
      <point x="1319" y="608" type="curve" smooth="yes"/>
      <point x="1319.0" y="452.0"/>
      <point x="1267.3333333333335" y="309.66666666666663"/>
      <point x="1178" y="199" type="curve"/>
      <point x="1360" y="13" type="line"/>
      <point x="1319" y="-27" type="line"/>
    </contour>
    <contour>
      <point x="184" y="608" type="curve" smooth="yes"/>
      <point x="184.0" y="290.66666666666674"/>
      <point x="427.66666666666674" y="33.0"/>
      <point x="725" y="33" type="curve" smooth="yes"/>
      <point x="1019.6666666666664" y="33.0"/>
      <point x="1265.0" y="290.66666666666663"/>
      <point x="1265" y="608" type="curve" smooth="yes"/>
      <point x="1265.0" y="924.0"/>
      <point x="1019.6666666666665" y="1181.0"/>
      <point x="725" y="1181" type="curve" smooth="yes"/>
      <point x="427.66666666666674" y="1181.0"/>
      <point x="184.0" y="924.0"/>
    </contour>
  </outline>
</glyph>
<glyph name="yen" format="1">
  <advance width="1381"/>
  <unicode hex="00A5"/>
  <outline>
    <contour>
      <point x="1320" y="1402" type="line"/>
      <point x="1199" y="1402" type="line"/>
      <point x="744" y="676" type="line"/>
      <point x="1168" y="676" type="line"/>
      <point x="1168" y="621" type="line"/>
      <point x="716" y="621" type="line"/>
      <point x="716" y="381" type="line"/>
      <point x="1168" y="381" type="line"/>
      <point x="1168" y="326" type="line"/>
      <point x="716" y="326" type="line"/>
      <point x="716" y="54" type="line"/>
      <point x="879" y="54" type="line"/>
      <point x="879" y="0" type="line"/>
      <point x="499" y="0" type="line"/>
      <point x="499" y="54" type="line"/>
      <point x="662" y="54" type="line"/>
      <point x="662" y="326" type="line"/>
      <point x="212" y="326" type="line"/>
      <point x="212" y="381" type="line"/>
      <point x="662" y="381" type="line"/>
      <point x="662" y="621" type="line"/>
      <point x="212" y="621" type="line"/>
      <point x="212" y="676" type="line"/>
      <point x="633" y="676" type="line"/>
      <point x="180" y="1402" type="line"/>
      <point x="59" y="1402" type="line"/>
      <point x="59" y="1456" type="line"/>
      <point x="374" y="1456" type="line"/>
      <point x="374" y="1402" type="line"/>
      <point x="245" y="1402" type="line"/>
      <point x="663" y="738" type="line"/>
      <point x="687" y="687" type="line"/>
      <point x="692" y="687" type="line"/>
      <point x="716" y="738" type="line"/>
      <point x="1133" y="1402" type="line"/>
      <point x="1004" y="1402" type="line"/>
      <point x="1004" y="1456" type="line"/>
      <point x="1320" y="1456" type="line"/>
    </contour>
  </outline>
</glyph>
<glyph name="dieresis" format="1">
  <advance width="956"/>
  <unicode hex="00A8"/>
  <outline>
    <contour>
      <point x="726" y="1318" type="line"/>
      <point x="654" y="1318" type="line"/>
      <point x="654" y="1456" type="line"/>
      <point x="726" y="1456" type="line"/>
    </contour>
    <contour>
      <point x="257" y="1318" type="line"/>
      <point x="184" y="1318" type="line"/>
      <point x="184" y="1456" type="line"/>
      <point x="257" y="1456" type="line"/>
    </contour>
  </outline>
</glyph>
<glyph name="registered" format="1">
  <advance width="1595"/>
  <unicode hex="00AE"/>
  <outline>
    <contour>
      <point x="92" y="729" type="curve" smooth="yes"/>
      <point x="92.0" y="1149.0"/>
      <point x="407.3333333333335" y="1476.0"/>
      <point x="802" y="1476" type="curve" smooth="yes"/>
      <point x="1195.3333333333333" y="1476.0"/>
      <point x="1512.0" y="1149.0"/>
      <point x="1512" y="729" type="curve" smooth="yes"/>
      <point x="1512.0" y="307.66666666666663"/>
      <point x="1195.3333333333333" y="-21.0"/>
      <point x="802" y="-21" type="curve" smooth="yes"/>
      <point x="407.3333333333335" y="-21.0"/>
      <point x="92.0" y="307.66666666666674"/>
    </contour>
    <contour>
      <point x="147" y="729" type="curve" smooth="yes"/>
      <point x="147.0" y="342.3333333333335"/>
      <point x="440.66666666666674" y="34.0"/>
      <point x="802" y="34" type="curve" smooth="yes"/>
      <point x="1160.6666666666665" y="34.0"/>
      <point x="1456.0" y="342.3333333333335"/>
      <point x="1456" y="729" type="curve" smooth="yes"/>
      <point x="1456.0" y="1114.3333333333333"/>
      <point x="1162.0" y="1421.0"/>
      <point x="802" y="1421" type="curve" smooth="yes"/>
      <point x="440.66666666666674" y="1421.0"/>
      <point x="147.0" y="1114.3333333333333"/>
    </contour>
    <contour>
      <point x="625" y="688" type="line"/>
      <point x="625" y="316" type="line"/>
      <point x="570" y="316" type="line"/>
      <point x="570" y="1166" type="line"/>
      <point x="809" y="1166" type="line" smooth="yes"/>
      <point x="999.6666666666669" y="1166.0"/>
      <point x="1098.0" y="1083.333333333333"/>
      <point x="1098" y="926" type="curve" smooth="yes"/>
      <point x="1098.0" y="828.6666666666667"/>
      <point x="1042.3333333333333" y="758.6666666666667"/>
      <point x="945" y="720" type="curve"/>
      <point x="1038.3333333333333" y="690.6666666666667"/>
      <point x="1077.0" y="616.3333333333333"/>
      <point x="1077" y="515" type="curve" smooth="yes"/>
      <point x="1077" y="459" type="line" smooth="yes"/>
      <point x="1077.0" y="408.33333333333337"/>
      <point x="1082.0" y="361.33333333333337"/>
      <point x="1094" y="332" type="curve"/>
      <point x="1094" y="316" type="line"/>
      <point x="1035" y="316" type="line"/>
      <point x="1021.6666666666665" y="344.0"/>
      <point x="1021.0" y="404.0"/>
      <point x="1021" y="460" type="curve" smooth="yes"/>
      <point x="1021" y="514" type="line" smooth="yes"/>
      <point x="1021.0" y="639.3333333333333"/>
      <point x="970.3333333333333" y="688.0"/>
      <point x="837" y="688" type="curve" smooth="yes"/>
    </contour>
    <contour>
      <point x="625" y="744" type="line"/>
      <point x="830" y="744" type="line" smooth="yes"/>
      <point x="951.3333333333333" y="744.0"/>
      <point x="1043.0" y="811.0"/>
      <point x="1043" y="927" type="curve" smooth="yes"/>
      <point x="1043.0" y="1055.0"/>
      <point x="981.0" y="1111.0"/>
      <point x="809" y="1111" type="curve" smooth="yes"/>
      <point x="625" y="1111" type="line"/>
    </contour>
  </outline>
</glyph>
<glyph name="threesuperior" format="1">
  <advance width="831"/>
  <unicode hex="00B3"/>
  <outline>
    <contour>
      <point x="376" y="1103" type="line" smooth="yes"/>
      <point x="518.6666666666665" y="1103.0"/>
      <point x="584.0" y="1158.6666666666665"/>
      <point x="584" y="1260" type="curve" smooth="yes"/>
      <point x="584.0" y="1357.3333333333335"/>
      <point x="513.6666666666666" y="1423.0"/>
      <point x="375" y="1423" type="curve" smooth="yes"/>
      <point x="252.3333333333334" y="1423.0"/>
      <point x="161.0" y="1356.6666666666665"/>
      <point x="161" y="1258" type="curve"/>
      <point x="115" y="1258" type="line"/>
      <point x="113" y="1264" type="line"/>
      <point x="105.0" y="1389.3333333333335"/>
      <point x="223.0" y="1478.0"/>
      <point x="375" y="1478" type="curve" smooth="yes"/>
      <point x="537.6666666666666" y="1478.0"/>
      <point x="639.0" y="1398.3333333333335"/>
      <point x="639" y="1257" type="curve" smooth="yes"/>
      <point x="639.0" y="1175.6666666666665"/>
      <point x="588.6666666666667" y="1108.0"/>
      <point x="502" y="1076" type="curve"/>
      <point x="600.6666666666669" y="1048.0"/>
      <point x="653.0" y="982.9999999999999"/>
      <point x="653" y="883" type="curve" smooth="yes"/>
      <point x="653.0" y="740.3333333333333"/>
      <point x="539.0" y="655.0"/>
      <point x="375" y="655" type="curve" smooth="yes"/>
      <point x="221.66666666666674" y="655.0"/>
      <point x="92.33333333333334" y="735.3333333333333"/>
      <point x="99" y="882" type="curve"/>
      <point x="101" y="888" type="line"/>
      <point x="149" y="888" type="line"/>
      <point x="149.0" y="784.0"/>
      <point x="240.33333333333337" y="710.0"/>
      <point x="375" y="710" type="curve" smooth="yes"/>
      <point x="516.3333333333333" y="710.0"/>
      <point x="597.0" y="774.3333333333333"/>
      <point x="597" y="881" type="curve" smooth="yes"/>
      <point x="597.0" y="995.6666666666669"/>
      <point x="522.6666666666665" y="1047.0"/>
      <point x="376" y="1047" type="curve" smooth="yes"/>
      <point x="262" y="1047" type="line"/>
      <point x="262" y="1103" type="line"/>
    </contour>
  </outline>
</glyph>
<glyph name="micro" format="1">
  <advance width="1282"/>
  <unicode hex="00B5"/>
  <outline>
    <contour>
      <point x="959" y="205" type="line"/>
      <point x="895.0" y="59.6666666667"/>
      <point x="776.0" y="-21.0"/>
      <point x="596" y="-21" type="curve" smooth="yes"/>
      <point x="458.666666667" y="-21.0"/>
      <point x="343.666666667" y="35.0"/>
      <point x="281" y="171" type="curve"/>
      <point x="281" y="-416" type="line"/>
      <point x="229" y="-416" type="line"/>
      <point x="229" y="1028" type="line"/>
      <point x="66" y="1028" type="line"/>
      <point x="66" y="1082" type="line"/>
      <point x="229" y="1082" type="line"/>
      <point x="281" y="1082" type="line"/>
      <point x="281" y="440" type="line" smooth="yes"/>
      <point x="281.0" y="142.666666667"/>
      <point x="405.666666667" y="33.0"/>
      <point x="587" y="33" type="curve" smooth="yes"/>
      <point x="832.333333333" y="33.0"/>
      <point x="933.0" y="162.333333333"/>
      <point x="957" y="389" type="curve"/>
      <point x="957" y="1028" type="line"/>
      <point x="794" y="1028" type="line"/>
      <point x="794" y="1082" type="line"/>
      <point x="1011" y="1082" type="line"/>
      <point x="1011" y="54" type="line"/>
      <point x="1174" y="54" type="line"/>
      <point x="1174" y="0" type="line"/>
      <point x="970" y="0" type="line"/>
    </contour>
  </outline>
</glyph>
<glyph name="questiondown" format="1">
  <advance width="839"/>
  <unicode hex="00BF"/>
  <outline>
    <contour>
      <point x="464" y="683" type="line"/>
      <point x="461.33333333333337" y="525.6666666666669"/>
      <point x="451.0000000000001" y="493.66666666666674"/>
      <point x="339" y="391" type="curve" smooth="yes"/>
      <point x="176.33333333333337" y="235.0"/>
      <point x="112.0" y="157.66666666666666"/>
      <point x="112" y="-29" type="curve" smooth="yes"/>
      <point x="112.0" y="-223.66666666666666"/>
      <point x="219.0" y="-341.0"/>
      <point x="411" y="-341" type="curve" smooth="yes"/>
      <point x="599.0" y="-341.0"/>
      <point x="706.6666666666667" y="-218.33333333333331"/>
      <point x="712" y="-33" type="curve"/>
      <point x="758" y="-33" type="line"/>
      <point x="761" y="-39" type="line"/>
      <point x="762.3333333333333" y="-265.6666666666667"/>
      <point x="616.3333333333333" y="-394.0"/>
      <point x="411" y="-394" type="curve" smooth="yes"/>
      <point x="191.0" y="-394.0"/>
      <point x="58.0" y="-247.0"/>
      <point x="58" y="-27" type="curve" smooth="yes"/>
      <point x="58.0" y="159.66666666666666"/>
      <point x="139.0" y="278.33333333333337"/>
      <point x="311" y="433" type="curve"/>
      <point x="401.66666666666674" y="502.3333333333334"/>
      <point x="410.0" y="548.3333333333334"/>
      <point x="410" y="683" type="curve"/>
    </contour>
    <contour>
      <point x="386" y="1083" type="line"/>
      <point x="468" y="1083" type="line"/>
      <point x="468" y="977" type="line"/>
      <point x="386" y="977" type="line"/>
    </contour>
  </outline>
</glyph>
<glyph name="multiply" format="1">
  <advance width="1044"/>
  <unicode hex="00D7"/>
  <outline>
    <contour>
      <point x="79" y="289" type="line"/>
      <point x="463" y="682" type="line"/>
      <point x="106" y="1046" type="line"/>
      <point x="145" y="1085" type="line"/>
      <point x="501" y="721" type="line"/>
      <point x="858" y="1085" type="line"/>
      <point x="897" y="1046" type="line"/>
      <point x="540" y="682" type="line"/>
      <point x="925" y="289" type="line"/>
      <point x="886" y="252" type="line"/>
      <point x="502" y="643" type="line"/>
      <point x="118" y="252" type="line"/>
    </contour>
  </outline>
</glyph>
<glyph name="Oslash" format="1">
  <advance width="1411"/>
  <unicode hex="00D8"/>
  <outline>
    <contour>
      <point x="1338" y="719" type="line" smooth="yes"/>
      <point x="1338.0" y="271.0"/>
      <point x="1091.33333333" y="-21.0"/>
      <point x="730" y="-21" type="curve" smooth="yes"/>
      <point x="590.0" y="-21.0"/>
      <point x="465.666666667" y="21.3333333333"/>
      <point x="367" y="104" type="curve"/>
      <point x="254" y="-75" type="line"/>
      <point x="188" y="-75" type="line"/>
      <point x="325" y="142" type="line"/>
      <point x="193.0" y="272.666666667"/>
      <point x="120.0" y="472.333333333"/>
      <point x="120" y="719" type="curve" smooth="yes"/>
      <point x="120" y="737" type="line" smooth="yes"/>
      <point x="120.0" y="1183.66666667"/>
      <point x="365.333333333" y="1477.0"/>
      <point x="728" y="1477" type="curve" smooth="yes"/>
      <point x="866.666666667" y="1477.0"/>
      <point x="993.0" y="1431.33333333"/>
      <point x="1093" y="1350" type="curve"/>
      <point x="1185" y="1495" type="line"/>
      <point x="1251" y="1495" type="line"/>
      <point x="1135" y="1312" type="line"/>
      <point x="1263.0" y="1180.0"/>
      <point x="1338.0" y="979.666666667"/>
      <point x="1338" y="737" type="curve" smooth="yes"/>
    </contour>
    <contour>
      <point x="1284" y="739" type="line" smooth="yes"/>
      <point x="1284.0" y="960.333333333"/>
      <point x="1220.0" y="1144.33333333"/>
      <point x="1108" y="1259" type="curve"/>
      <point x="1102" y="1260" type="line"/>
      <point x="396" y="149" type="line"/>
      <point x="486.666666667" y="73.0"/>
      <point x="599.333333333" y="33.0"/>
      <point x="730" y="33" type="curve" smooth="yes"/>
      <point x="1067.33333333" y="33.0"/>
      <point x="1284.0" y="304.333333333"/>
      <point x="1284" y="719" type="curve" smooth="yes"/>
    </contour>
    <contour>
      <point x="175" y="719" type="line" smooth="yes"/>
      <point x="175.0" y="493.666666667"/>
      <point x="238.333333333" y="309.666666667"/>
      <point x="353" y="195" type="curve"/>
      <point x="359" y="194" type="line"/>
      <point x="1064" y="1305" type="line"/>
      <point x="973.333333333" y="1381.0"/>
      <point x="858.666666667" y="1423.0"/>
      <point x="728" y="1423" type="curve" smooth="yes"/>
      <point x="392.0" y="1423.0"/>
      <point x="175.0" y="1151.0"/>
      <point x="175" y="739" type="curve" smooth="yes"/>
    </contour>
  </outline>
</glyph>
<glyph name="Thorn" format="1">
  <advance width="1240"/>
  <unicode hex="00DE"/>
  <outline>
    <contour>
      <point x="70" y="54" type="line"/>
      <point x="233" y="54" type="line"/>
      <point x="233" y="1402" type="line"/>
      <point x="70" y="1402" type="line"/>
      <point x="70" y="1456" type="line"/>
      <point x="287" y="1456" type="line"/>
      <point x="450" y="1456" type="line"/>
      <point x="450" y="1402" type="line"/>
      <point x="287" y="1402" type="line"/>
      <point x="287" y="1143" type="line"/>
      <point x="658" y="1143" type="line" smooth="yes"/>
      <point x="940.666666667" y="1143.0"/>
      <point x="1108.0" y="976.666666667"/>
      <point x="1108" y="738" type="curve" smooth="yes"/>
      <point x="1108.0" y="498.0"/>
      <point x="940.666666667" y="334.0"/>
      <point x="658" y="334" type="curve" smooth="yes"/>
      <point x="287" y="334" type="line"/>
      <point x="287" y="54" type="line"/>
      <point x="450" y="54" type="line"/>
      <point x="450" y="0" type="line"/>
      <point x="70" y="0" type="line"/>
    </contour>
    <contour>
      <point x="287" y="1089" type="line"/>
      <point x="287" y="388" type="line"/>
      <point x="658" y="388" type="line" smooth="yes"/>
      <point x="918.0" y="388.0"/>
      <point x="1054.0" y="549.333333333"/>
      <point x="1054" y="736" type="curve" smooth="yes"/>
      <point x="1054.0" y="928.0"/>
      <point x="919.333333333" y="1089.0"/>
      <point x="658" y="1089" type="curve" smooth="yes"/>
    </contour>
  </outline>
</glyph>
<glyph name="ae" format="1">
  <advance width="1779"/>
  <unicode hex="00E6"/>
  <outline>
    <contour>
      <point x="1272" y="-21" type="curve" smooth="yes"/>
      <point x="1087" y="-21"/>
      <point x="955" y="62"/>
      <point x="875" y="221" type="curve"/>
      <point x="813" y="89"/>
      <point x="664.0" y="-21.0"/>
      <point x="452" y="-21" type="curve" smooth="yes"/>
      <point x="226.66666666666674" y="-21.0"/>
      <point x="97.0" y="96.0"/>
      <point x="97" y="284" type="curve" smooth="yes"/>
      <point x="97.0" y="493.33333333333326"/>
      <point x="251.0" y="630.0"/>
      <point x="527" y="630" type="curve" smooth="yes"/>
      <point x="817" y="630" type="line"/>
      <point x="817" y="720" type="line" smooth="yes"/>
      <point x="817.0" y="930.6666666666667"/>
      <point x="719.6666666666667" y="1048.0"/>
      <point x="525" y="1048" type="curve" smooth="yes"/>
      <point x="309.00000000000006" y="1048.0"/>
      <point x="178.0" y="932.3333333333333"/>
      <point x="178" y="771" type="curve"/>
      <point x="133" y="777" type="line"/>
      <point x="131" y="783" type="line"/>
      <point x="124.33333333333334" y="966.9999999999999"/>
      <point x="282.33333333333326" y="1102.0"/>
      <point x="525" y="1102" type="curve" smooth="yes"/>
      <point x="709.0" y="1102.0"/>
      <point x="833.3333333333333" y="1002.0"/>
      <point x="864" y="814" type="curve"/>
      <point x="934.6666666666667" y="991.3333333333333"/>
      <point x="1081.0" y="1102.0"/>
      <point x="1257" y="1102" type="curve" smooth="yes"/>
      <point x="1507.6666666666665" y="1102.0"/>
      <point x="1661.0" y="933.3333333333333"/>
      <point x="1661" y="660" type="curve" smooth="yes"/>
      <point x="1661" y="577" type="line"/>
      <point x="874" y="577" type="line"/>
      <point x="874" y="500" type="line" smooth="yes"/>
      <point x="874" y="222"/>
      <point x="1005.3333333333335" y="33.0"/>
      <point x="1272" y="33" type="curve" smooth="yes"/>
      <point x="1408.0" y="33.0"/>
      <point x="1522.6666666666665" y="81.33333333333334"/>
      <point x="1604" y="164" type="curve"/>
      <point x="1634" y="122" type="line"/>
      <point x="1547.3333333333335" y="34.0"/>
      <point x="1445" y="-21"/>
    </contour>
    <contour>
      <point x="451" y="31" type="curve" smooth="yes"/>
      <point x="624.3333333333333" y="31.0"/>
      <point x="787.6666666666667" y="141.0"/>
      <point x="817" y="225" type="curve"/>
      <point x="817" y="575" type="line"/>
      <point x="529" y="575" type="line" smooth="yes"/>
      <point x="282.33333333333337" y="575.0"/>
      <point x="152.0" y="449.33333333333326"/>
      <point x="152" y="280" type="curve" smooth="yes"/>
      <point x="152.0" y="123.99999999999997"/>
      <point x="259.00000000000006" y="31.0"/>
    </contour>
    <contour>
      <point x="1257" y="1048" type="curve" smooth="yes"/>
      <point x="1045.0" y="1048.0"/>
      <point x="899.3333333333333" y="874.3333333333334"/>
      <point x="882" y="637" type="curve"/>
      <point x="884" y="632" type="line"/>
      <point x="1607" y="632" type="line"/>
      <point x="1607" y="664" type="line" smooth="yes"/>
      <point x="1607.0" y="888.0"/>
      <point x="1479.6666666666665" y="1048.0"/>
    </contour>
  </outline>
</glyph>
<glyph name="idotless" format="1">
  <advance width="608"/>
  <unicode hex="0131"/>
  <outline>
    <contour>
      <point x="90" y="1028" type="line"/>
      <point x="90" y="1082" type="line"/>
      <point x="307" y="1082" type="line"/>
      <point x="307" y="54" type="line"/>
      <point x="470" y="54" type="line"/>
      <point x="470" y="0" type="line"/>
      <point x="90" y="0" type="line"/>
      <point x="90" y="54" type="line"/>
      <point x="253" y="54" type="line"/>
      <point x="253" y="1028" type="line"/>
    </contour>
  </outline>
</glyph>
<glyph name="kgreenlandic" format="1">
  <advance width="1155"/>
  <unicode hex="0138"/>
  <outline>
    <contour>
      <point x="62" y="54" type="line"/>
      <point x="225" y="54" type="line"/>
      <point x="225" y="1027" type="line"/>
      <point x="62" y="1027" type="line"/>
      <point x="62" y="1081" type="line"/>
      <point x="279" y="1081" type="line"/>
      <point x="279" y="607" type="line"/>
      <point x="406" y="607" type="line"/>
      <point x="836" y="1022" type="line"/>
      <point x="834" y="1028" type="line"/>
      <point x="715" y="1028" type="line"/>
      <point x="715" y="1082" type="line"/>
      <point x="1036" y="1082" type="line"/>
      <point x="1036" y="1028" type="line"/>
      <point x="914" y="1028" type="line"/>
      <point x="467" y="589" type="line"/>
      <point x="956" y="54" type="line"/>
      <point x="1073" y="54" type="line"/>
      <point x="1073" y="0" type="line"/>
      <point x="936" y="0" type="line"/>
      <point x="427" y="553" type="line"/>
      <point x="279" y="553" type="line"/>
      <point x="279" y="54" type="line"/>
      <point x="442" y="54" type="line"/>
      <point x="442" y="0" type="line"/>
      <point x="62" y="0" type="line"/>
    </contour>
  </outline>
</glyph>
<glyph name="lslash" format="1">
  <advance width="524"/>
  <unicode hex="0142"/>
  <outline>
    <contour>
      <point x="279" y="841" type="line"/>
      <point x="497" y="930" type="line"/>
      <point x="497" y="871" type="line"/>
      <point x="279" y="782" type="line"/>
      <point x="279" y="54" type="line"/>
      <point x="442" y="54" type="line"/>
      <point x="442" y="0" type="line"/>
      <point x="62" y="0" type="line"/>
      <point x="62" y="54" type="line"/>
      <point x="225" y="54" type="line"/>
      <point x="225" y="760" type="line"/>
      <point x="37" y="684" type="line"/>
      <point x="37" y="743" type="line"/>
      <point x="225" y="819" type="line"/>
      <point x="225" y="1506" type="line"/>
      <point x="62" y="1506" type="line"/>
      <point x="62" y="1560" type="line"/>
      <point x="279" y="1560" type="line"/>
    </contour>
  </outline>
</glyph>
<glyph name="eng" format="1">
  <advance width="1225"/>
  <unicode hex="014B"/>
  <outline>
    <contour>
      <point x="90" y="54" type="line"/>
      <point x="253" y="54" type="line"/>
      <point x="253" y="1028" type="line"/>
      <point x="90" y="1028" type="line"/>
      <point x="90" y="1082" type="line"/>
      <point x="301" y="1082" type="line"/>
      <point x="307" y="858" type="line"/>
      <point x="372.333333333" y="1012.66666667"/>
      <point x="497.666666667" y="1102.0"/>
      <point x="683" y="1102" type="curve" smooth="yes"/>
      <point x="919.0" y="1102.0"/>
      <point x="1037.0" y="959.666666667"/>
      <point x="1037" y="637" type="curve" smooth="yes"/>
      <point x="1037" y="-89" type="line" smooth="yes"/>
      <point x="1037.0" y="-311.666666667"/>
      <point x="930.666666667" y="-437.0"/>
      <point x="752" y="-437" type="curve" smooth="yes"/>
      <point x="704.0" y="-437.0"/>
      <point x="665.666666667" y="-430.333333333"/>
      <point x="619" y="-417" type="curve"/>
      <point x="632" y="-365" type="line"/>
      <point x="660.0" y="-374.333333333"/>
      <point x="710.666666667" y="-384.0"/>
      <point x="752" y="-384" type="curve" smooth="yes"/>
      <point x="898.666666667" y="-384.0"/>
      <point x="983.0" y="-275.666666667"/>
      <point x="983" y="-89" type="curve" smooth="yes"/>
      <point x="983" y="639" type="line" smooth="yes"/>
      <point x="983.0" y="939.0"/>
      <point x="869.333333333" y="1048.0"/>
      <point x="684" y="1048" type="curve" smooth="yes"/>
      <point x="452.0" y="1048.0"/>
      <point x="337.666666667" y="896.0"/>
      <point x="307" y="680" type="curve"/>
      <point x="307" y="54" type="line"/>
      <point x="470" y="54" type="line"/>
      <point x="470" y="0" type="line"/>
      <point x="90" y="0" type="line"/>
    </contour>
  </outline>
</glyph>
<glyph name="OE" format="1">
  <advance width="1973"/>
  <unicode hex="0152"/>
  <outline>
    <contour>
      <point x="1633" y="732" type="line"/>
      <point x="1003" y="732" type="line"/>
      <point x="1003" y="54" type="line"/>
      <point x="1781" y="54" type="line"/>
      <point x="1781" y="293" type="line"/>
      <point x="1835" y="293" type="line"/>
      <point x="1835" y="0" type="line"/>
      <point x="963" y="0" type="line"/>
      <point x="825.666666667" y="-13.3333333333"/>
      <point x="735.666666667" y="-21.0"/>
      <point x="633" y="-21" type="curve" smooth="yes"/>
      <point x="325.0" y="-21.0"/>
      <point x="114.0" y="222.666666667"/>
      <point x="114" y="576" type="curve" smooth="yes"/>
      <point x="114" y="880" type="line" smooth="yes"/>
      <point x="114.0" y="1233.33333333"/>
      <point x="323.0" y="1477.0"/>
      <point x="631" y="1477" type="curve" smooth="yes"/>
      <point x="737.666666667" y="1477.0"/>
      <point x="844.333333333" y="1468.0"/>
      <point x="963" y="1456" type="curve"/>
      <point x="1835" y="1456" type="line"/>
      <point x="1835" y="1163" type="line"/>
      <point x="1781" y="1163" type="line"/>
      <point x="1781" y="1402" type="line"/>
      <point x="1003" y="1402" type="line"/>
      <point x="1003" y="786" type="line"/>
      <point x="1633" y="786" type="line"/>
    </contour>
    <contour>
      <point x="633" y="33" type="curve" smooth="yes"/>
      <point x="712" y="33"/>
      <point x="819" y="38"/>
      <point x="949" y="54" type="curve"/>
      <point x="949" y="1402" type="line"/>
      <point x="827" y="1415"/>
      <point x="723" y="1423"/>
      <point x="631" y="1423" type="curve" smooth="yes"/>
      <point x="350" y="1423"/>
      <point x="168.0" y="1206.0"/>
      <point x="168" y="882" type="curve" smooth="yes"/>
      <point x="168" y="576" type="line" smooth="yes"/>
      <point x="168.0" y="256.0"/>
      <point x="353" y="33"/>
    </contour>
  </outline>
</glyph>
<glyph name="Tbar" format="1">
  <advance width="1277"/>
  <unicode hex="0166"/>
  <outline>
    <contour>
      <point x="1194" y="1456" type="line"/>
      <point x="1194" y="1163" type="line"/>
      <point x="1140" y="1163" type="line"/>
      <point x="1140" y="1402" type="line"/>
      <point x="664" y="1402" type="line"/>
      <point x="664" y="901" type="line"/>
      <point x="968" y="901" type="line"/>
      <point x="968" y="847" type="line"/>
      <point x="664" y="847" type="line"/>
      <point x="664" y="54" type="line"/>
      <point x="827" y="54" type="line"/>
      <point x="827" y="0" type="line"/>
      <point x="447" y="0" type="line"/>
      <point x="447" y="54" type="line"/>
      <point x="610" y="54" type="line"/>
      <point x="610" y="847" type="line"/>
      <point x="381" y="847" type="line"/>
      <point x="381" y="901" type="line"/>
      <point x="610" y="901" type="line"/>
      <point x="610" y="1402" type="line"/>
      <point x="134" y="1402" type="line"/>
      <point x="134" y="1163" type="line"/>
      <point x="80" y="1163" type="line"/>
      <point x="80" y="1456" type="line"/>
    </contour>
  </outline>
</glyph>
<glyph name="longs" format="1">
  <advance width="699"/>
  <unicode hex="017F"/>
  <outline>
    <contour>
      <point x="57" y="54" type="line"/>
      <point x="220" y="54" type="line"/>
      <point x="220" y="1260" type="line" smooth="yes"/>
      <point x="220.0" y="1465.33333333"/>
      <point x="323.333333333" y="1581.0"/>
      <point x="502" y="1581" type="curve" smooth="yes"/>
      <point x="547.333333333" y="1581.0"/>
      <point x="591.333333333" y="1576.0"/>
      <point x="630" y="1564" type="curve"/>
      <point x="622" y="1512" type="line"/>
      <point x="582.0" y="1522.66666667"/>
      <point x="553.666666667" y="1527.0"/>
      <point x="503" y="1527" type="curve" smooth="yes"/>
      <point x="359.0" y="1527.0"/>
      <point x="274.0" y="1428.0"/>
      <point x="274" y="1260" type="curve" smooth="yes"/>
      <point x="274" y="54" type="line"/>
      <point x="437" y="54" type="line"/>
      <point x="437" y="0" type="line"/>
      <point x="57" y="0" type="line"/>
    </contour>
  </outline>
</glyph>
<glyph name="Uhorn" format="1">
  <advance width="1509"/>
  <unicode hex="01AF"/>
  <outline>
    <contour>
      <point x="1218" y="1258" type="line"/>
      <point x="1224" y="1256" type="line"/>
      <point x="1394.66666667" y="1257.33333333"/>
      <point x="1450.0" y="1351.0"/>
      <point x="1450" y="1551" type="curve"/>
      <point x="1497" y="1551" type="line"/>
      <point x="1500" y="1546" type="line"/>
      <point x="1504.0" y="1319.33333333"/>
      <point x="1422.0" y="1203.33333333"/>
      <point x="1218" y="1194" type="curve"/>
      <point x="1218" y="469" type="line" smooth="yes"/>
      <point x="1218.0" y="151.666666667"/>
      <point x="1015.66666667" y="-21.0"/>
      <point x="721" y="-21" type="curve" smooth="yes"/>
      <point x="423.666666667" y="-21.0"/>
      <point x="223.0" y="153.0"/>
      <point x="223" y="469" type="curve" smooth="yes"/>
      <point x="223" y="1402" type="line"/>
      <point x="60" y="1402" type="line"/>
      <point x="60" y="1456" type="line"/>
      <point x="440" y="1456" type="line"/>
      <point x="440" y="1402" type="line"/>
      <point x="277" y="1402" type="line"/>
      <point x="277" y="469" type="line" smooth="yes"/>
      <point x="277.0" y="195.666666667"/>
      <point x="459.666666667" y="33.0"/>
      <point x="721" y="33" type="curve" smooth="yes"/>
      <point x="981.0" y="33.0"/>
      <point x="1164.0" y="195.666666667"/>
      <point x="1164" y="469" type="curve" smooth="yes"/>
      <point x="1164" y="1402" type="line"/>
      <point x="1001" y="1402" type="line"/>
      <point x="1001" y="1456" type="line"/>
      <point x="1218" y="1456" type="line"/>
    </contour>
  </outline>
</glyph>
<glyph name="jdotless" format="1">
  <advance width="563"/>
  <unicode hex="0237"/>
  <outline>
    <contour>
      <point x="393" y="-89" type="line" smooth="yes"/>
      <point x="393.0" y="-311.66666666666663"/>
      <point x="288.0" y="-437.0"/>
      <point x="108" y="-437" type="curve" smooth="yes"/>
      <point x="68.0" y="-437.0"/>
      <point x="36.0" y="-430.33333333333337"/>
      <point x="-4" y="-417" type="curve"/>
      <point x="9" y="-365" type="line"/>
      <point x="33.0" y="-373.0"/>
      <point x="73.33333333333334" y="-383.0"/>
      <point x="108" y="-383" type="curve" smooth="yes"/>
      <point x="254.66666666666663" y="-383.0"/>
      <point x="339.0" y="-277.0"/>
      <point x="339" y="-89" type="curve" smooth="yes"/>
      <point x="339" y="1028" type="line"/>
      <point x="176" y="1028" type="line"/>
      <point x="176" y="1082" type="line"/>
      <point x="393" y="1082" type="line"/>
    </contour>
  </outline>
</glyph>
<glyph name="ogonek" format="1">
  <advance width="413"/>
  <unicode hex="02DB"/>
  <outline>
    <contour>
      <point x="256" y="0" type="line"/>
      <point x="154.66666666666669" y="-92.0"/>
      <point x="108.0" y="-144.33333333333337"/>
      <point x="108" y="-223" type="curve" smooth="yes"/>
      <point x="108.0" y="-253.66666666666669"/>
      <point x="122.66666666666667" y="-303.0"/>
      <point x="192" y="-303" type="curve" smooth="yes"/>
      <point x="238.66666666666674" y="-303.0"/>
      <point x="268.66666666666663" y="-287.66666666666663"/>
      <point x="302" y="-265" type="curve"/>
      <point x="318" y="-313" type="line"/>
      <point x="286.0" y="-337.0"/>
      <point x="246.66666666666666" y="-357.0"/>
      <point x="192" y="-357" type="curve" smooth="yes"/>
      <point x="110.66666666666669" y="-357.0"/>
      <point x="54.0" y="-307.0"/>
      <point x="54" y="-223" type="curve" smooth="yes"/>
      <point x="54.0" y="-141.66666666666669"/>
      <point x="116.0" y="-56.0"/>
      <point x="204" y="20" type="curve"/>
    </contour>
  </outline>
</glyph>
<glyph name="hungarumlaut" format="1">
  <advance width="866"/>
  <unicode hex="02DD"/>
  <outline>
    <contour>
      <point x="620" y="1518" type="line"/>
      <point x="692" y="1518" type="line"/>
      <point x="694" y="1512" type="line"/>
      <point x="402" y="1252" type="line"/>
      <point x="337" y="1252" type="line"/>
      <point x="335" y="1258" type="line"/>
    </contour>
    <contour>
      <point x="350" y="1518" type="line"/>
      <point x="418" y="1518" type="line"/>
      <point x="421" y="1512" type="line"/>
      <point x="173" y="1252" type="line"/>
      <point x="111" y="1252" type="line"/>
      <point x="109" y="1257" type="line"/>
    </contour>
  </outline>
</glyph>
<glyph name="hookabovecomb" format="1">
  <advance width="565"/>
  <unicode hex="0309"/>
  <outline>
    <contour>
      <point x="182" y="1227" type="line"/>
      <point x="182" y="1326" type="line"/>
      <point x="315.3333333333333" y="1336.6666666666665"/>
      <point x="371.0" y="1366.6666666666665"/>
      <point x="371" y="1440" type="curve" smooth="yes"/>
      <point x="371.0" y="1516.0"/>
      <point x="261.66666666666663" y="1550.0"/>
      <point x="135" y="1550" type="curve"/>
      <point x="142" y="1599" type="line"/>
      <point x="310.0" y="1599.0"/>
      <point x="427.0" y="1537.3333333333335"/>
      <point x="427" y="1440" type="curve" smooth="yes"/>
      <point x="427.0" y="1338.6666666666665"/>
      <point x="348.66666666666663" y="1289.0"/>
      <point x="230" y="1281" type="curve"/>
      <point x="230" y="1227" type="line"/>
    </contour>
  </outline>
</glyph>
<glyph name="dotbelowcomb" format="1">
  <advance width="333"/>
  <unicode hex="0323"/>
  <outline>
    <contour>
      <point x="200" y="-305" type="line"/>
      <point x="129" y="-305" type="line"/>
      <point x="129" y="-157" type="line"/>
      <point x="200" y="-157" type="line"/>
    </contour>
  </outline>
</glyph>
<glyph name="dieresistonos" format="1">
  <advance width="964"/>
  <unicode hex="0385"/>
  <outline>
    <contour>
      <point x="727" y="1348" type="line"/>
      <point x="661" y="1348" type="line"/>
      <point x="661" y="1456" type="line"/>
      <point x="727" y="1456" type="line"/>
    </contour>
    <contour>
      <point x="248" y="1348" type="line"/>
      <point x="181" y="1348" type="line"/>
      <point x="181" y="1456" type="line"/>
      <point x="248" y="1456" type="line"/>
    </contour>
    <contour>
      <point x="514" y="1657" type="line"/>
      <point x="589" y="1657" type="line"/>
      <point x="471" y="1417" type="line"/>
      <point x="429" y="1417" type="line"/>
    </contour>
  </outline>
</glyph>
<glyph name="Theta" format="1">
  <advance width="1372"/>
  <unicode hex="0398"/>
  <outline>
    <contour>
      <point x="1031" y="691" type="line"/>
      <point x="440" y="691" type="line"/>
      <point x="440" y="744" type="line"/>
      <point x="1031" y="744" type="line"/>
    </contour>
    <contour>
      <point x="1338" y="719" type="line" smooth="yes"/>
      <point x="1338.0" y="271.0"/>
      <point x="1091.3333333333333" y="-21.0"/>
      <point x="730" y="-21" type="curve" smooth="yes"/>
      <point x="367.3333333333334" y="-21.0"/>
      <point x="120.0" y="272.33333333333337"/>
      <point x="120" y="719" type="curve" smooth="yes"/>
      <point x="120" y="737" type="line" smooth="yes"/>
      <point x="120.0" y="1183.6666666666665"/>
      <point x="365.3333333333335" y="1477.0"/>
      <point x="728" y="1477" type="curve" smooth="yes"/>
      <point x="1089.3333333333333" y="1477.0"/>
      <point x="1338.0" y="1183.6666666666665"/>
      <point x="1338" y="737" type="curve" smooth="yes"/>
    </contour>
    <contour>
      <point x="1284" y="739" type="line" smooth="yes"/>
      <point x="1284.0" y="1151.0"/>
      <point x="1065.3333333333333" y="1423.0"/>
      <point x="728" y="1423" type="curve" smooth="yes"/>
      <point x="392.0" y="1423.0"/>
      <point x="175.0" y="1151.0"/>
      <point x="175" y="739" type="curve" smooth="yes"/>
      <point x="175" y="719" type="line" smooth="yes"/>
      <point x="175.0" y="304.33333333333337"/>
      <point x="392.66666666666674" y="33.0"/>
      <point x="730" y="33" type="curve" smooth="yes"/>
      <point x="1067.3333333333333" y="33.0"/>
      <point x="1284.0" y="304.33333333333337"/>
      <point x="1284" y="719" type="curve" smooth="yes"/>
    </contour>
  </outline>
</glyph>
<glyph name="Lambda" format="1">
  <advance width="1435"/>
  <unicode hex="039B"/>
  <outline>
    <contour>
      <point x="52" y="54" type="line"/>
      <point x="159" y="54" type="line"/>
      <point x="673" y="1456" type="line"/>
      <point x="738" y="1456" type="line"/>
      <point x="1253" y="54" type="line"/>
      <point x="1360" y="54" type="line"/>
      <point x="1360" y="0" type="line"/>
      <point x="1051" y="0" type="line"/>
      <point x="1051" y="54" type="line"/>
      <point x="1194" y="54" type="line"/>
      <point x="735" y="1304" type="line"/>
      <point x="708" y="1388" type="line"/>
      <point x="702" y="1388" type="line"/>
      <point x="675" y="1304" type="line"/>
      <point x="218" y="54" type="line"/>
      <point x="361" y="54" type="line"/>
      <point x="361" y="0" type="line"/>
      <point x="52" y="0" type="line"/>
    </contour>
  </outline>
</glyph>
<glyph name="Phi" format="1">
  <advance width="1448"/>
  <unicode hex="03A6"/>
  <outline>
    <contour>
      <point x="681.0" y="209.0" type="line"/>
      <point x="314.0" y="210.0"/>
      <point x="79.0" y="437.0"/>
      <point x="79.0" y="737.0" type="curve" smooth="yes"/>
      <point x="79.0" y="1034.0"/>
      <point x="316.0" y="1263.0"/>
      <point x="681.0" y="1266.0" type="curve"/>
      <point x="681.0" y="1270.0" type="line"/>
      <point x="681.0" y="1402.0" type="line"/>
      <point x="518.0" y="1402.0" type="line"/>
      <point x="518.0" y="1456.0" type="line"/>
      <point x="899.0" y="1456.0" type="line"/>
      <point x="899.0" y="1402.0" type="line"/>
      <point x="736.0" y="1402.0" type="line"/>
      <point x="736.0" y="1270.0" type="line"/>
      <point x="736.0" y="1266.0" type="line"/>
      <point x="1101.0" y="1265.0"/>
      <point x="1341.0" y="1038.0"/>
      <point x="1341.0" y="739.0" type="curve" smooth="yes"/>
      <point x="1341.0" y="438.0"/>
      <point x="1101.0" y="209.0"/>
      <point x="736.0" y="209.0" type="curve"/>
      <point x="736.0" y="205.0" type="line"/>
      <point x="736.0" y="54.0" type="line"/>
      <point x="899.0" y="54.0" type="line"/>
      <point x="899.0" y="0.0" type="line"/>
      <point x="518.0" y="0.0" type="line"/>
      <point x="518.0" y="54.0" type="line"/>
      <point x="681.0" y="54.0" type="line"/>
      <point x="681.0" y="204.0" type="line"/>
    </contour>
    <contour>
      <point x="134" y="737" type="curve" smooth="yes"/>
      <point x="134.0" y="461.0"/>
      <point x="345.333333333" y="264.0"/>
      <point x="676" y="268" type="curve"/>
      <point x="681" y="270" type="line"/>
      <point x="681" y="1205" type="line"/>
      <point x="676" y="1207" type="line"/>
      <point x="348.0" y="1209.66666667"/>
      <point x="134.0" y="1007.66666667"/>
    </contour>
    <contour>
      <point x="1286" y="739" type="curve" smooth="yes"/>
      <point x="1286.0" y="1012.33333333"/>
      <point x="1070.33333333" y="1211.0"/>
      <point x="741" y="1207" type="curve"/>
      <point x="736" y="1205" type="line"/>
      <point x="736" y="270" type="line"/>
      <point x="741" y="268" type="line"/>
      <point x="1070.33333333" y="262.666666667"/>
      <point x="1286.0" y="461.666666667"/>
    </contour>
  </outline>
</glyph>
<glyph name="Psi" format="1">
  <advance width="1620"/>
  <unicode hex="03A8"/>
  <outline>
    <contour>
      <point x="966" y="1402" type="line"/>
      <point x="803" y="1402" type="line"/>
      <point x="803" y="479" type="line"/>
      <point x="809" y="476" type="line"/>
      <point x="1085.0" y="476.0"/>
      <point x="1282.0" y="662.0"/>
      <point x="1282" y="946" type="curve" smooth="yes"/>
      <point x="1282" y="1456" type="line"/>
      <point x="1499" y="1456" type="line"/>
      <point x="1499" y="1402" type="line"/>
      <point x="1336" y="1402" type="line"/>
      <point x="1336" y="946" type="line" smooth="yes"/>
      <point x="1336.0" y="619.333333333"/>
      <point x="1120.33333333" y="421.333333333"/>
      <point x="803" y="416" type="curve"/>
      <point x="803" y="54" type="line"/>
      <point x="966" y="54" type="line"/>
      <point x="966" y="0" type="line"/>
      <point x="585" y="0" type="line"/>
      <point x="585" y="54" type="line"/>
      <point x="748" y="54" type="line"/>
      <point x="748" y="416" type="line"/>
      <point x="430.666666667" y="424.0"/>
      <point x="218.0" y="620.666666667"/>
      <point x="218" y="946" type="curve" smooth="yes"/>
      <point x="218" y="1402" type="line"/>
      <point x="55" y="1402" type="line"/>
      <point x="55" y="1456" type="line"/>
      <point x="273" y="1456" type="line"/>
      <point x="273" y="946" type="line" smooth="yes"/>
      <point x="273.0" y="664.666666667"/>
      <point x="466.0" y="479.666666667"/>
      <point x="742" y="477" type="curve"/>
      <point x="748" y="479" type="line"/>
      <point x="748" y="1402" type="line"/>
      <point x="585" y="1402" type="line"/>
      <point x="585" y="1456" type="line"/>
      <point x="966" y="1456" type="line"/>
    </contour>
  </outline>
</glyph>
<glyph name="alpha" format="1">
  <advance width="1201"/>
  <unicode hex="03B1"/>
  <outline>
    <contour>
      <point x="932" y="1082" type="line"/>
      <point x="932" y="255" type="line" smooth="yes"/>
      <point x="932.0" y="92.3333333333"/>
      <point x="976.333333333" y="32.0"/>
      <point x="1055" y="32" type="curve" smooth="yes"/>
      <point x="1076.33333333" y="32.0"/>
      <point x="1085.33333333" y="34.0"/>
      <point x="1120" y="42" type="curve"/>
      <point x="1131" y="-7" type="line"/>
      <point x="1108.33333333" y="-17.6666666667"/>
      <point x="1086.0" y="-21.0"/>
      <point x="1058" y="-21" type="curve" smooth="yes"/>
      <point x="942.0" y="-21.0"/>
      <point x="885.666666667" y="47.6666666667"/>
      <point x="879" y="217" type="curve"/>
      <point x="809.666666667" y="71.6666666667"/>
      <point x="683.333333333" y="-21.0"/>
      <point x="510" y="-21" type="curve" smooth="yes"/>
      <point x="255.333333333" y="-21.0"/>
      <point x="104.0" y="187.666666667"/>
      <point x="104" y="521" type="curve" smooth="yes"/>
      <point x="104" y="542" type="line" smooth="yes"/>
      <point x="104.0" y="884.666666667"/>
      <point x="256.0" y="1102.0"/>
      <point x="512" y="1102" type="curve" smooth="yes"/>
      <point x="685.333333333" y="1102.0"/>
      <point x="807.333333333" y="1002.33333333"/>
      <point x="878" y="837" type="curve"/>
      <point x="884" y="1082" type="line"/>
    </contour>
    <contour>
      <point x="160" y="521" type="line" smooth="yes"/>
      <point x="160.0" y="222.333333333"/>
      <point x="279.666666667" y="33.0"/>
      <point x="509" y="33" type="curve" smooth="yes"/>
      <point x="706.333333333" y="33.0"/>
      <point x="828.666666667" y="155.0"/>
      <point x="878" y="343" type="curve"/>
      <point x="878" y="694" type="line"/>
      <point x="830.0" y="883.333333333"/>
      <point x="711.0" y="1048.0"/>
      <point x="511" y="1048" type="curve" smooth="yes"/>
      <point x="281.666666667" y="1048.0"/>
      <point x="160.0" y="842.0"/>
      <point x="160" y="542" type="curve" smooth="yes"/>
    </contour>
  </outline>
</glyph>
<glyph name="beta" format="1">
  <advance width="1146"/>
  <unicode hex="03B2"/>
  <outline>
    <contour>
      <point x="533" y="1477" type="curve" smooth="yes"/>
      <point x="767.6666666666667" y="1477.0"/>
      <point x="924.0" y="1323.0"/>
      <point x="924" y="1103" type="curve" smooth="yes"/>
      <point x="924.0" y="952.3333333333335"/>
      <point x="846.0" y="826.0"/>
      <point x="710" y="770" type="curve"/>
      <point x="918.0" y="726.0"/>
      <point x="1029.0" y="578.3333333333333"/>
      <point x="1029" y="385" type="curve" smooth="yes"/>
      <point x="1029.0" y="130.33333333333337"/>
      <point x="852.0" y="-21.0"/>
      <point x="584" y="-21" type="curve" smooth="yes"/>
      <point x="438.66666666666674" y="-21.0"/>
      <point x="279.0" y="38.666666666666686"/>
      <point x="199" y="148" type="curve"/>
      <point x="199" y="-413" type="line"/>
      <point x="145" y="-413" type="line"/>
      <point x="145" y="1054" type="line"/>
      <point x="145.0" y="1296.6666666666665"/>
      <point x="317.0" y="1477.0"/>
    </contour>
    <contour>
      <point x="529" y="791" type="line" smooth="yes"/>
      <point x="762.3333333333333" y="791.0"/>
      <point x="870.0" y="904.0"/>
      <point x="870" y="1108" type="curve" smooth="yes"/>
      <point x="870.0" y="1280.0"/>
      <point x="751.6666666666667" y="1423.0"/>
      <point x="533" y="1423" type="curve" smooth="yes"/>
      <point x="343.66666666666674" y="1423.0"/>
      <point x="199.0" y="1266.0"/>
      <point x="199" y="1054" type="curve" smooth="yes"/>
      <point x="199" y="244" type="line"/>
      <point x="251.0" y="117.33333333333337"/>
      <point x="408.0" y="33.0"/>
      <point x="584" y="33" type="curve" smooth="yes"/>
      <point x="836.0" y="33.0"/>
      <point x="974.0" y="161.0"/>
      <point x="974" y="381" type="curve" smooth="yes"/>
      <point x="974.0" y="602.3333333333333"/>
      <point x="829.0" y="735.0"/>
      <point x="569" y="735" type="curve" smooth="yes"/>
      <point x="426" y="735" type="line"/>
      <point x="426" y="791" type="line"/>
    </contour>
  </outline>
</glyph>
<glyph name="gamma" format="1">
  <advance width="1084"/>
  <unicode hex="03B3"/>
  <outline>
    <contour>
      <point x="1092" y="1028" type="line"/>
      <point x="984" y="1028" type="line"/>
      <point x="586" y="5" type="line"/>
      <point x="586" y="-415" type="line"/>
      <point x="532" y="-415" type="line"/>
      <point x="532" y="0" type="line"/>
      <point x="227" y="879" type="line" smooth="yes"/>
      <point x="177.66666666666669" y="1019.0"/>
      <point x="138.33333333333331" y="1044.0"/>
      <point x="73" y="1044" type="curve" smooth="yes"/>
      <point x="38.33333333333334" y="1044.0"/>
      <point x="6.333333333333332" y="1032.6666666666665"/>
      <point x="-11" y="1022" type="curve"/>
      <point x="-30" y="1063" type="line"/>
      <point x="-2.0" y="1077.6666666666665"/>
      <point x="29.0" y="1091.0"/>
      <point x="69" y="1091" type="curve" smooth="yes"/>
      <point x="169.0" y="1091.0"/>
      <point x="224.33333333333331" y="1041.3333333333333"/>
      <point x="271" y="904" type="curve" smooth="yes"/>
      <point x="508" y="229" type="line"/>
      <point x="556" y="83" type="line"/>
      <point x="562" y="83" type="line"/>
      <point x="614" y="229" type="line"/>
      <point x="926" y="1028" type="line"/>
      <point x="784" y="1028" type="line"/>
      <point x="784" y="1082" type="line"/>
      <point x="1092" y="1082" type="line"/>
    </contour>
  </outline>
</glyph>
<glyph name="delta" format="1">
  <advance width="1121"/>
  <unicode hex="03B4"/>
  <outline>
    <contour>
      <point x="215" y="1309" type="curve" smooth="yes"/>
      <point x="215.0" y="1451.6666666666665"/>
      <point x="363.99999999999994" y="1563.0"/>
      <point x="568" y="1563" type="curve" smooth="yes"/>
      <point x="681.3333333333333" y="1563.0"/>
      <point x="784.3333333333333" y="1540.6666666666665"/>
      <point x="875" y="1486" type="curve"/>
      <point x="857" y="1437" type="line"/>
      <point x="747.6666666666667" y="1489.0"/>
      <point x="691.6666666666667" y="1509.0"/>
      <point x="569" y="1509" type="curve" smooth="yes"/>
      <point x="398.33333333333337" y="1509.0"/>
      <point x="269.0" y="1434.3333333333335"/>
      <point x="269" y="1309" type="curve" smooth="yes"/>
      <point x="269.0" y="1185.0"/>
      <point x="356.0" y="1108.0"/>
      <point x="592" y="1060" type="curve" smooth="yes"/>
      <point x="870.6666666666665" y="997.3333333333335"/>
      <point x="1034.0" y="778.0"/>
      <point x="1034" y="542" type="curve" smooth="yes"/>
      <point x="1034" y="500" type="line" smooth="yes"/>
      <point x="1034.0" y="193.33333333333337"/>
      <point x="840.6666666666665" y="-21.0"/>
      <point x="562" y="-21" type="curve" smooth="yes"/>
      <point x="280.66666666666674" y="-21.0"/>
      <point x="87.0" y="193.33333333333337"/>
      <point x="87" y="500" type="curve" smooth="yes"/>
      <point x="87" y="542" type="line" smooth="yes"/>
      <point x="87.0" y="815.3333333333333"/>
      <point x="265.99999999999994" y="1002.3333333333333"/>
      <point x="458" y="1029" type="curve"/>
      <point x="458" y="1040" type="line"/>
      <point x="283.33333333333337" y="1105.3333333333335"/>
      <point x="215.0" y="1202.3333333333335"/>
    </contour>
    <contour>
      <point x="141" y="500" type="line" smooth="yes"/>
      <point x="141.0" y="239.99999999999994"/>
      <point x="304.66666666666674" y="33.0"/>
      <point x="562" y="33" type="curve" smooth="yes"/>
      <point x="815.3333333333333" y="33.0"/>
      <point x="980.0" y="239.99999999999994"/>
      <point x="980" y="500" type="curve" smooth="yes"/>
      <point x="980" y="542" type="line" smooth="yes"/>
      <point x="980.0" y="779.3333333333333"/>
      <point x="792.3333333333333" y="961.0"/>
      <point x="583" y="997" type="curve"/>
      <point x="315.0" y="997.0"/>
      <point x="141.0" y="787.3333333333333"/>
      <point x="141" y="542" type="curve" smooth="yes"/>
    </contour>
  </outline>
</glyph>
<glyph name="theta" format="1">
  <advance width="1143"/>
  <unicode hex="03B8"/>
  <outline>
    <contour>
      <point x="1015" y="574" type="line" smooth="yes"/>
      <point x="1015.0" y="194.0"/>
      <point x="854.3333333333333" y="-21.0"/>
      <point x="573" y="-21" type="curve" smooth="yes"/>
      <point x="291.66666666666674" y="-21.0"/>
      <point x="128.0" y="195.33333333333337"/>
      <point x="128" y="574" type="curve" smooth="yes"/>
      <point x="128" y="882" type="line" smooth="yes"/>
      <point x="128.0" y="1260.6666666666665"/>
      <point x="289.66666666666674" y="1477.0"/>
      <point x="571" y="1477" type="curve" smooth="yes"/>
      <point x="852.3333333333333" y="1477.0"/>
      <point x="1015.0" y="1260.6666666666665"/>
      <point x="1015" y="882" type="curve" smooth="yes"/>
    </contour>
    <contour>
      <point x="182" y="749" type="line"/>
      <point x="961" y="749" type="line"/>
      <point x="961" y="882" type="line" smooth="yes"/>
      <point x="961.0" y="1220.6666666666665"/>
      <point x="824.3333333333333" y="1423.0"/>
      <point x="571" y="1423" type="curve" smooth="yes"/>
      <point x="317.66666666666674" y="1423.0"/>
      <point x="182.0" y="1220.6666666666665"/>
      <point x="182" y="882" type="curve" smooth="yes"/>
    </contour>
    <contour>
      <point x="961" y="695" type="line"/>
      <point x="182" y="695" type="line"/>
      <point x="182" y="576" type="line" smooth="yes"/>
      <point x="182.0" y="240.0"/>
      <point x="319.66666666666674" y="33.0"/>
      <point x="573" y="33" type="curve" smooth="yes"/>
      <point x="825.0" y="33.0"/>
      <point x="961.0" y="238.66666666666674"/>
      <point x="961" y="576" type="curve" smooth="yes"/>
    </contour>
  </outline>
</glyph>
<glyph name="iota" format="1">
  <advance width="594"/>
  <unicode hex="03B9"/>
  <outline>
    <contour>
      <point x="245" y="279" type="line" smooth="yes"/>
      <point x="245.0" y="99.0"/>
      <point x="311.33333333333337" y="33.0"/>
      <point x="430" y="33" type="curve" smooth="yes"/>
      <point x="466.0" y="33.0"/>
      <point x="486.33333333333337" y="35.33333333333333"/>
      <point x="537" y="42" type="curve"/>
      <point x="546" y="-8" type="line"/>
      <point x="514.0" y="-17.333333333333332"/>
      <point x="475.66666666666663" y="-21.0"/>
      <point x="433" y="-21" type="curve" smooth="yes"/>
      <point x="265.0" y="-21.0"/>
      <point x="190.0" y="64.33333333333337"/>
      <point x="190" y="279" type="curve" smooth="yes"/>
      <point x="190" y="1028" type="line"/>
      <point x="27" y="1028" type="line"/>
      <point x="27" y="1082" type="line"/>
      <point x="245" y="1082" type="line"/>
    </contour>
  </outline>
</glyph>
<glyph name="lambda" format="1">
  <advance width="1135"/>
  <unicode hex="03BB"/>
  <outline>
    <contour>
      <point x="94" y="0" type="line"/>
      <point x="35" y="0" type="line"/>
      <point x="476" y="1075" type="line"/>
      <point x="412" y="1252" type="line" smooth="yes"/>
      <point x="356" y="1407"/>
      <point x="320.66666666666663" y="1464.0"/>
      <point x="218" y="1464" type="curve" smooth="yes"/>
      <point x="207.33333333333331" y="1464.0"/>
      <point x="179.33333333333331" y="1460.6666666666665"/>
      <point x="170" y="1458" type="curve"/>
      <point x="161" y="1508" type="line"/>
      <point x="171.66666666666669" y="1513.3333333333335"/>
      <point x="199.66666666666669" y="1518.0"/>
      <point x="217" y="1518" type="curve" smooth="yes"/>
      <point x="363.66666666666663" y="1518.0"/>
      <point x="415.66666666666663" y="1412.0"/>
      <point x="465" y="1260" type="curve" smooth="yes"/>
      <point x="826" y="278" type="line" smooth="yes"/>
      <point x="882.0" y="130.0"/>
      <point x="928.3333333333333" y="48.0"/>
      <point x="1003" y="48" type="curve" smooth="yes"/>
      <point x="1013.6666666666667" y="48.0"/>
      <point x="1040.3333333333335" y="51.00000000000002"/>
      <point x="1051" y="55" type="curve"/>
      <point x="1060" y="4" type="line"/>
      <point x="1048.0" y="-1.3333333333333082"/>
      <point x="1020.3333333333334" y="-6.0"/>
      <point x="1003" y="-6" type="curve" smooth="yes"/>
      <point x="879.0" y="-6.0"/>
      <point x="835" y="91"/>
      <point x="776" y="252" type="curve" smooth="yes"/>
      <point x="506" y="993" type="line"/>
      <point x="500" y="993" type="line"/>
      <point x="459" y="887" type="line"/>
    </contour>
  </outline>
</glyph>
<glyph name="xi" format="1">
  <advance width="1006"/>
  <unicode hex="03BE"/>
  <outline>
    <contour>
      <point x="923" y="1376" type="line"/>
      <point x="849.6666666666667" y="1405.3333333333335"/>
      <point x="770.6666666666667" y="1422.0"/>
      <point x="692" y="1422" type="curve" smooth="yes"/>
      <point x="412.0" y="1422.0"/>
      <point x="274.0" y="1313.3333333333335"/>
      <point x="274" y="1148" type="curve" smooth="yes"/>
      <point x="274.0" y="982.6666666666665"/>
      <point x="399.66666666666674" y="891.0"/>
      <point x="677" y="891" type="curve" smooth="yes"/>
      <point x="799" y="891" type="line"/>
      <point x="799" y="835" type="line"/>
      <point x="677" y="835" type="line" smooth="yes"/>
      <point x="394.3333333333335" y="835.0"/>
      <point x="192.0" y="707.6666666666665"/>
      <point x="192" y="445" type="curve" smooth="yes"/>
      <point x="192.0" y="219.6666666666668"/>
      <point x="347.6666666666667" y="115.33333333333333"/>
      <point x="645" y="38" type="curve" smooth="yes"/>
      <point x="687" y="28" type="line" smooth="yes"/>
      <point x="839.0" y="-8.0"/>
      <point x="910.0" y="-60.666666666666686"/>
      <point x="910" y="-150" type="curve" smooth="yes"/>
      <point x="910.0" y="-251.33333333333331"/>
      <point x="824.6666666666667" y="-335.33333333333337"/>
      <point x="758" y="-370" type="curve"/>
      <point x="725" y="-337" type="line"/>
      <point x="786.3333333333333" y="-299.66666666666663"/>
      <point x="857.0" y="-234.33333333333331"/>
      <point x="857" y="-149" type="curve" smooth="yes"/>
      <point x="857.0" y="-85.0"/>
      <point x="805.3333333333333" y="-54.33333333333333"/>
      <point x="680" y="-25" type="curve" smooth="yes"/>
      <point x="638" y="-15" type="line" smooth="yes"/>
      <point x="323.3333333333334" y="64.99999999999999"/>
      <point x="137.0" y="187.66666666666669"/>
      <point x="137" y="449" type="curve" smooth="yes"/>
      <point x="137.0" y="662.3333333333333"/>
      <point x="266.66666666666674" y="806.3333333333333"/>
      <point x="480" y="861" type="curve"/>
      <point x="312.0" y="906.3333333333333"/>
      <point x="219.0" y="1013.3333333333335"/>
      <point x="219" y="1144" type="curve" smooth="yes"/>
      <point x="219.0" y="1358.6666666666665"/>
      <point x="398.0" y="1475.0"/>
      <point x="694" y="1475" type="curve" smooth="yes"/>
      <point x="775.3333333333333" y="1475.0"/>
      <point x="858.3333333333333" y="1456.6666666666665"/>
      <point x="929" y="1426" type="curve"/>
    </contour>
  </outline>
</glyph>
<glyph name="pi" format="1">
  <advance width="1266"/>
  <unicode hex="03C0"/>
  <outline>
    <contour>
      <point x="1103" y="1082" type="line"/>
      <point x="1103" y="1027" type="line"/>
      <point x="905" y="1027" type="line"/>
      <point x="905" y="279" type="line" smooth="yes"/>
      <point x="905.0" y="99.0"/>
      <point x="971.333333333" y="33.0"/>
      <point x="1090" y="33" type="curve" smooth="yes"/>
      <point x="1126.0" y="33.0"/>
      <point x="1146.33333333" y="35.3333333333"/>
      <point x="1197" y="42" type="curve"/>
      <point x="1206" y="-8" type="line"/>
      <point x="1174.0" y="-17.3333333333"/>
      <point x="1135.66666667" y="-21.0"/>
      <point x="1093" y="-21" type="curve" smooth="yes"/>
      <point x="925.0" y="-21.0"/>
      <point x="850.0" y="64.3333333333"/>
      <point x="850" y="279" type="curve" smooth="yes"/>
      <point x="850" y="1027" type="line"/>
      <point x="294" y="1027" type="line"/>
      <point x="294" y="0" type="line"/>
      <point x="240" y="0" type="line"/>
      <point x="240" y="1027" type="line"/>
      <point x="75" y="1027" type="line"/>
      <point x="75" y="1082" type="line"/>
    </contour>
  </outline>
</glyph>
<glyph name="rho" format="1">
  <advance width="1116"/>
  <unicode hex="03C1"/>
  <outline>
    <contour>
      <point x="962" y="521" type="line" smooth="yes"/>
      <point x="962.0" y="187.666666667"/>
      <point x="809.333333333" y="-21.0"/>
      <point x="556" y="-21" type="curve" smooth="yes"/>
      <point x="388.0" y="-21.0"/>
      <point x="259.666666667" y="51.3333333333"/>
      <point x="189" y="166" type="curve"/>
      <point x="189" y="-416" type="line"/>
      <point x="135" y="-416" type="line"/>
      <point x="135" y="636" type="line" smooth="yes"/>
      <point x="135.0" y="930.666666667"/>
      <point x="308.333333333" y="1102.0"/>
      <point x="555" y="1102" type="curve" smooth="yes"/>
      <point x="808.333333333" y="1102.0"/>
      <point x="962.0" y="884.666666667"/>
      <point x="962" y="542" type="curve" smooth="yes"/>
    </contour>
    <contour>
      <point x="907" y="542" type="line" smooth="yes"/>
      <point x="907.0" y="842.0"/>
      <point x="783.0" y="1048.0"/>
      <point x="555" y="1048" type="curve" smooth="yes"/>
      <point x="304.333333333" y="1048.0"/>
      <point x="189.0" y="851.0"/>
      <point x="189" y="615" type="curve" smooth="yes"/>
      <point x="189" y="264" type="line"/>
      <point x="243.666666667" y="122.666666667"/>
      <point x="369.0" y="33.0"/>
      <point x="557" y="33" type="curve" smooth="yes"/>
      <point x="785.0" y="33.0"/>
      <point x="907.0" y="222.333333333"/>
      <point x="907" y="521" type="curve" smooth="yes"/>
    </contour>
  </outline>
</glyph>
<glyph name="sigma" format="1">
  <advance width="1237"/>
  <unicode hex="03C3"/>
  <outline>
    <contour>
      <point x="1135" y="1027" type="line"/>
      <point x="790" y="1027" type="line"/>
      <point x="954.0" y="943.0"/>
      <point x="1052.0" y="776.0"/>
      <point x="1052" y="564" type="curve" smooth="yes"/>
      <point x="1052" y="521" type="line" smooth="yes"/>
      <point x="1052.0" y="201.0"/>
      <point x="860.0" y="-21.0"/>
      <point x="580" y="-21" type="curve" smooth="yes"/>
      <point x="298.66666666666674" y="-21.0"/>
      <point x="105.0" y="201.33333333333337"/>
      <point x="105" y="520" type="curve" smooth="yes"/>
      <point x="105" y="562" type="line" smooth="yes"/>
      <point x="105.0" y="864.6666666666665"/>
      <point x="297" y="1082"/>
      <point x="578" y="1082" type="curve" smooth="yes"/>
      <point x="1135" y="1082" type="line"/>
    </contour>
    <contour>
      <point x="159" y="520" type="line" smooth="yes"/>
      <point x="159.0" y="248.0"/>
      <point x="322.66666666666674" y="33.0"/>
      <point x="580" y="33" type="curve" smooth="yes"/>
      <point x="833.3333333333333" y="33.0"/>
      <point x="998.0" y="249.33333333333331"/>
      <point x="998" y="520" type="curve" smooth="yes"/>
      <point x="998" y="562" type="line" smooth="yes"/>
      <point x="998.0" y="816.6666666666667"/>
      <point x="833.0" y="1027.0"/>
      <point x="577" y="1027" type="curve" smooth="yes"/>
      <point x="322.3333333333333" y="1025.6666666666665"/>
      <point x="159.0" y="815.3333333333333"/>
      <point x="159" y="562" type="curve" smooth="yes"/>
    </contour>
  </outline>
</glyph>
<glyph name="tau" format="1">
  <advance width="1035"/>
  <unicode hex="03C4"/>
  <outline>
    <contour>
      <point x="969" y="1082" type="line"/>
      <point x="969" y="1027" type="line"/>
      <point x="526" y="1027" type="line"/>
      <point x="526" y="279" type="line" smooth="yes"/>
      <point x="526.0" y="99.0"/>
      <point x="592.3333333333333" y="33.0"/>
      <point x="711" y="33" type="curve" smooth="yes"/>
      <point x="744.3333333333333" y="33.0"/>
      <point x="863.6666666666667" y="51.0"/>
      <point x="829" y="47" type="curve"/>
      <point x="838" y="-3" type="line"/>
      <point x="803.3333333333333" y="-13.666666666666664"/>
      <point x="751.3333333333333" y="-21.0"/>
      <point x="714" y="-21" type="curve" smooth="yes"/>
      <point x="546.0" y="-21.0"/>
      <point x="471.0" y="64.33333333333337"/>
      <point x="471" y="279" type="curve" smooth="yes"/>
      <point x="471" y="1027" type="line"/>
      <point x="62" y="1027" type="line"/>
      <point x="62" y="1082" type="line"/>
    </contour>
  </outline>
</glyph>
<glyph name="upsilon" format="1">
  <advance width="1168"/>
  <unicode hex="03C5"/>
  <outline>
    <contour>
      <point x="283" y="385" type="line" smooth="yes"/>
      <point x="283.0" y="142.33333333333337"/>
      <point x="389.66666666666674" y="33.0"/>
      <point x="563" y="33" type="curve" smooth="yes"/>
      <point x="811.0" y="33.0"/>
      <point x="937.0" y="246.66666666666674"/>
      <point x="937" y="520" type="curve" smooth="yes"/>
      <point x="937.0" y="725.3333333333333"/>
      <point x="893.0" y="910.0"/>
      <point x="825" y="1082" type="curve"/>
      <point x="891" y="1082" type="line"/>
      <point x="955.0" y="898.0"/>
      <point x="990.0" y="763.0"/>
      <point x="990" y="523" type="curve" smooth="yes"/>
      <point x="990.0" y="197.66666666666674"/>
      <point x="834.3333333333333" y="-21.0"/>
      <point x="565" y="-21" type="curve" smooth="yes"/>
      <point x="354.33333333333337" y="-21.0"/>
      <point x="229.0" y="108.33333333333337"/>
      <point x="229" y="387" type="curve" smooth="yes"/>
      <point x="229" y="960" type="line" smooth="yes"/>
      <point x="229.0" y="1020.0000000000001"/>
      <point x="202.9999999999999" y="1043.0"/>
      <point x="151" y="1043" type="curve" smooth="yes"/>
      <point x="104.33333333333334" y="1043.0"/>
      <point x="63.0" y="1031.3333333333333"/>
      <point x="19" y="1010" type="curve"/>
      <point x="-1" y="1056" type="line"/>
      <point x="39.0" y="1080.0"/>
      <point x="93.66666666666669" y="1097.0"/>
      <point x="151" y="1097" type="curve" smooth="yes"/>
      <point x="247.0" y="1097.0"/>
      <point x="283.0" y="1059.6666666666667"/>
      <point x="283" y="961" type="curve" smooth="yes"/>
    </contour>
  </outline>
</glyph>
<glyph name="psi" format="1">
  <advance width="1524"/>
  <unicode hex="03C8"/>
  <outline>
    <contour>
      <point x="292" y="588" type="line"/>
      <point x="290.66666666666663" y="222.66666666666674"/>
      <point x="455.0" y="45.0"/>
      <point x="727" y="41" type="curve"/>
      <point x="733" y="43" type="line"/>
      <point x="733" y="1081" type="line"/>
      <point x="787" y="1081" type="line"/>
      <point x="787" y="42" type="line"/>
      <point x="793" y="40" type="line"/>
      <point x="1129.0" y="42.66666666666667"/>
      <point x="1260.0" y="270.6666666666667"/>
      <point x="1260" y="588" type="curve" smooth="yes"/>
      <point x="1260.0" y="766.6666666666667"/>
      <point x="1200.0" y="932.6666666666667"/>
      <point x="1108" y="1082" type="curve"/>
      <point x="1175" y="1082" type="line"/>
      <point x="1264.3333333333335" y="914.0"/>
      <point x="1314.0" y="799.3333333333333"/>
      <point x="1314" y="590" type="curve" smooth="yes"/>
      <point x="1314.0" y="220.66666666666674"/>
      <point x="1144.3333333333333" y="-10.666666666666668"/>
      <point x="787" y="-20" type="curve"/>
      <point x="787" y="-415" type="line"/>
      <point x="733" y="-415" type="line"/>
      <point x="733" y="-20" type="line"/>
      <point x="418.3333333333335" y="-6.666666666666668"/>
      <point x="236.66666666666669" y="187.33333333333337"/>
      <point x="238" y="590" type="curve" smooth="yes"/>
      <point x="238" y="962" type="line" smooth="yes"/>
      <point x="238.0" y="1022.0000000000001"/>
      <point x="211.9999999999999" y="1045.0"/>
      <point x="160" y="1045" type="curve" smooth="yes"/>
      <point x="113.33333333333331" y="1045.0"/>
      <point x="72.0" y="1033.3333333333333"/>
      <point x="28" y="1012" type="curve"/>
      <point x="8" y="1058" type="line"/>
      <point x="48.0" y="1082.0"/>
      <point x="102.66666666666669" y="1099.0"/>
      <point x="160" y="1099" type="curve" smooth="yes"/>
      <point x="256.0" y="1099.0"/>
      <point x="292.0" y="1061.6666666666667"/>
      <point x="292" y="963" type="curve" smooth="yes"/>
    </contour>
  </outline>
</glyph>
<glyph name="omega" format="1">
  <advance width="1655"/>
  <unicode hex="03C9"/>
  <outline>
    <contour>
      <point x="321" y="1082" type="line"/>
      <point x="226.33333333333337" y="902.0"/>
      <point x="169.0" y="712.0"/>
      <point x="169" y="500" type="curve" smooth="yes"/>
      <point x="169.0" y="239.99999999999994"/>
      <point x="276.33333333333337" y="33.0"/>
      <point x="483" y="33" type="curve" smooth="yes"/>
      <point x="665.6666666666667" y="33.0"/>
      <point x="783.0" y="175.66666666666674"/>
      <point x="783" y="485" type="curve" smooth="yes"/>
      <point x="783" y="770" type="line"/>
      <point x="838" y="770" type="line"/>
      <point x="838" y="485" type="line" smooth="yes"/>
      <point x="838.0" y="175.66666666666674"/>
      <point x="954.0" y="33.0"/>
      <point x="1138" y="33" type="curve" smooth="yes"/>
      <point x="1343.3333333333335" y="33.0"/>
      <point x="1452.0" y="239.99999999999994"/>
      <point x="1452" y="500" type="curve" smooth="yes"/>
      <point x="1452.0" y="710.6666666666667"/>
      <point x="1393.3333333333335" y="900.6666666666667"/>
      <point x="1300" y="1082" type="curve"/>
      <point x="1366" y="1082" type="line"/>
      <point x="1456.6666666666665" y="882.0"/>
      <point x="1505.0" y="749.6666666666667"/>
      <point x="1505" y="503" type="curve" smooth="yes"/>
      <point x="1505.0" y="191.0"/>
      <point x="1368.3333333333335" y="-21.0"/>
      <point x="1139" y="-21" type="curve" smooth="yes"/>
      <point x="976.3333333333335" y="-21.0"/>
      <point x="859.3333333333333" y="65.66666666666669"/>
      <point x="810" y="251" type="curve"/>
      <point x="759.3333333333333" y="65.66666666666669"/>
      <point x="642.3333333333333" y="-21.0"/>
      <point x="481" y="-21" type="curve" smooth="yes"/>
      <point x="250.33333333333337" y="-21.0"/>
      <point x="116.0" y="191.0"/>
      <point x="116" y="503" type="curve" smooth="yes"/>
      <point x="116.0" y="751.0"/>
      <point x="164.33333333333337" y="886.0"/>
      <point x="255" y="1082" type="curve"/>
    </contour>
  </outline>
</glyph>
<glyph name="UpsilonhookSymbol" format="1">
  <advance width="1279"/>
  <unicode hex="03D2"/>
  <outline>
    <contour>
      <point x="921" y="1239" type="line" smooth="yes"/>
      <point x="990.3333333333333" y="1404.3333333333335"/>
      <point x="1062.6666666666665" y="1467.0"/>
      <point x="1184" y="1467" type="curve" smooth="yes"/>
      <point x="1222.6666666666665" y="1467.0"/>
      <point x="1260.6666666666665" y="1453.6666666666665"/>
      <point x="1286" y="1439" type="curve"/>
      <point x="1263" y="1398" type="line"/>
      <point x="1244.3333333333335" y="1408.6666666666665"/>
      <point x="1214.6666666666665" y="1420.0"/>
      <point x="1180" y="1420" type="curve" smooth="yes"/>
      <point x="1100.0" y="1420.0"/>
      <point x="1037.0" y="1383.0"/>
      <point x="965" y="1215" type="curve" smooth="yes"/>
      <point x="699" y="617" type="line"/>
      <point x="699" y="0" type="line"/>
      <point x="644" y="0" type="line"/>
      <point x="644" y="623" type="line"/>
      <point x="373" y="1215" type="line" smooth="yes"/>
      <point x="297.0" y="1383.0"/>
      <point x="237.66666666666666" y="1420.0"/>
      <point x="159" y="1420" type="curve" smooth="yes"/>
      <point x="123.0" y="1420.0"/>
      <point x="92.33333333333334" y="1408.6666666666665"/>
      <point x="75" y="1398" type="curve"/>
      <point x="52" y="1439" type="line"/>
      <point x="77.33333333333334" y="1453.6666666666665"/>
      <point x="115.0" y="1467.0"/>
      <point x="155" y="1467" type="curve" smooth="yes"/>
      <point x="275.0" y="1467.0"/>
      <point x="347.66666666666663" y="1404.3333333333335"/>
      <point x="417" y="1239" type="curve" smooth="yes"/>
      <point x="616" y="796" type="line"/>
      <point x="666" y="672" type="line"/>
      <point x="672" y="672" type="line"/>
      <point x="723" y="796" type="line"/>
    </contour>
  </outline>
</glyph>
<glyph name="piSymbol" format="1">
  <advance width="1700"/>
  <unicode hex="03D6"/>
  <outline>
    <contour>
      <point x="1650" y="1028" type="line"/>
      <point x="1452" y="1028" type="line"/>
      <point x="1522.6666666666665" y="868.0"/>
      <point x="1566.0" y="724.3333333333333"/>
      <point x="1566" y="503" type="curve" smooth="yes"/>
      <point x="1566.0" y="189.66666666666674"/>
      <point x="1431.6666666666665" y="-21.0"/>
      <point x="1201" y="-21" type="curve" smooth="yes"/>
      <point x="1038.3333333333335" y="-21.0"/>
      <point x="921.3333333333333" y="64.99999999999989"/>
      <point x="872" y="249" type="curve"/>
      <point x="821.3333333333333" y="65.0"/>
      <point x="704.3333333333333" y="-21.0"/>
      <point x="543" y="-21" type="curve" smooth="yes"/>
      <point x="312.33333333333337" y="-21.0"/>
      <point x="178.0" y="191.0"/>
      <point x="178" y="503" type="curve" smooth="yes"/>
      <point x="178.0" y="723.0"/>
      <point x="220.0" y="865.3333333333333"/>
      <point x="292" y="1028" type="curve"/>
      <point x="105" y="1028" type="line"/>
      <point x="105" y="1083" type="line"/>
      <point x="1650" y="1083" type="line"/>
    </contour>
    <contour>
      <point x="1513" y="500" type="curve" smooth="yes"/>
      <point x="1513.0" y="689.3333333333333"/>
      <point x="1465.3333333333335" y="861.3333333333333"/>
      <point x="1388" y="1028" type="curve"/>
      <point x="356" y="1028" type="line"/>
      <point x="277.33333333333337" y="861.3333333333333"/>
      <point x="231.0" y="689.3333333333333"/>
      <point x="231" y="500" type="curve" smooth="yes"/>
      <point x="231.0" y="239.99999999999994"/>
      <point x="338.33333333333337" y="33.0"/>
      <point x="545" y="33" type="curve" smooth="yes"/>
      <point x="729.0" y="33.0"/>
      <point x="844.0" y="175.66666666666669"/>
      <point x="844" y="485" type="curve" smooth="yes"/>
      <point x="844" y="772" type="line"/>
      <point x="900" y="772" type="line"/>
      <point x="900" y="457" type="line" smooth="yes"/>
      <point x="900" y="221"/>
      <point x="990.3725490196076" y="33.0"/>
      <point x="1199" y="33" type="curve" smooth="yes"/>
      <point x="1404.3333333333335" y="33.0"/>
      <point x="1513.0" y="239.99999999999994"/>
    </contour>
  </outline>
</glyph>
<glyph name="Dje-cy" format="1">
  <advance width="1545"/>
  <unicode hex="0402"/>
  <outline>
    <contour>
      <point x="1198" y="1163" type="line"/>
      <point x="1144" y="1163" type="line"/>
      <point x="1144" y="1402" type="line"/>
      <point x="588" y="1402" type="line"/>
      <point x="588" y="787" type="line"/>
      <point x="721.3333333333333" y="841.6666666666667"/>
      <point x="852.3333333333333" y="880.0"/>
      <point x="959" y="880" type="curve" smooth="yes"/>
      <point x="1252.3333333333335" y="880.0"/>
      <point x="1439.0" y="739.0"/>
      <point x="1439" y="415" type="curve" smooth="yes"/>
      <point x="1439.0" y="204.33333333333337"/>
      <point x="1280.0" y="-10.0"/>
      <point x="984" y="-6" type="curve"/>
      <point x="979" y="-4" type="line"/>
      <point x="979" y="40" type="line"/>
      <point x="1232.3333333333335" y="40.0"/>
      <point x="1385.0" y="213.66666666666674"/>
      <point x="1385" y="415" type="curve" smooth="yes"/>
      <point x="1385.0" y="695.0"/>
      <point x="1215.0" y="827.0"/>
      <point x="959" y="827" type="curve" smooth="yes"/>
      <point x="843.0" y="827.0"/>
      <point x="746.6666666666667" y="794.0"/>
      <point x="588" y="734" type="curve"/>
      <point x="588" y="54" type="line"/>
      <point x="751" y="54" type="line"/>
      <point x="751" y="0" type="line"/>
      <point x="371" y="0" type="line"/>
      <point x="371" y="54" type="line"/>
      <point x="534" y="54" type="line"/>
      <point x="534" y="1402" type="line"/>
      <point x="138" y="1402" type="line"/>
      <point x="138" y="1163" type="line"/>
      <point x="84" y="1163" type="line"/>
      <point x="84" y="1456" type="line"/>
      <point x="1198" y="1456" type="line"/>
    </contour>
  </outline>
</glyph>
<glyph name="E-cy" format="1">
  <advance width="1266"/>
  <unicode hex="0404"/>
  <outline>
    <contour>
      <point x="1244" y="993" type="line"/>
      <point x="1189" y="993" type="line"/>
      <point x="1189" y="1227" type="line"/>
      <point x="1099.66666667" y="1347.0"/>
      <point x="945.666666667" y="1424.0"/>
      <point x="755" y="1424" type="curve" smooth="yes"/>
      <point x="417.666666667" y="1424.0"/>
      <point x="181.0" y="1160.33333333"/>
      <point x="177" y="771" type="curve"/>
      <point x="179" y="766" type="line"/>
      <point x="812" y="766" type="line"/>
      <point x="812" y="712" type="line"/>
      <point x="179" y="712" type="line"/>
      <point x="177" y="707" type="line"/>
      <point x="174.333333333" y="305.666666667"/>
      <point x="411.666666667" y="34.0"/>
      <point x="745" y="34" type="curve" smooth="yes"/>
      <point x="937.0" y="34.0"/>
      <point x="1101.0" y="111.0"/>
      <point x="1189" y="231" type="curve"/>
      <point x="1189" y="465" type="line"/>
      <point x="1244" y="465" type="line"/>
      <point x="1244" y="211" type="line"/>
      <point x="1146.66666667" y="68.3333333333"/>
      <point x="958.333333333" y="-20.0"/>
      <point x="745" y="-20" type="curve" smooth="yes"/>
      <point x="375.666666667" y="-20.0"/>
      <point x="118.0" y="281.333333333"/>
      <point x="118" y="720" type="curve" smooth="yes"/>
      <point x="118" y="738" type="line" smooth="yes"/>
      <point x="118.0" y="1178.0"/>
      <point x="375.0" y="1478.0"/>
      <point x="755" y="1478" type="curve" smooth="yes"/>
      <point x="965.666666667" y="1478.0"/>
      <point x="1145.33333333" y="1389.66666667"/>
      <point x="1244" y="1247" type="curve"/>
    </contour>
  </outline>
</glyph>
<glyph name="Nje-cy" format="1">
  <advance width="2233"/>
  <unicode hex="040A"/>
  <outline>
    <contour>
      <point x="77" y="54" type="line"/>
      <point x="240" y="54" type="line"/>
      <point x="240" y="1402" type="line"/>
      <point x="77" y="1402" type="line"/>
      <point x="77" y="1456" type="line"/>
      <point x="457" y="1456" type="line"/>
      <point x="457" y="1402" type="line"/>
      <point x="294" y="1402" type="line"/>
      <point x="294" y="748" type="line"/>
      <point x="1224" y="748" type="line"/>
      <point x="1224" y="1402" type="line"/>
      <point x="1061" y="1402" type="line"/>
      <point x="1061" y="1456" type="line"/>
      <point x="1224" y="1456" type="line"/>
      <point x="1278" y="1456" type="line"/>
      <point x="1441" y="1456" type="line"/>
      <point x="1441" y="1402" type="line"/>
      <point x="1278" y="1402" type="line"/>
      <point x="1278" y="810" type="line"/>
      <point x="1647" y="810" type="line" smooth="yes"/>
      <point x="1949.66666667" y="810.0"/>
      <point x="2119.0" y="646.333333333"/>
      <point x="2119" y="405" type="curve" smooth="yes"/>
      <point x="2119.0" y="163.666666667"/>
      <point x="1948.33333333" y="0.0"/>
      <point x="1647" y="0" type="curve" smooth="yes"/>
      <point x="1061" y="0" type="line"/>
      <point x="1061" y="54" type="line"/>
      <point x="1224" y="54" type="line"/>
      <point x="1224" y="694" type="line"/>
      <point x="294" y="694" type="line"/>
      <point x="294" y="54" type="line"/>
      <point x="457" y="54" type="line"/>
      <point x="457" y="0" type="line"/>
      <point x="77" y="0" type="line"/>
    </contour>
    <contour>
      <point x="1278" y="756" type="line"/>
      <point x="1278" y="53" type="line"/>
      <point x="1647" y="53" type="line" smooth="yes"/>
      <point x="1924.33333333" y="53.0"/>
      <point x="2065.0" y="204.333333333"/>
      <point x="2065" y="407" type="curve" smooth="yes"/>
      <point x="2065.0" y="600.333333333"/>
      <point x="1923.0" y="756.0"/>
      <point x="1647" y="756" type="curve" smooth="yes"/>
    </contour>
  </outline>
</glyph>
<glyph name="Tshe-cy" format="1">
  <advance width="1722"/>
  <unicode hex="040B"/>
  <outline>
    <contour>
      <point x="1195" y="1163" type="line"/>
      <point x="1141" y="1163" type="line"/>
      <point x="1141" y="1402" type="line"/>
      <point x="605" y="1402" type="line"/>
      <point x="605" y="755" type="line"/>
      <point x="745.0" y="793.6666666666667"/>
      <point x="882.0" y="818.0"/>
      <point x="1014" y="818" type="curve" smooth="yes"/>
      <point x="1331.3333333333335" y="818.0"/>
      <point x="1493.0" y="687.0"/>
      <point x="1493" y="371" type="curve" smooth="yes"/>
      <point x="1493" y="54" type="line"/>
      <point x="1656" y="54" type="line"/>
      <point x="1656" y="0" type="line"/>
      <point x="1276" y="0" type="line"/>
      <point x="1276" y="54" type="line"/>
      <point x="1439" y="54" type="line"/>
      <point x="1439" y="371" type="line" smooth="yes"/>
      <point x="1439.0" y="644.3333333333333"/>
      <point x="1295.3333333333335" y="764.0"/>
      <point x="1014" y="764" type="curve" smooth="yes"/>
      <point x="879.3333333333333" y="764.0"/>
      <point x="745.0" y="741.0"/>
      <point x="605" y="701" type="curve"/>
      <point x="605" y="54" type="line"/>
      <point x="768" y="54" type="line"/>
      <point x="768" y="0" type="line"/>
      <point x="388" y="0" type="line"/>
      <point x="388" y="54" type="line"/>
      <point x="551" y="54" type="line"/>
      <point x="551" y="1402" type="line"/>
      <point x="135" y="1402" type="line"/>
      <point x="135" y="1163" type="line"/>
      <point x="81" y="1163" type="line"/>
      <point x="81" y="1456" type="line"/>
      <point x="1195" y="1456" type="line"/>
    </contour>
  </outline>
</glyph>
<glyph name="Dzhe-cy" format="1">
  <advance width="1547"/>
  <unicode hex="040F"/>
  <outline>
    <contour>
      <point x="1441" y="1402" type="line"/>
      <point x="1278" y="1402" type="line"/>
      <point x="1278" y="54" type="line"/>
      <point x="1441" y="54" type="line"/>
      <point x="1441" y="0" type="line"/>
      <point x="790" y="0" type="line"/>
      <point x="790" y="-349" type="line"/>
      <point x="736" y="-349" type="line"/>
      <point x="736" y="0" type="line"/>
      <point x="77" y="0" type="line"/>
      <point x="77" y="54" type="line"/>
      <point x="240" y="54" type="line"/>
      <point x="240" y="1402" type="line"/>
      <point x="77" y="1402" type="line"/>
      <point x="77" y="1456" type="line"/>
      <point x="294" y="1456" type="line"/>
      <point x="457" y="1456" type="line"/>
      <point x="457" y="1402" type="line"/>
      <point x="294" y="1402" type="line"/>
      <point x="294" y="54" type="line"/>
      <point x="1224" y="54" type="line"/>
      <point x="1224" y="1402" type="line"/>
      <point x="1061" y="1402" type="line"/>
      <point x="1061" y="1456" type="line"/>
      <point x="1441" y="1456" type="line"/>
    </contour>
  </outline>
</glyph>
<glyph name="De-cy" format="1">
  <advance width="1523"/>
  <unicode hex="0414"/>
  <outline>
    <contour>
      <point x="1315" y="-349" type="line"/>
      <point x="1260" y="-349" type="line"/>
      <point x="1260" y="0" type="line"/>
      <point x="109" y="0" type="line"/>
      <point x="109" y="-349" type="line"/>
      <point x="55" y="-349" type="line"/>
      <point x="55" y="54" type="line"/>
      <point x="131" y="54" type="line"/>
      <point x="244.333333333" y="160.666666667"/>
      <point x="402.0" y="452.333333333"/>
      <point x="434" y="991" type="curve" smooth="yes"/>
      <point x="452" y="1402" type="line"/>
      <point x="292" y="1402" type="line"/>
      <point x="292" y="1456" type="line"/>
      <point x="1358" y="1456" type="line"/>
      <point x="1358" y="1402" type="line"/>
      <point x="1195" y="1402" type="line"/>
      <point x="1195" y="54" type="line"/>
      <point x="1315" y="54" type="line"/>
    </contour>
    <contour>
      <point x="488" y="991" type="line" smooth="yes"/>
      <point x="461.333333333" y="547.0"/>
      <point x="330.666666667" y="198.0"/>
      <point x="200" y="54" type="curve"/>
      <point x="1141" y="54" type="line"/>
      <point x="1141" y="1402" type="line"/>
      <point x="506" y="1402" type="line"/>
    </contour>
  </outline>
</glyph>
<glyph name="Ii-cy" format="1">
  <advance width="1552"/>
  <unicode hex="0418"/>
  <outline>
    <contour>
      <point x="457" y="1456" type="line"/>
      <point x="457" y="1402" type="line"/>
      <point x="294" y="1402" type="line"/>
      <point x="294" y="280" type="line"/>
      <point x="300" y="278" type="line"/>
      <point x="1235" y="1265" type="line"/>
      <point x="1235" y="1402" type="line"/>
      <point x="1072" y="1402" type="line"/>
      <point x="1072" y="1456" type="line"/>
      <point x="1235" y="1456" type="line"/>
      <point x="1289" y="1456" type="line"/>
      <point x="1452" y="1456" type="line"/>
      <point x="1452" y="1402" type="line"/>
      <point x="1289" y="1402" type="line"/>
      <point x="1289" y="54" type="line"/>
      <point x="1452" y="54" type="line"/>
      <point x="1452" y="0" type="line"/>
      <point x="1072" y="0" type="line"/>
      <point x="1072" y="54" type="line"/>
      <point x="1235" y="54" type="line"/>
      <point x="1235" y="1180" type="line"/>
      <point x="1229" y="1182" type="line"/>
      <point x="294" y="194" type="line"/>
      <point x="294" y="54" type="line"/>
      <point x="457" y="54" type="line"/>
      <point x="457" y="0" type="line"/>
      <point x="77" y="0" type="line"/>
      <point x="77" y="54" type="line"/>
      <point x="240" y="54" type="line"/>
      <point x="240" y="1402" type="line"/>
      <point x="77" y="1402" type="line"/>
      <point x="77" y="1456" type="line"/>
      <point x="240" y="1456" type="line"/>
      <point x="294" y="1456" type="line"/>
    </contour>
  </outline>
</glyph>
<glyph name="El-cy" format="1">
  <advance width="1503"/>
  <unicode hex="041B"/>
  <outline>
    <contour>
      <point x="493" y="1402" type="line"/>
      <point x="455" y="822" type="line" smooth="yes"/>
      <point x="423.0" y="192.66666666666663"/>
      <point x="355.66666666666663" y="0.0"/>
      <point x="89" y="0" type="curve" smooth="yes"/>
      <point x="57" y="0" type="line"/>
      <point x="57" y="54" type="line"/>
      <point x="92" y="54" type="line" smooth="yes"/>
      <point x="301.3333333333333" y="54.0"/>
      <point x="369.0" y="204.66666666666674"/>
      <point x="401" y="822" type="curve" smooth="yes"/>
      <point x="439" y="1402" type="line"/>
      <point x="280" y="1402" type="line"/>
      <point x="280" y="1456" type="line"/>
      <point x="1419" y="1456" type="line"/>
      <point x="1419" y="1402" type="line"/>
      <point x="1256" y="1402" type="line"/>
      <point x="1256" y="54" type="line"/>
      <point x="1419" y="54" type="line"/>
      <point x="1419" y="0" type="line"/>
      <point x="1039" y="0" type="line"/>
      <point x="1039" y="54" type="line"/>
      <point x="1202" y="54" type="line"/>
      <point x="1202" y="1402" type="line"/>
    </contour>
  </outline>
</glyph>
<glyph name="U-cy" format="1">
  <advance width="1431"/>
  <unicode hex="0423"/>
  <outline>
    <contour>
      <point x="1405" y="1402" type="line"/>
      <point x="1291" y="1402" type="line"/>
      <point x="719" y="257" type="line" smooth="yes"/>
      <point x="636.333333333" y="97.0"/>
      <point x="554.0" y="-21.0"/>
      <point x="366" y="-21" type="curve" smooth="yes"/>
      <point x="338.0" y="-21.0"/>
      <point x="295.0" y="-14.6666666667"/>
      <point x="279" y="-8" type="curve"/>
      <point x="294" y="43" type="line"/>
      <point x="311.333333333" y="36.3333333333"/>
      <point x="343.0" y="33.0"/>
      <point x="371" y="33" type="curve" smooth="yes"/>
      <point x="504.333333333" y="33.0"/>
      <point x="586.666666667" y="119.333333333"/>
      <point x="660" y="266" type="curve" smooth="yes"/>
      <point x="724" y="394" type="line"/>
      <point x="151" y="1402" type="line"/>
      <point x="33" y="1402" type="line"/>
      <point x="33" y="1456" type="line"/>
      <point x="350" y="1456" type="line"/>
      <point x="350" y="1402" type="line"/>
      <point x="218" y="1402" type="line"/>
      <point x="701" y="557" type="line"/>
      <point x="756" y="457" type="line"/>
      <point x="776" y="496" type="line"/>
      <point x="1225" y="1402" type="line"/>
      <point x="1089" y="1402" type="line"/>
      <point x="1089" y="1456" type="line"/>
      <point x="1405" y="1456" type="line"/>
    </contour>
  </outline>
</glyph>
<glyph name="Ef-cy" format="1">
  <advance width="1462"/>
  <unicode hex="0424"/>
  <outline>
    <contour>
      <point x="539" y="-6" type="line"/>
      <point x="702" y="-6" type="line"/>
      <point x="702" y="169" type="line"/>
      <point x="677" y="169" type="line" smooth="yes"/>
      <point x="307.666666667" y="169.0"/>
      <point x="70.0" y="413.0"/>
      <point x="70" y="737" type="curve" smooth="yes"/>
      <point x="70.0" y="1059.66666667"/>
      <point x="309.0" y="1306.0"/>
      <point x="677" y="1306" type="curve" smooth="yes"/>
      <point x="702" y="1306" type="line"/>
      <point x="702" y="1462" type="line"/>
      <point x="539" y="1462" type="line"/>
      <point x="539" y="1516" type="line"/>
      <point x="920" y="1516" type="line"/>
      <point x="920" y="1462" type="line"/>
      <point x="757" y="1462" type="line"/>
      <point x="757" y="1306" type="line"/>
      <point x="785" y="1306" type="line" smooth="yes"/>
      <point x="1151.66666667" y="1306.0"/>
      <point x="1392.0" y="1060.33333333"/>
      <point x="1392" y="739" type="curve" smooth="yes"/>
      <point x="1392.0" y="415.0"/>
      <point x="1151.66666667" y="169.0"/>
      <point x="785" y="169" type="curve" smooth="yes"/>
      <point x="757" y="169" type="line"/>
      <point x="757" y="-6" type="line"/>
      <point x="920" y="-6" type="line"/>
      <point x="920" y="-60" type="line"/>
      <point x="539" y="-60" type="line"/>
    </contour>
    <contour>
      <point x="677" y="1252" type="line" smooth="yes"/>
      <point x="341.0" y="1252.0"/>
      <point x="125.0" y="1031.66666667"/>
      <point x="125" y="737" type="curve" smooth="yes"/>
      <point x="125.0" y="437.0"/>
      <point x="339.666666667" y="223.0"/>
      <point x="677" y="223" type="curve" smooth="yes"/>
      <point x="702" y="223" type="line"/>
      <point x="702" y="1252" type="line"/>
    </contour>
    <contour>
      <point x="757" y="1252" type="line"/>
      <point x="757" y="223" type="line"/>
      <point x="787" y="223" type="line" smooth="yes"/>
      <point x="1121.66666667" y="223.0"/>
      <point x="1337.0" y="439.0"/>
      <point x="1337" y="739" type="curve" smooth="yes"/>
      <point x="1337.0" y="1035.0"/>
      <point x="1120.33333333" y="1252.0"/>
      <point x="787" y="1252" type="curve" smooth="yes"/>
    </contour>
  </outline>
</glyph>
<glyph name="Hardsign-cy" format="1">
  <advance width="1594"/>
  <unicode hex="042A"/>
  <outline>
    <contour>
      <point x="828" y="1456" type="line"/>
      <point x="828" y="1402" type="line"/>
      <point x="665" y="1402" type="line"/>
      <point x="665" y="788" type="line"/>
      <point x="1034" y="788" type="line" smooth="yes"/>
      <point x="1336.66666667" y="788.0"/>
      <point x="1505.0" y="632.666666667"/>
      <point x="1505" y="394" type="curve" smooth="yes"/>
      <point x="1505.0" y="154.0"/>
      <point x="1336.66666667" y="0.0"/>
      <point x="1034" y="0" type="curve" smooth="yes"/>
      <point x="448" y="0" type="line"/>
      <point x="448" y="54" type="line"/>
      <point x="611" y="54" type="line"/>
      <point x="611" y="1402" type="line"/>
      <point x="131" y="1402" type="line"/>
      <point x="131" y="1163" type="line"/>
      <point x="77" y="1163" type="line"/>
      <point x="77" y="1456" type="line"/>
    </contour>
    <contour>
      <point x="665" y="734" type="line"/>
      <point x="665" y="54" type="line"/>
      <point x="1034" y="54" type="line" smooth="yes"/>
      <point x="1312.66666667" y="54.0"/>
      <point x="1450.0" y="196.0"/>
      <point x="1450" y="396" type="curve" smooth="yes"/>
      <point x="1450.0" y="588.0"/>
      <point x="1311.33333333" y="734.0"/>
      <point x="1034" y="734" type="curve" smooth="yes"/>
    </contour>
  </outline>
</glyph>
<glyph name="Yeru-cy" format="1">
  <advance width="1648"/>
  <unicode hex="042B"/>
  <outline>
    <contour>
      <point x="287" y="1456" type="line"/>
      <point x="287" y="788" type="line"/>
      <point x="656" y="788" type="line" smooth="yes"/>
      <point x="958.666666667" y="788.0"/>
      <point x="1127.0" y="632.666666667"/>
      <point x="1127" y="394" type="curve" smooth="yes"/>
      <point x="1127.0" y="154.0"/>
      <point x="958.666666667" y="0.0"/>
      <point x="656" y="0" type="curve" smooth="yes"/>
      <point x="70" y="0" type="line"/>
      <point x="70" y="54" type="line"/>
      <point x="233" y="54" type="line"/>
      <point x="233" y="1402" type="line"/>
      <point x="70" y="1402" type="line"/>
      <point x="70" y="1456" type="line"/>
      <point x="233" y="1456" type="line"/>
    </contour>
    <contour>
      <point x="1223" y="54" type="line"/>
      <point x="1386" y="54" type="line"/>
      <point x="1386" y="1402" type="line"/>
      <point x="1223" y="1402" type="line"/>
      <point x="1223" y="1456" type="line"/>
      <point x="1603" y="1456" type="line"/>
      <point x="1603" y="1402" type="line"/>
      <point x="1440" y="1402" type="line"/>
      <point x="1440" y="54" type="line"/>
      <point x="1603" y="54" type="line"/>
      <point x="1603" y="0" type="line"/>
      <point x="1223" y="0" type="line"/>
    </contour>
    <contour>
      <point x="287" y="734" type="line"/>
      <point x="287" y="54" type="line"/>
      <point x="656" y="54" type="line" smooth="yes"/>
      <point x="934.666666667" y="54.0"/>
      <point x="1072.0" y="196.0"/>
      <point x="1072" y="396" type="curve" smooth="yes"/>
      <point x="1072.0" y="588.0"/>
      <point x="933.333333333" y="734.0"/>
      <point x="656" y="734" type="curve" smooth="yes"/>
    </contour>
    <contour>
      <point x="450" y="1456" type="line"/>
      <point x="450" y="1402" type="line"/>
      <point x="287" y="1402" type="line"/>
      <point x="287" y="1456" type="line"/>
    </contour>
  </outline>
</glyph>
<glyph name="Iu-cy" format="1">
  <advance width="1896"/>
  <unicode hex="042E"/>
  <outline>
    <contour>
      <point x="66" y="1402" type="line"/>
      <point x="66" y="1456" type="line"/>
      <point x="446" y="1456" type="line"/>
      <point x="446" y="1402" type="line"/>
      <point x="283" y="1402" type="line"/>
      <point x="283" y="747" type="line"/>
      <point x="604" y="747" type="line"/>
      <point x="608" y="1188"/>
      <point x="852" y="1477"/>
      <point x="1212" y="1477" type="curve" smooth="yes"/>
      <point x="1573" y="1477"/>
      <point x="1822" y="1184"/>
      <point x="1822" y="737" type="curve" smooth="yes"/>
      <point x="1822" y="719" type="line" smooth="yes"/>
      <point x="1822" y="271"/>
      <point x="1575" y="-21"/>
      <point x="1214" y="-21" type="curve" smooth="yes"/>
      <point x="858" y="-21"/>
      <point x="614" y="261"/>
      <point x="604" y="693" type="curve"/>
      <point x="283" y="693" type="line"/>
      <point x="283" y="54" type="line"/>
      <point x="446" y="54" type="line"/>
      <point x="446" y="0" type="line"/>
      <point x="66" y="0" type="line"/>
      <point x="66" y="54" type="line"/>
      <point x="229" y="54" type="line"/>
      <point x="229" y="1402" type="line"/>
    </contour>
    <contour>
      <point x="1768" y="739" type="line" smooth="yes"/>
      <point x="1768" y="1151"/>
      <point x="1549" y="1423"/>
      <point x="1212" y="1423" type="curve" smooth="yes"/>
      <point x="876" y="1423"/>
      <point x="659" y="1151"/>
      <point x="659" y="739" type="curve" smooth="yes"/>
      <point x="659" y="719" type="line" smooth="yes"/>
      <point x="659" y="304"/>
      <point x="877" y="33"/>
      <point x="1214" y="33" type="curve" smooth="yes"/>
      <point x="1551" y="33"/>
      <point x="1768" y="304"/>
      <point x="1768" y="719" type="curve" smooth="yes"/>
    </contour>
  </outline>
</glyph>
<glyph name="Ia-cy" format="1">
  <advance width="1363"/>
  <unicode hex="042F"/>
  <outline>
    <contour>
      <point x="1258" y="54" type="line"/>
      <point x="1095" y="54" type="line"/>
      <point x="1095" y="1402" type="line"/>
      <point x="1258" y="1402" type="line"/>
      <point x="1258" y="1456" type="line"/>
      <point x="669" y="1456" type="line" smooth="yes"/>
      <point x="370" y="1456"/>
      <point x="195" y="1304"/>
      <point x="195" y="1028" type="curve" smooth="yes"/>
      <point x="195" y="844"/>
      <point x="302" y="693"/>
      <point x="480" y="657" type="curve"/>
      <point x="484" y="654" type="line"/>
      <point x="305" y="211" type="line" smooth="yes"/>
      <point x="254" y="86"/>
      <point x="203" y="46"/>
      <point x="135" y="46" type="curve" smooth="yes"/>
      <point x="110" y="46"/>
      <point x="89" y="52"/>
      <point x="73" y="64" type="curve"/>
      <point x="49" y="18" type="line"/>
      <point x="73" y="1"/>
      <point x="107" y="-8"/>
      <point x="135" y="-8" type="curve" smooth="yes"/>
      <point x="216" y="-8"/>
      <point x="290" y="37"/>
      <point x="347" y="176" type="curve" smooth="yes"/>
      <point x="537" y="639" type="line"/>
      <point x="1040" y="639" type="line"/>
      <point x="1040" y="54" type="line"/>
      <point x="877" y="54" type="line"/>
      <point x="877" y="0" type="line"/>
      <point x="1258" y="0" type="line"/>
    </contour>
    <contour>
      <point x="669" y="1402" type="curve" smooth="yes"/>
      <point x="1040" y="1402" type="line"/>
      <point x="1040" y="694" type="line"/>
      <point x="590" y="694" type="line" smooth="yes"/>
      <point x="372" y="694"/>
      <point x="249" y="829"/>
      <point x="249" y="1030" type="curve" smooth="yes"/>
      <point x="249" y="1270"/>
      <point x="393" y="1402"/>
    </contour>
  </outline>
</glyph>
<glyph name="zhe-cy" format="1">
  <advance width="1801"/>
  <unicode hex="0436"/>
  <outline>
    <contour>
      <point x="723" y="54" type="line"/>
      <point x="886" y="54" type="line"/>
      <point x="886" y="529" type="line"/>
      <point x="732" y="529" type="line"/>
      <point x="233" y="0" type="line"/>
      <point x="75" y="0" type="line"/>
      <point x="75" y="54" type="line"/>
      <point x="212" y="54" type="line"/>
      <point x="681" y="560" type="line"/>
      <point x="396" y="914" type="line" smooth="yes"/>
      <point x="312.0" y="1018.0"/>
      <point x="276.0" y="1039.0"/>
      <point x="208" y="1039" type="curve" smooth="yes"/>
      <point x="182.666666667" y="1039.0"/>
      <point x="162.0" y="1031.66666667"/>
      <point x="146" y="1021" type="curve"/>
      <point x="122" y="1067" type="line"/>
      <point x="146.0" y="1083.0"/>
      <point x="180.0" y="1093.0"/>
      <point x="208" y="1093" type="curve" smooth="yes"/>
      <point x="285.333333333" y="1093.0"/>
      <point x="340.0" y="1066.33333333"/>
      <point x="436" y="949" type="curve" smooth="yes"/>
      <point x="733" y="582" type="line"/>
      <point x="886" y="582" type="line"/>
      <point x="886" y="1028" type="line"/>
      <point x="723" y="1028" type="line"/>
      <point x="723" y="1082" type="line"/>
      <point x="1103" y="1082" type="line"/>
      <point x="1103" y="1028" type="line"/>
      <point x="940" y="1028" type="line"/>
      <point x="940" y="582" type="line"/>
      <point x="1100" y="582" type="line"/>
      <point x="1397" y="949" type="line" smooth="yes"/>
      <point x="1491.66666667" y="1066.33333333"/>
      <point x="1546.33333333" y="1093.0"/>
      <point x="1625" y="1093" type="curve" smooth="yes"/>
      <point x="1651.66666667" y="1093.0"/>
      <point x="1685.66666667" y="1083.0"/>
      <point x="1711" y="1067" type="curve"/>
      <point x="1687" y="1021" type="line"/>
      <point x="1669.66666667" y="1031.66666667"/>
      <point x="1649.0" y="1039.0"/>
      <point x="1625" y="1039" type="curve" smooth="yes"/>
      <point x="1557.0" y="1039.0"/>
      <point x="1521.0" y="1018.0"/>
      <point x="1437" y="914" type="curve" smooth="yes"/>
      <point x="1150" y="557" type="line"/>
      <point x="1617" y="54" type="line"/>
      <point x="1754" y="54" type="line"/>
      <point x="1754" y="0" type="line"/>
      <point x="1596" y="0" type="line"/>
      <point x="1096" y="529" type="line"/>
      <point x="940" y="529" type="line"/>
      <point x="940" y="54" type="line"/>
      <point x="1103" y="54" type="line"/>
      <point x="1103" y="0" type="line"/>
      <point x="723" y="0" type="line"/>
    </contour>
  </outline>
</glyph>
<glyph name="em-cy" format="1">
  <advance width="1684"/>
  <unicode hex="043C"/>
  <outline>
    <contour>
      <point x="822.0" y="89.0" type="line"/>
      <point x="826.0" y="82.0" type="line"/>
      <point x="1318.0" y="1082.0" type="line"/>
      <point x="1383.0" y="1082.0" type="line"/>
      <point x="1546.0" y="1082.0" type="line"/>
      <point x="1546.0" y="1028.0" type="line"/>
      <point x="1383.0" y="1028.0" type="line"/>
      <point x="1383.0" y="54.0" type="line"/>
      <point x="1546.0" y="54.0" type="line"/>
      <point x="1546.0" y="0.0" type="line"/>
      <point x="1165.0" y="0.0" type="line"/>
      <point x="1165.0" y="54.0" type="line"/>
      <point x="1328.0" y="54.0" type="line"/>
      <point x="1328.0" y="965.0" type="line"/>
      <point x="1322.0" y="966.0" type="line"/>
      <point x="847.0" y="0.0" type="line"/>
      <point x="805.0" y="0.0" type="line"/>
      <point x="320.0" y="990.0" type="line"/>
      <point x="314.0" y="989.0" type="line"/>
      <point x="314.0" y="54.0" type="line"/>
      <point x="477.0" y="54.0" type="line"/>
      <point x="477.0" y="0.0" type="line"/>
      <point x="97.0" y="0.0" type="line"/>
      <point x="97.0" y="54.0" type="line"/>
      <point x="260.0" y="54.0" type="line"/>
      <point x="260.0" y="1028.0" type="line"/>
      <point x="97.0" y="1028.0" type="line"/>
      <point x="97.0" y="1082.0" type="line"/>
      <point x="260.0" y="1082.0" type="line"/>
      <point x="334.0" y="1082.0" type="line"/>
    </contour>
  </outline>
</glyph>
<glyph name="es-cy" format="1">
  <advance width="1086"/>
  <unicode hex="0441"/>
  <outline>
    <contour>
      <point x="546" y="33" type="curve" smooth="yes"/>
      <point x="728.6666666666667" y="33.0"/>
      <point x="893.0" y="133.0"/>
      <point x="893" y="333" type="curve"/>
      <point x="939" y="333" type="line"/>
      <point x="941" y="327" type="line"/>
      <point x="946.3333333333333" y="115.0"/>
      <point x="756.6666666666667" y="-21.0"/>
      <point x="546" y="-21" type="curve" smooth="yes"/>
      <point x="270.0" y="-21.0"/>
      <point x="104.0" y="196.0"/>
      <point x="104" y="520" type="curve" smooth="yes"/>
      <point x="104" y="562" type="line" smooth="yes"/>
      <point x="104.0" y="884.6666666666663"/>
      <point x="269.33333333333326" y="1102.0"/>
      <point x="544" y="1102" type="curve" smooth="yes"/>
      <point x="706.6666666666666" y="1102.0"/>
      <point x="853.0" y="1029.6666666666667"/>
      <point x="937" y="915" type="curve"/>
      <point x="937" y="683" type="line"/>
      <point x="883" y="683" type="line"/>
      <point x="883" y="895" type="line"/>
      <point x="807.0" y="988.3333333333333"/>
      <point x="689.3333333333333" y="1048.0"/>
      <point x="544" y="1048" type="curve" smooth="yes"/>
      <point x="290.66666666666674" y="1048.0"/>
      <point x="158.0" y="847.3333333333333"/>
      <point x="158" y="562" type="curve" smooth="yes"/>
      <point x="158" y="520" type="line" smooth="yes"/>
      <point x="158.0" y="231.99999999999994"/>
      <point x="290.0" y="33.0"/>
    </contour>
  </outline>
</glyph>
<glyph name="ef-cy" format="1">
  <advance width="1450"/>
  <unicode hex="0444"/>
  <outline>
    <contour>
      <point x="739" y="1560" type="line"/>
      <point x="739" y="1036" type="line"/>
      <point x="784.333333333" y="1074.66666667"/>
      <point x="851.0" y="1102.0"/>
      <point x="943" y="1102" type="curve" smooth="yes"/>
      <point x="1184.33333333" y="1102.0"/>
      <point x="1331.0" y="884.666666667"/>
      <point x="1331" y="542" type="curve" smooth="yes"/>
      <point x="1331" y="521" type="line" smooth="yes"/>
      <point x="1331.0" y="187.666666667"/>
      <point x="1185.0" y="-21.0"/>
      <point x="945" y="-21" type="curve" smooth="yes"/>
      <point x="855.666666667" y="-21.0"/>
      <point x="787.0" y="5.0"/>
      <point x="739" y="41" type="curve"/>
      <point x="739" y="-362" type="line"/>
      <point x="902" y="-362" type="line"/>
      <point x="902" y="-416" type="line"/>
      <point x="522" y="-416" type="line"/>
      <point x="522" y="-362" type="line"/>
      <point x="685" y="-362" type="line"/>
      <point x="685" y="41" type="line"/>
      <point x="634.333333333" y="5.0"/>
      <point x="565.0" y="-21.0"/>
      <point x="477" y="-21" type="curve" smooth="yes"/>
      <point x="235.666666667" y="-21.0"/>
      <point x="91.0" y="187.666666667"/>
      <point x="91" y="521" type="curve" smooth="yes"/>
      <point x="91" y="542" type="line" smooth="yes"/>
      <point x="91.0" y="884.666666667"/>
      <point x="236.333333333" y="1102.0"/>
      <point x="479" y="1102" type="curve" smooth="yes"/>
      <point x="569.666666667" y="1102.0"/>
      <point x="637.0" y="1073.66666667"/>
      <point x="685" y="1035" type="curve"/>
      <point x="685" y="1506" type="line"/>
      <point x="522" y="1506" type="line"/>
      <point x="522" y="1560" type="line"/>
    </contour>
    <contour>
      <point x="1277" y="542" type="line" smooth="yes"/>
      <point x="1277.0" y="842.0"/>
      <point x="1160.0" y="1048.0"/>
      <point x="944" y="1048" type="curve" smooth="yes"/>
      <point x="826.666666667" y="1048.0"/>
      <point x="769.666666667" y="1009.0"/>
      <point x="739" y="965" type="curve"/>
      <point x="739" y="101" type="line"/>
      <point x="780.333333333" y="66.3333333333"/>
      <point x="846.0" y="33.0"/>
      <point x="946" y="33" type="curve" smooth="yes"/>
      <point x="1162.0" y="33.0"/>
      <point x="1277.0" y="222.333333333"/>
      <point x="1277" y="521" type="curve" smooth="yes"/>
    </contour>
    <contour>
      <point x="147" y="521" type="line" smooth="yes"/>
      <point x="147.0" y="222.333333333"/>
      <point x="260.0" y="33.0"/>
      <point x="476" y="33" type="curve" smooth="yes"/>
      <point x="576.0" y="33.0"/>
      <point x="638.333333333" y="64.6666666667"/>
      <point x="685" y="102" type="curve"/>
      <point x="685" y="963" type="line"/>
      <point x="653.0" y="1008.33333333"/>
      <point x="596.666666667" y="1048.0"/>
      <point x="478" y="1048" type="curve" smooth="yes"/>
      <point x="262.0" y="1048.0"/>
      <point x="147.0" y="842.0"/>
      <point x="147" y="542" type="curve" smooth="yes"/>
    </contour>
  </outline>
</glyph>
<glyph name="che-cy" format="1">
  <advance width="1319"/>
  <unicode hex="0447"/>
  <outline>
    <contour>
      <point x="445" y="1082" type="line"/>
      <point x="445" y="1028" type="line"/>
      <point x="282" y="1028" type="line"/>
      <point x="282" y="848" type="line" smooth="yes"/>
      <point x="282.0" y="574.6666666666667"/>
      <point x="377.0" y="496.0"/>
      <point x="637" y="496" type="curve" smooth="yes"/>
      <point x="742.3333333333333" y="500.0"/>
      <point x="878.6666666666667" y="534.3333333333333"/>
      <point x="952" y="573" type="curve"/>
      <point x="952" y="1028" type="line"/>
      <point x="789" y="1028" type="line"/>
      <point x="789" y="1082" type="line"/>
      <point x="1169" y="1082" type="line"/>
      <point x="1169" y="1028" type="line"/>
      <point x="1006" y="1028" type="line"/>
      <point x="1006" y="54" type="line"/>
      <point x="1169" y="54" type="line"/>
      <point x="1169" y="0" type="line"/>
      <point x="789" y="0" type="line"/>
      <point x="789" y="54" type="line"/>
      <point x="952" y="54" type="line"/>
      <point x="952" y="522" type="line"/>
      <point x="864.0" y="478.0"/>
      <point x="729.0" y="442.0"/>
      <point x="637" y="442" type="curve" smooth="yes"/>
      <point x="342.3333333333333" y="442.0"/>
      <point x="228.0" y="532.0"/>
      <point x="228" y="848" type="curve" smooth="yes"/>
      <point x="228" y="1028" type="line"/>
      <point x="65" y="1028" type="line"/>
      <point x="65" y="1082" type="line"/>
      <point x="282" y="1082" type="line"/>
    </contour>
  </outline>
</glyph>
<glyph name="iu-cy" format="1">
  <advance width="1708"/>
  <unicode hex="044E"/>
  <outline>
    <contour>
      <point x="90" y="54" type="line"/>
      <point x="253" y="54" type="line"/>
      <point x="253" y="1028" type="line"/>
      <point x="90" y="1028" type="line"/>
      <point x="90" y="1082" type="line"/>
      <point x="307" y="1082" type="line"/>
      <point x="307" y="557" type="line"/>
      <point x="610" y="557" type="line"/>
      <point x="610" y="882"/>
      <point x="803.0" y="1102.0"/>
      <point x="1083" y="1102" type="curve" smooth="yes"/>
      <point x="1364.3333333333335" y="1102.0"/>
      <point x="1557.0" y="879.3333333333334"/>
      <point x="1557" y="562" type="curve" smooth="yes"/>
      <point x="1557" y="520" type="line" smooth="yes"/>
      <point x="1557.0" y="201.33333333333337"/>
      <point x="1363.6666666666665" y="-21.0"/>
      <point x="1085" y="-21" type="curve" smooth="yes"/>
      <point x="809.0" y="-21.0"/>
      <point x="616.6666666666667" y="193.66666666666674"/>
      <point x="610" y="503" type="curve"/>
      <point x="307" y="503" type="line"/>
      <point x="307" y="54" type="line"/>
      <point x="470" y="54" type="line"/>
      <point x="470" y="0" type="line"/>
      <point x="90" y="0" type="line"/>
    </contour>
    <contour>
      <point x="664" y="520" type="line" smooth="yes"/>
      <point x="664.0" y="248.0"/>
      <point x="827.6666666666667" y="33.0"/>
      <point x="1085" y="33" type="curve" smooth="yes"/>
      <point x="1338.3333333333335" y="33.0"/>
      <point x="1503.0" y="249.33333333333331"/>
      <point x="1503" y="520" type="curve" smooth="yes"/>
      <point x="1503" y="562" type="line" smooth="yes"/>
      <point x="1503.0" y="827.3333333333333"/>
      <point x="1336.3333333333335" y="1048.0"/>
      <point x="1083" y="1048" type="curve" smooth="yes"/>
      <point x="828.3333333333333" y="1048.0"/>
      <point x="664.0" y="827.3333333333333"/>
      <point x="664" y="562" type="curve" smooth="yes"/>
    </contour>
  </outline>
</glyph>
<glyph name="ia-cy" format="1">
  <advance width="1252"/>
  <unicode hex="044F"/>
  <outline>
    <contour>
      <point x="720" y="54" type="line"/>
      <point x="883" y="54" type="line"/>
      <point x="883" y="450" type="line"/>
      <point x="487" y="450" type="line"/>
      <point x="216" y="0" type="line"/>
      <point x="65" y="0" type="line"/>
      <point x="65" y="54" type="line"/>
      <point x="184" y="54" type="line"/>
      <point x="425" y="455" type="line"/>
      <point x="263.666666667" y="480.333333333"/>
      <point x="172.0" y="600.666666667"/>
      <point x="172" y="766" type="curve" smooth="yes"/>
      <point x="172.0" y="952.666666667"/>
      <point x="306.333333333" y="1082.0"/>
      <point x="537" y="1082" type="curve" smooth="yes"/>
      <point x="1100" y="1082" type="line"/>
      <point x="1100" y="1028" type="line"/>
      <point x="937" y="1028" type="line"/>
      <point x="937" y="54" type="line"/>
      <point x="1100" y="54" type="line"/>
      <point x="1100" y="0" type="line"/>
      <point x="720" y="0" type="line"/>
    </contour>
    <contour>
      <point x="226" y="764" type="curve" smooth="yes"/>
      <point x="226.0" y="617.333333333"/>
      <point x="315.0" y="505.0"/>
      <point x="495" y="505" type="curve" smooth="yes"/>
      <point x="883" y="505" type="line"/>
      <point x="883" y="1027" type="line"/>
      <point x="537" y="1027" type="line" smooth="yes"/>
      <point x="327.666666667" y="1027.0"/>
      <point x="226.0" y="916.0"/>
    </contour>
  </outline>
</glyph>
<glyph name="dje-cy" format="1">
  <advance width="1200"/>
  <unicode hex="0452"/>
  <outline>
    <contour>
      <point x="554" y="1251" type="line"/>
      <point x="279" y="1251" type="line"/>
      <point x="279" y="854" type="line"/>
      <point x="345.66666666666663" y="1011.3333333333333"/>
      <point x="476.33333333333314" y="1102.0"/>
      <point x="663" y="1102" type="curve" smooth="yes"/>
      <point x="888.3333333333334" y="1102.0"/>
      <point x="1007.0" y="964.6666666666664"/>
      <point x="1007" y="658" type="curve" smooth="yes"/>
      <point x="1007" y="-89" type="line" smooth="yes"/>
      <point x="1007.0" y="-311.66666666666663"/>
      <point x="901.0" y="-437.0"/>
      <point x="721" y="-437" type="curve" smooth="yes"/>
      <point x="674.3333333333333" y="-437.0"/>
      <point x="635.6666666666667" y="-430.33333333333337"/>
      <point x="589" y="-417" type="curve"/>
      <point x="602" y="-365" type="line"/>
      <point x="628.6666666666667" y="-373.0"/>
      <point x="679.6666666666667" y="-383.0"/>
      <point x="721" y="-383" type="curve" smooth="yes"/>
      <point x="867.6666666666667" y="-383.0"/>
      <point x="952.0" y="-277.0"/>
      <point x="952" y="-89" type="curve" smooth="yes"/>
      <point x="952" y="660" type="line" smooth="yes"/>
      <point x="952.0" y="944.0"/>
      <point x="838.6666666666667" y="1048.0"/>
      <point x="664" y="1048" type="curve" smooth="yes"/>
      <point x="430.66666666666674" y="1048.0"/>
      <point x="311.0" y="893.3333333333333"/>
      <point x="279" y="676" type="curve"/>
      <point x="279" y="54" type="line"/>
      <point x="442" y="54" type="line"/>
      <point x="442" y="0" type="line"/>
      <point x="62" y="0" type="line"/>
      <point x="62" y="54" type="line"/>
      <point x="225" y="54" type="line"/>
      <point x="225" y="1251" type="line"/>
      <point x="7" y="1251" type="line"/>
      <point x="7" y="1305" type="line"/>
      <point x="225" y="1305" type="line"/>
      <point x="225" y="1506" type="line"/>
      <point x="62" y="1506" type="line"/>
      <point x="62" y="1560" type="line"/>
      <point x="279" y="1560" type="line"/>
      <point x="279" y="1305" type="line"/>
      <point x="554" y="1305" type="line"/>
    </contour>
  </outline>
</glyph>
<glyph name="nje-cy" format="1">
  <advance width="1877"/>
  <unicode hex="045A"/>
  <outline>
    <contour>
      <point x="97" y="54" type="line"/>
      <point x="260" y="54" type="line"/>
      <point x="260" y="1028" type="line"/>
      <point x="97" y="1028" type="line"/>
      <point x="97" y="1082" type="line"/>
      <point x="477" y="1082" type="line"/>
      <point x="477" y="1028" type="line"/>
      <point x="314" y="1028" type="line"/>
      <point x="314" y="632" type="line"/>
      <point x="983" y="632" type="line"/>
      <point x="983" y="1028" type="line"/>
      <point x="820" y="1028" type="line"/>
      <point x="820" y="1082" type="line"/>
      <point x="983" y="1082" type="line"/>
      <point x="1038" y="1082" type="line"/>
      <point x="1201" y="1082" type="line"/>
      <point x="1201" y="1028" type="line"/>
      <point x="1038" y="1028" type="line"/>
      <point x="1038" y="630" type="line"/>
      <point x="1383" y="630" type="line" smooth="yes"/>
      <point x="1625.66666667" y="630.0"/>
      <point x="1770.0" y="500.333333333"/>
      <point x="1770" y="315" type="curve" smooth="yes"/>
      <point x="1770.0" y="127.0"/>
      <point x="1625.66666667" y="0.0"/>
      <point x="1383" y="0" type="curve" smooth="yes"/>
      <point x="820" y="0" type="line"/>
      <point x="820" y="54" type="line"/>
      <point x="983" y="54" type="line"/>
      <point x="983" y="578" type="line"/>
      <point x="314" y="578" type="line"/>
      <point x="314" y="54" type="line"/>
      <point x="477" y="54" type="line"/>
      <point x="477" y="0" type="line"/>
      <point x="97" y="0" type="line"/>
    </contour>
    <contour>
      <point x="1038" y="576" type="line"/>
      <point x="1038" y="54" type="line"/>
      <point x="1383" y="54" type="line" smooth="yes"/>
      <point x="1604.33333333" y="54.0"/>
      <point x="1716.0" y="166.333333333"/>
      <point x="1716" y="317" type="curve" smooth="yes"/>
      <point x="1716.0" y="461.0"/>
      <point x="1603.0" y="576.0"/>
      <point x="1383" y="576" type="curve" smooth="yes"/>
    </contour>
  </outline>
</glyph>
<glyph name="tshe-cy" format="1">
  <advance width="1278"/>
  <unicode hex="045B"/>
  <outline>
    <contour>
      <point x="62" y="54" type="line"/>
      <point x="225" y="54" type="line"/>
      <point x="225" y="1280" type="line"/>
      <point x="17" y="1280" type="line"/>
      <point x="17" y="1334" type="line"/>
      <point x="225" y="1334" type="line"/>
      <point x="225" y="1506" type="line"/>
      <point x="62" y="1506" type="line"/>
      <point x="62" y="1560" type="line"/>
      <point x="279" y="1560" type="line"/>
      <point x="279" y="1334" type="line"/>
      <point x="604" y="1334" type="line"/>
      <point x="604" y="1280" type="line"/>
      <point x="279" y="1280" type="line"/>
      <point x="279" y="854" type="line"/>
      <point x="345.666666667" y="1011.33333333"/>
      <point x="476.333333333" y="1102.0"/>
      <point x="663" y="1102" type="curve" smooth="yes"/>
      <point x="888.333333333" y="1102.0"/>
      <point x="1007.0" y="964.666666667"/>
      <point x="1007" y="658" type="curve" smooth="yes"/>
      <point x="1007" y="54" type="line"/>
      <point x="1170" y="54" type="line"/>
      <point x="1170" y="0" type="line"/>
      <point x="789" y="0" type="line"/>
      <point x="789" y="54" type="line"/>
      <point x="952" y="54" type="line"/>
      <point x="952" y="660" type="line" smooth="yes"/>
      <point x="952.0" y="944.0"/>
      <point x="838.666666667" y="1048.0"/>
      <point x="664" y="1048" type="curve" smooth="yes"/>
      <point x="430.666666667" y="1048.0"/>
      <point x="311.0" y="893.333333333"/>
      <point x="279" y="676" type="curve"/>
      <point x="279" y="54" type="line"/>
      <point x="442" y="54" type="line"/>
      <point x="442" y="0" type="line"/>
      <point x="62" y="0" type="line"/>
    </contour>
  </outline>
</glyph>
<glyph name="yat-cy" format="1">
  <advance width="1080"/>
  <unicode hex="0463"/>
  <outline>
    <contour>
      <point x="235" y="1136" type="line"/>
      <point x="564" y="1136" type="line"/>
      <point x="564" y="1082" type="line"/>
      <point x="235" y="1082" type="line"/>
      <point x="235" y="670" type="line"/>
      <point x="580" y="670" type="line" smooth="yes"/>
      <point x="822.6666666666667" y="670.0"/>
      <point x="967.0" y="532.3333333333333"/>
      <point x="967" y="335" type="curve" smooth="yes"/>
      <point x="967.0" y="135.0"/>
      <point x="822.6666666666667" y="0.0"/>
      <point x="580" y="0" type="curve" smooth="yes"/>
      <point x="18" y="0" type="line"/>
      <point x="18" y="54" type="line"/>
      <point x="181" y="54" type="line"/>
      <point x="181" y="1082" type="line"/>
      <point x="-23" y="1082" type="line"/>
      <point x="-23" y="1136" type="line"/>
      <point x="181" y="1136" type="line"/>
      <point x="181" y="1508" type="line"/>
      <point x="18" y="1508" type="line"/>
      <point x="18" y="1562" type="line"/>
      <point x="235" y="1562" type="line"/>
    </contour>
    <contour>
      <point x="235" y="616" type="line"/>
      <point x="235" y="54" type="line"/>
      <point x="580" y="54" type="line" smooth="yes"/>
      <point x="801.3333333333333" y="54.0"/>
      <point x="913.0" y="174.33333333333337"/>
      <point x="913" y="337" type="curve" smooth="yes"/>
      <point x="913.0" y="493.0"/>
      <point x="800.0" y="616.0"/>
      <point x="580" y="616" type="curve" smooth="yes"/>
    </contour>
  </outline>
</glyph>
<glyph name="Eiotified-cy" format="1">
  <advance width="1748"/>
  <unicode hex="0464"/>
  <outline>
    <contour>
      <point x="1711" y="993" type="line"/>
      <point x="1656" y="993" type="line"/>
      <point x="1656" y="1227" type="line"/>
      <point x="1566.6666666666665" y="1347.0"/>
      <point x="1412.6666666666665" y="1424.0"/>
      <point x="1222" y="1424" type="curve" smooth="yes"/>
      <point x="892.6666666666665" y="1424.0"/>
      <point x="659.6666666666667" y="1172.3333333333333"/>
      <point x="645" y="799" type="curve"/>
      <point x="647" y="794" type="line"/>
      <point x="1193" y="794" type="line"/>
      <point x="1193" y="740" type="line"/>
      <point x="639" y="740" type="line"/>
      <point x="639" y="720" type="line" smooth="yes"/>
      <point x="639.0" y="310.66666666666674"/>
      <point x="877.3333333333335" y="34.0"/>
      <point x="1212" y="34" type="curve" smooth="yes"/>
      <point x="1404.0" y="34.0"/>
      <point x="1568.0" y="111.0"/>
      <point x="1656" y="231" type="curve"/>
      <point x="1656" y="465" type="line"/>
      <point x="1711" y="465" type="line"/>
      <point x="1711" y="211" type="line"/>
      <point x="1613.6666666666665" y="68.33333333333337"/>
      <point x="1425.3333333333335" y="-20.0"/>
      <point x="1212" y="-20" type="curve" smooth="yes"/>
      <point x="842.6666666666665" y="-20.0"/>
      <point x="585" y="281"/>
      <point x="585" y="720" type="curve" smooth="yes"/>
      <point x="585" y="740" type="line"/>
      <point x="284" y="740" type="line"/>
      <point x="284" y="54" type="line"/>
      <point x="447" y="54" type="line"/>
      <point x="447" y="0" type="line"/>
      <point x="67" y="0" type="line"/>
      <point x="67" y="54" type="line"/>
      <point x="230" y="54" type="line"/>
      <point x="230" y="1402" type="line"/>
      <point x="67" y="1402" type="line"/>
      <point x="67" y="1456" type="line"/>
      <point x="230" y="1456" type="line"/>
      <point x="284" y="1456" type="line"/>
      <point x="447" y="1456" type="line"/>
      <point x="447" y="1402" type="line"/>
      <point x="284" y="1402" type="line"/>
      <point x="284" y="794" type="line"/>
      <point x="586" y="794" type="line"/>
      <point x="606.0" y="1203.3333333333333"/>
      <point x="858.0" y="1478.0"/>
      <point x="1222" y="1478" type="curve" smooth="yes"/>
      <point x="1432.6666666666665" y="1478.0"/>
      <point x="1612.3333333333335" y="1389.6666666666665"/>
      <point x="1711" y="1247" type="curve"/>
    </contour>
  </outline>
</glyph>
<glyph name="eiotified-cy" format="1">
  <advance width="1540"/>
  <unicode hex="0465"/>
  <outline>
    <contour>
      <point x="305" y="588" type="line"/>
      <point x="546" y="588" type="line"/>
      <point x="554.0" y="897.3333333333333"/>
      <point x="718.0" y="1102.0"/>
      <point x="986" y="1102" type="curve" smooth="yes"/>
      <point x="1148.6666666666665" y="1102.0"/>
      <point x="1295.0" y="1029.6666666666667"/>
      <point x="1379" y="915" type="curve"/>
      <point x="1379" y="683" type="line"/>
      <point x="1325" y="683" type="line"/>
      <point x="1325" y="895" type="line"/>
      <point x="1249.0" y="988.3333333333333"/>
      <point x="1131.3333333333335" y="1048.0"/>
      <point x="986" y="1048" type="curve" smooth="yes"/>
      <point x="739.3333333333333" y="1048.0"/>
      <point x="607.6666666666667" y="859.6666666666665"/>
      <point x="605" y="593" type="curve"/>
      <point x="607" y="588" type="line"/>
      <point x="1172" y="588" type="line"/>
      <point x="1172" y="534" type="line"/>
      <point x="600" y="534" type="line"/>
      <point x="600" y="520" type="line" smooth="yes"/>
      <point x="600.0" y="232.0"/>
      <point x="732.0" y="33.0"/>
      <point x="988" y="33" type="curve" smooth="yes"/>
      <point x="1170.6666666666665" y="33.0"/>
      <point x="1335.0" y="133.0"/>
      <point x="1335" y="333" type="curve"/>
      <point x="1381" y="333" type="line"/>
      <point x="1383" y="327" type="line"/>
      <point x="1388.3333333333335" y="115.0"/>
      <point x="1198.6666666666665" y="-21.0"/>
      <point x="988" y="-21" type="curve" smooth="yes"/>
      <point x="712.0" y="-21.0"/>
      <point x="545" y="196"/>
      <point x="546" y="534" type="curve"/>
      <point x="305" y="534" type="line"/>
      <point x="305" y="54" type="line"/>
      <point x="468" y="54" type="line"/>
      <point x="468" y="0" type="line"/>
      <point x="88" y="0" type="line"/>
      <point x="88" y="54" type="line"/>
      <point x="251" y="54" type="line"/>
      <point x="251" y="1028" type="line"/>
      <point x="88" y="1028" type="line"/>
      <point x="88" y="1082" type="line"/>
      <point x="251" y="1082" type="line"/>
      <point x="305" y="1082" type="line"/>
    </contour>
  </outline>
</glyph>
<glyph name="yuslittle-cy" format="1">
  <advance width="1268"/>
  <unicode hex="0467"/>
  <outline>
    <contour>
      <point x="891" y="395" type="line"/>
      <point x="667" y="395" type="line"/>
      <point x="667" y="0" type="line"/>
      <point x="613" y="0" type="line"/>
      <point x="613" y="395" type="line"/>
      <point x="380" y="395" type="line"/>
      <point x="208" y="0" type="line"/>
      <point x="62" y="0" type="line"/>
      <point x="62" y="54" type="line"/>
      <point x="172" y="54" type="line"/>
      <point x="611" y="1082" type="line"/>
      <point x="662" y="1082" type="line"/>
      <point x="1100" y="54" type="line"/>
      <point x="1210" y="54" type="line"/>
      <point x="1210" y="0" type="line"/>
      <point x="1065" y="0" type="line"/>
    </contour>
    <contour>
      <point x="404" y="449" type="line"/>
      <point x="867" y="449" type="line"/>
      <point x="690" y="853" type="line"/>
      <point x="639" y="999" type="line"/>
      <point x="633" y="999" type="line"/>
      <point x="581" y="853" type="line"/>
    </contour>
  </outline>
</glyph>
<glyph name="Yuslittleiotified-cy" format="1">
  <advance width="1992"/>
  <unicode hex="0468"/>
  <outline>
    <contour>
      <point x="465" y="1456" type="line"/>
      <point x="465" y="1402" type="line"/>
      <point x="302" y="1402" type="line"/>
      <point x="302" y="562" type="line"/>
      <point x="877" y="562" type="line"/>
      <point x="1212" y="1456" type="line"/>
      <point x="1278" y="1456" type="line"/>
      <point x="1803" y="54" type="line"/>
      <point x="1910" y="54" type="line"/>
      <point x="1910" y="0" type="line"/>
      <point x="1601" y="0" type="line"/>
      <point x="1601" y="54" type="line"/>
      <point x="1743" y="54" type="line"/>
      <point x="1573" y="508" type="line"/>
      <point x="1266" y="508" type="line"/>
      <point x="1266" y="0" type="line"/>
      <point x="1212" y="0" type="line"/>
      <point x="1212" y="508" type="line"/>
      <point x="917" y="508" type="line"/>
      <point x="747" y="54" type="line"/>
      <point x="890" y="54" type="line"/>
      <point x="890" y="0" type="line"/>
      <point x="581" y="0" type="line"/>
      <point x="581" y="54" type="line"/>
      <point x="688" y="54" type="line"/>
      <point x="857" y="508" type="line"/>
      <point x="302" y="508" type="line"/>
      <point x="302" y="54" type="line"/>
      <point x="465" y="54" type="line"/>
      <point x="465" y="0" type="line"/>
      <point x="85" y="0" type="line"/>
      <point x="85" y="54" type="line"/>
      <point x="248" y="54" type="line"/>
      <point x="248" y="1402" type="line"/>
      <point x="85" y="1402" type="line"/>
      <point x="85" y="1456" type="line"/>
      <point x="248" y="1456" type="line"/>
      <point x="302" y="1456" type="line"/>
    </contour>
    <contour>
      <point x="937" y="562" type="line"/>
      <point x="1553" y="562" type="line"/>
      <point x="1276" y="1304" type="line"/>
      <point x="1248" y="1389" type="line"/>
      <point x="1242" y="1389" type="line"/>
      <point x="1215" y="1304" type="line"/>
    </contour>
  </outline>
</glyph>
<glyph name="yuslittleiotified-cy" format="1">
  <advance width="1716"/>
  <unicode hex="0469"/>
  <outline>
    <contour>
      <point x="312" y="449" type="line"/>
      <point x="787" y="449" type="line"/>
      <point x="1059" y="1082" type="line"/>
      <point x="1109" y="1082" type="line"/>
      <point x="1547" y="54" type="line"/>
      <point x="1657" y="54" type="line"/>
      <point x="1657" y="0" type="line"/>
      <point x="1512" y="0" type="line"/>
      <point x="1338" y="395" type="line"/>
      <point x="1114" y="395" type="line"/>
      <point x="1114" y="0" type="line"/>
      <point x="1060" y="0" type="line"/>
      <point x="1060" y="395" type="line"/>
      <point x="827" y="395" type="line"/>
      <point x="655" y="0" type="line"/>
      <point x="509" y="0" type="line"/>
      <point x="509" y="54" type="line"/>
      <point x="619" y="54" type="line"/>
      <point x="764" y="395" type="line"/>
      <point x="312" y="395" type="line"/>
      <point x="312" y="54" type="line"/>
      <point x="475" y="54" type="line"/>
      <point x="475" y="0" type="line"/>
      <point x="95" y="0" type="line"/>
      <point x="95" y="54" type="line"/>
      <point x="258" y="54" type="line"/>
      <point x="258" y="1028" type="line"/>
      <point x="95" y="1028" type="line"/>
      <point x="95" y="1082" type="line"/>
      <point x="258" y="1082" type="line"/>
      <point x="312" y="1082" type="line"/>
    </contour>
    <contour>
      <point x="851" y="449" type="line"/>
      <point x="1314" y="449" type="line"/>
      <point x="1137" y="853" type="line"/>
      <point x="1086" y="999" type="line"/>
      <point x="1080" y="999" type="line"/>
      <point x="1028" y="853" type="line"/>
    </contour>
  </outline>
</glyph>
<glyph name="yusbig-cy" format="1">
  <advance width="1588"/>
  <unicode hex="046B"/>
  <outline>
    <contour>
      <point x="277" y="225" type="curve" smooth="yes"/>
      <point x="277" y="0" type="line"/>
      <point x="59" y="0" type="line"/>
      <point x="59" y="54" type="line"/>
      <point x="222" y="54" type="line"/>
      <point x="222" y="225" type="line" smooth="yes"/>
      <point x="222.0" y="477.0"/>
      <point x="364.666666667" y="585.0"/>
      <point x="630" y="585" type="curve" smooth="yes"/>
      <point x="677" y="585" type="line"/>
      <point x="347" y="1028" type="line"/>
      <point x="220" y="1028" type="line"/>
      <point x="220" y="1082" type="line"/>
      <point x="1283" y="1082" type="line"/>
      <point x="1283" y="1028" type="line"/>
      <point x="1156" y="1028" type="line"/>
      <point x="826" y="585" type="line"/>
      <point x="870" y="585" type="line" smooth="yes"/>
      <point x="1134.0" y="585.0"/>
      <point x="1277.0" y="475.666666667"/>
      <point x="1277" y="225" type="curve" smooth="yes"/>
      <point x="1277" y="54" type="line"/>
      <point x="1440" y="54" type="line"/>
      <point x="1440" y="0" type="line"/>
      <point x="1223" y="0" type="line"/>
      <point x="1223" y="225" type="line" smooth="yes"/>
      <point x="1223.0" y="445.0"/>
      <point x="1115.33333333" y="530.0"/>
      <point x="870" y="530" type="curve" smooth="yes"/>
      <point x="785" y="530" type="line"/>
      <point x="778" y="520" type="line"/>
      <point x="778" y="54" type="line"/>
      <point x="941" y="54" type="line"/>
      <point x="941" y="0" type="line"/>
      <point x="561" y="0" type="line"/>
      <point x="561" y="54" type="line"/>
      <point x="724" y="54" type="line"/>
      <point x="724" y="521" type="line"/>
      <point x="718" y="530" type="line"/>
      <point x="630" y="530" type="line" smooth="yes"/>
      <point x="383.333333333" y="530.0"/>
      <point x="277.0" y="445.0"/>
    </contour>
    <contour>
      <point x="743" y="585" type="line"/>
      <point x="760" y="585" type="line" smooth="yes"/>
      <point x="1090" y="1027" type="line"/>
      <point x="413" y="1027" type="line"/>
    </contour>
  </outline>
</glyph>
<glyph name="Yusbigiotified-cy" format="1">
  <advance width="2372"/>
  <unicode hex="046C"/>
  <outline>
    <contour>
      <point x="66.0" y="54.0" type="line"/>
      <point x="229.0" y="54.0" type="line"/>
      <point x="229.0" y="1402.0" type="line"/>
      <point x="66.0" y="1402.0" type="line"/>
      <point x="66.0" y="1456.0" type="line"/>
      <point x="446.0" y="1456.0" type="line"/>
      <point x="446.0" y="1402.0" type="line"/>
      <point x="283.0" y="1402.0" type="line"/>
      <point x="283.0" y="749.0" type="line"/>
      <point x="1311.0" y="749.0" type="line"/>
      <point x="874.0" y="1402.0" type="line"/>
      <point x="751.0" y="1402.0" type="line"/>
      <point x="751.0" y="1456.0" type="line"/>
      <point x="1991.0" y="1456.0" type="line"/>
      <point x="1991.0" y="1402.0" type="line"/>
      <point x="1868.0" y="1402.0" type="line"/>
      <point x="1430.0" y="749.0" type="line"/>
      <point x="1595.0" y="749.0" type="line" smooth="yes"/>
      <point x="1859.0" y="749.0"/>
      <point x="2001.0" y="640.0"/>
      <point x="2001.0" y="389.0" type="curve" smooth="yes"/>
      <point x="2001.0" y="54.0" type="line"/>
      <point x="2164.0" y="54.0" type="line"/>
      <point x="2164.0" y="0.0" type="line"/>
      <point x="1784.0" y="0.0" type="line"/>
      <point x="1784.0" y="54.0" type="line"/>
      <point x="1947.0" y="54.0" type="line"/>
      <point x="1947.0" y="389.0" type="line" smooth="yes"/>
      <point x="1947.0" y="610.0"/>
      <point x="1840.0" y="695.0"/>
      <point x="1595.0" y="695.0" type="curve" smooth="yes"/>
      <point x="1398.0" y="695.0" type="line"/>
      <point x="1398.0" y="685.0" type="line"/>
      <point x="1398.0" y="54.0" type="line"/>
      <point x="1561.0" y="54.0" type="line"/>
      <point x="1561.0" y="0.0" type="line"/>
      <point x="1181.0" y="0.0" type="line"/>
      <point x="1181.0" y="54.0" type="line"/>
      <point x="1344.0" y="54.0" type="line"/>
      <point x="1344.0" y="684.0" type="line"/>
      <point x="1344.0" y="695.0" type="line"/>
      <point x="1150.0" y="695.0" type="line" smooth="yes"/>
      <point x="905.0" y="695.0"/>
      <point x="798.0" y="610.0"/>
      <point x="798.0" y="389.0" type="curve" smooth="yes"/>
      <point x="798.0" y="54.0" type="line"/>
      <point x="961.0" y="54.0" type="line"/>
      <point x="961.0" y="0.0" type="line"/>
      <point x="580.0" y="0.0" type="line"/>
      <point x="580.0" y="54.0" type="line"/>
      <point x="743.0" y="54.0" type="line"/>
      <point x="743.0" y="389.0" type="line" smooth="yes"/>
      <point x="743.0" y="540.0"/>
      <point x="794.0" y="639.0"/>
      <point x="894.0" y="695.0" type="curve"/>
      <point x="283.0" y="695.0" type="line"/>
      <point x="283.0" y="54.0" type="line"/>
      <point x="446.0" y="54.0" type="line"/>
      <point x="446.0" y="0.0" type="line"/>
      <point x="66.0" y="0.0" type="line"/>
    </contour>
    <contour>
      <point x="1376" y="749" type="line"/>
      <point x="1397" y="783" type="line"/>
      <point x="1802" y="1402" type="line"/>
      <point x="938" y="1402" type="line"/>
      <point x="1344" y="783" type="line"/>
      <point x="1365" y="749" type="line"/>
    </contour>
  </outline>
</glyph>
<glyph name="Ksi-cy" format="1">
  <advance width="1029"/>
  <unicode hex="046E"/>
  <outline>
    <contour>
      <point x="402" y="771" type="line" smooth="yes"/>
      <point x="704.6666666666665" y="771.0"/>
      <point x="844.0" y="884.3333333333333"/>
      <point x="844" y="1087" type="curve" smooth="yes"/>
      <point x="844.0" y="1280.3333333333335"/>
      <point x="718.0" y="1412.0"/>
      <point x="466" y="1412" type="curve" smooth="yes"/>
      <point x="319.33333333333337" y="1412.0"/>
      <point x="201.66666666666663" y="1352.3333333333335"/>
      <point x="127" y="1259" type="curve"/>
      <point x="127" y="1047" type="line"/>
      <point x="73" y="1047" type="line"/>
      <point x="73" y="1279" type="line"/>
      <point x="155.66666666666666" y="1393.6666666666665"/>
      <point x="302.0" y="1466.0"/>
      <point x="466" y="1466" type="curve" smooth="yes"/>
      <point x="732.6666666666665" y="1466.0"/>
      <point x="899.0" y="1324.3333333333335"/>
      <point x="899" y="1083" type="curve" smooth="yes"/>
      <point x="899.0" y="927.0"/>
      <point x="794.0" y="797.0"/>
      <point x="610" y="745" type="curve"/>
      <point x="818.0" y="699.6666666666667"/>
      <point x="922.0" y="576.6666666666666"/>
      <point x="922" y="386" type="curve" smooth="yes"/>
      <point x="922.0" y="148.66666666666674"/>
      <point x="692.6666666666665" y="-0.33333333333333326"/>
      <point x="394" y="1" type="curve" smooth="yes"/>
      <point x="312" y="1" type="line" smooth="yes"/>
      <point x="173.33333333333337" y="1.0"/>
      <point x="118.0" y="-46.33333333333334"/>
      <point x="118" y="-141" type="curve" smooth="yes"/>
      <point x="118.0" y="-222.33333333333331"/>
      <point x="215.33333333333337" y="-302.0"/>
      <point x="298" y="-326" type="curve"/>
      <point x="283" y="-378" type="line"/>
      <point x="183.0" y="-350.0"/>
      <point x="65.0" y="-248.66666666666663"/>
      <point x="65" y="-142" type="curve" smooth="yes"/>
      <point x="65.0" y="-23.333333333333343"/>
      <point x="141.33333333333337" y="54.0"/>
      <point x="312" y="54" type="curve" smooth="yes"/>
      <point x="394" y="54" type="line" smooth="yes"/>
      <point x="679.3333333333333" y="54.0"/>
      <point x="867.0" y="179.33333333333337"/>
      <point x="867" y="382" type="curve" smooth="yes"/>
      <point x="867.0" y="614.0"/>
      <point x="710.0" y="715.0"/>
      <point x="402" y="715" type="curve" smooth="yes"/>
      <point x="279" y="715" type="line"/>
      <point x="279" y="771" type="line"/>
    </contour>
    <contour>
      <point x="480" y="1679" type="line"/>
      <point x="664" y="1866" type="line"/>
      <point x="731" y="1866" type="line"/>
      <point x="731" y="1850" type="line"/>
      <point x="519" y="1643" type="line"/>
      <point x="440" y="1643" type="line"/>
      <point x="226" y="1852" type="line"/>
      <point x="226" y="1866" type="line"/>
      <point x="297" y="1866" type="line"/>
    </contour>
  </outline>
</glyph>
<glyph name="ksi-cy" format="1">
  <advance width="940"/>
  <unicode hex="046F"/>
  <outline>
    <contour>
      <point x="395" y="585" type="line" smooth="yes"/>
      <point x="656.333333333" y="585.0"/>
      <point x="776.0" y="667.666666667"/>
      <point x="776" y="817" type="curve" smooth="yes"/>
      <point x="776.0" y="943.666666667"/>
      <point x="664.333333333" y="1026.66666667"/>
      <point x="439" y="1028" type="curve" smooth="yes"/>
      <point x="309.666666667" y="1028.0"/>
      <point x="206.666666667" y="976.333333333"/>
      <point x="140" y="895" type="curve"/>
      <point x="140" y="753" type="line"/>
      <point x="86" y="753" type="line"/>
      <point x="86" y="915" type="line"/>
      <point x="160.666666667" y="1017.66666667"/>
      <point x="291.0" y="1082.0"/>
      <point x="439" y="1082" type="curve" smooth="yes"/>
      <point x="681.666666667" y="1082.0"/>
      <point x="832.0" y="986.333333333"/>
      <point x="832" y="813" type="curve" smooth="yes"/>
      <point x="832.0" y="699.666666667"/>
      <point x="749.333333333" y="603.0"/>
      <point x="604" y="559" type="curve"/>
      <point x="769.333333333" y="521.666666667"/>
      <point x="854.0" y="434.666666667"/>
      <point x="854" y="304" type="curve" smooth="yes"/>
      <point x="854.0" y="118.666666667"/>
      <point x="650.666666667" y="-0.333333333333"/>
      <point x="388" y="1" type="curve" smooth="yes"/>
      <point x="347" y="1" type="line" smooth="yes"/>
      <point x="208.333333333" y="1.0"/>
      <point x="153.0" y="-46.3333333333"/>
      <point x="153" y="-141" type="curve" smooth="yes"/>
      <point x="153.0" y="-222.333333333"/>
      <point x="250.0" y="-302.0"/>
      <point x="334" y="-326" type="curve"/>
      <point x="318" y="-378" type="line"/>
      <point x="219.333333333" y="-350.0"/>
      <point x="100.0" y="-248.666666667"/>
      <point x="100" y="-142" type="curve" smooth="yes"/>
      <point x="100.0" y="-23.3333333333"/>
      <point x="177.666666667" y="54.0"/>
      <point x="347" y="54" type="curve" smooth="yes"/>
      <point x="388" y="54" type="line" smooth="yes"/>
      <point x="636.0" y="54.0"/>
      <point x="799.0" y="148.0"/>
      <point x="799" y="300" type="curve" smooth="yes"/>
      <point x="799.0" y="460.0"/>
      <point x="664.333333333" y="529.0"/>
      <point x="395" y="529" type="curve" smooth="yes"/>
      <point x="273" y="529" type="line"/>
      <point x="273" y="585" type="line"/>
    </contour>
    <contour>
      <point x="445" y="1362" type="line"/>
      <point x="629" y="1549" type="line"/>
      <point x="696" y="1549" type="line"/>
      <point x="696" y="1533" type="line"/>
      <point x="484" y="1326" type="line"/>
      <point x="405" y="1326" type="line"/>
      <point x="191" y="1535" type="line"/>
      <point x="191" y="1549" type="line"/>
      <point x="262" y="1549" type="line"/>
    </contour>
  </outline>
</glyph>
<glyph name="Izhitsa-cy" format="1">
  <advance width="1387"/>
  <unicode hex="0474"/>
  <outline>
    <contour>
      <point x="366" y="1402" type="line"/>
      <point x="220" y="1402" type="line"/>
      <point x="620" y="142" type="line"/>
      <point x="645" y="65" type="line"/>
      <point x="651" y="65" type="line"/>
      <point x="677" y="142" type="line"/>
      <point x="1029" y="1228" type="line" smooth="yes"/>
      <point x="1083.6666666666665" y="1408.0"/>
      <point x="1174.6666666666665" y="1476.0"/>
      <point x="1320" y="1476" type="curve" smooth="yes"/>
      <point x="1329" y="1476" type="line"/>
      <point x="1328" y="1429" type="line"/>
      <point x="1318" y="1429" type="line" smooth="yes"/>
      <point x="1211.3333333333335" y="1429.0"/>
      <point x="1130.3333333333335" y="1393.3333333333335"/>
      <point x="1073" y="1204" type="curve" smooth="yes"/>
      <point x="681" y="0" type="line"/>
      <point x="616" y="0" type="line"/>
      <point x="161" y="1402" type="line"/>
      <point x="57" y="1402" type="line"/>
      <point x="57" y="1456" type="line"/>
      <point x="366" y="1456" type="line"/>
    </contour>
  </outline>
</glyph>
<glyph name="uni047A" format="1">
  <advance width="1453"/>
  <unicode hex="047A"/>
  <outline>
    <contour>
      <point x="763" y="1291" type="line"/>
      <point x="709" y="1291" type="line"/>
      <point x="709" y="1598" type="line"/>
      <point x="763" y="1598" type="line"/>
    </contour>
    <contour>
      <point x="763" y="-144" type="line"/>
      <point x="709" y="-144" type="line"/>
      <point x="709" y="163" type="line"/>
      <point x="763" y="163" type="line"/>
    </contour>
    <contour>
      <point x="1338" y="719" type="line" smooth="yes"/>
      <point x="1338.0" y="271.0"/>
      <point x="1091.3333333333333" y="-21.0"/>
      <point x="730" y="-21" type="curve" smooth="yes"/>
      <point x="367.3333333333334" y="-21.0"/>
      <point x="120.0" y="272.33333333333337"/>
      <point x="120" y="719" type="curve" smooth="yes"/>
      <point x="120" y="737" type="line" smooth="yes"/>
      <point x="120.0" y="1183.6666666666665"/>
      <point x="365.3333333333335" y="1477.0"/>
      <point x="728" y="1477" type="curve" smooth="yes"/>
      <point x="1089.3333333333333" y="1477.0"/>
      <point x="1338.0" y="1183.6666666666665"/>
      <point x="1338" y="737" type="curve" smooth="yes"/>
    </contour>
    <contour>
      <point x="1284" y="739" type="line" smooth="yes"/>
      <point x="1284.0" y="1151.0"/>
      <point x="1065.3333333333333" y="1423.0"/>
      <point x="728" y="1423" type="curve" smooth="yes"/>
      <point x="392.0" y="1423.0"/>
      <point x="175.0" y="1151.0"/>
      <point x="175" y="739" type="curve" smooth="yes"/>
      <point x="175" y="719" type="line" smooth="yes"/>
      <point x="175.0" y="304.33333333333337"/>
      <point x="392.66666666666674" y="33.0"/>
      <point x="730" y="33" type="curve" smooth="yes"/>
      <point x="1067.3333333333333" y="33.0"/>
      <point x="1284.0" y="304.33333333333337"/>
      <point x="1284" y="719" type="curve" smooth="yes"/>
    </contour>
  </outline>
</glyph>
<glyph name="uni047F" format="1">
  <advance width="1589"/>
  <unicode hex="047F"/>
  <outline>
    <contour>
      <point x="493" y="1400" type="line"/>
      <point x="493" y="1456" type="line"/>
      <point x="1197" y="1456" type="line"/>
      <point x="1197" y="1400" type="line"/>
      <point x="864" y="1400" type="line"/>
      <point x="864" y="1267" type="line"/>
      <point x="810" y="1267" type="line"/>
      <point x="810" y="1400" type="line"/>
    </contour>
    <contour>
      <point x="1472" y="1082" type="line"/>
      <point x="1472" y="409" type="line" smooth="yes"/>
      <point x="1472.0" y="171.66666666666674"/>
      <point x="1347.6666666666665" y="33.0"/>
      <point x="1169" y="33" type="curve" smooth="yes"/>
      <point x="989.0" y="33.0"/>
      <point x="865.0" y="172.99999999999994"/>
      <point x="865" y="409" type="curve" smooth="yes"/>
      <point x="865" y="1082" type="line"/>
      <point x="811" y="1082" type="line"/>
      <point x="811" y="409" type="line" smooth="yes"/>
      <point x="811.0" y="171.66666666666674"/>
      <point x="686.6666666666667" y="33.0"/>
      <point x="508" y="33" type="curve" smooth="yes"/>
      <point x="326.66666666666674" y="33.0"/>
      <point x="204.0" y="171.66666666666674"/>
      <point x="204" y="409" type="curve" smooth="yes"/>
      <point x="204" y="1082" type="line"/>
      <point x="150" y="1082" type="line"/>
      <point x="150" y="409" type="line" smooth="yes"/>
      <point x="150.0" y="130.33333333333343"/>
      <point x="293.3333333333333" y="-21.0"/>
      <point x="508" y="-21" type="curve" smooth="yes"/>
      <point x="664.0" y="-21.0"/>
      <point x="786.0" y="61.33333333333337"/>
      <point x="838" y="220" type="curve"/>
      <point x="888.6666666666667" y="61.33333333333337"/>
      <point x="1010.3333333333335" y="-21.0"/>
      <point x="1169" y="-21" type="curve" smooth="yes"/>
      <point x="1382.3333333333335" y="-21.0"/>
      <point x="1526.0" y="130.33333333333337"/>
      <point x="1526" y="409" type="curve" smooth="yes"/>
      <point x="1526" y="1082" type="line"/>
    </contour>
  </outline>
</glyph>
<glyph name="Koppa-cy" format="1">
  <advance width="1241"/>
  <unicode hex="0480"/>
  <outline>
    <contour>
      <point x="687" y="-351" type="line"/>
      <point x="632" y="-351" type="line"/>
      <point x="632" y="-21" type="line"/>
      <point x="317.33333333333337" y="-15.666666666666664"/>
      <point x="114.0" y="239.0"/>
      <point x="114" y="619" type="curve" smooth="yes"/>
      <point x="114" y="837" type="line" smooth="yes"/>
      <point x="114.0" y="1218.3333333333335"/>
      <point x="322.33333333333337" y="1477.0"/>
      <point x="641" y="1477" type="curve" smooth="yes"/>
      <point x="945.0" y="1477.0"/>
      <point x="1149.3333333333335" y="1312.6666666666665"/>
      <point x="1144" y="1018" type="curve"/>
      <point x="1142" y="1012" type="line"/>
      <point x="1096" y="1012" type="line"/>
      <point x="1096.0" y="1274.6666666666665"/>
      <point x="921.0000000000001" y="1423.0"/>
      <point x="641" y="1423" type="curve" smooth="yes"/>
      <point x="357.0" y="1423.0"/>
      <point x="168.0" y="1188.3333333333333"/>
      <point x="168" y="839" type="curve" smooth="yes"/>
      <point x="168" y="619" type="line" smooth="yes"/>
      <point x="168.0" y="265.66666666666674"/>
      <point x="357.0" y="33.0"/>
      <point x="641" y="33" type="curve" smooth="yes"/>
      <point x="687" y="33" type="line"/>
    </contour>
  </outline>
</glyph>
<glyph name="palatalizationcomb-cy" format="1">
  <advance width="1014"/>
  <unicode hex="0484"/>
  <outline>
    <contour>
      <point x="151" y="1361" type="line" smooth="yes"/>
      <point x="293.66666666666663" y="1361.0"/>
      <point x="481.66666666666674" y="1557.0"/>
      <point x="599" y="1557" type="curve" smooth="yes"/>
      <point x="741.6666666666667" y="1557.0"/>
      <point x="835.0" y="1457.0"/>
      <point x="835" y="1329" type="curve" smooth="yes"/>
      <point x="835" y="1303" type="line"/>
      <point x="780" y="1303" type="line"/>
      <point x="780" y="1321" type="line" smooth="yes"/>
      <point x="780.0" y="1422.3333333333335"/>
      <point x="715.0" y="1504.0"/>
      <point x="595" y="1504" type="curve" smooth="yes"/>
      <point x="497.66666666666674" y="1504.0"/>
      <point x="320.66666666666663" y="1317.0"/>
      <point x="154" y="1317" type="curve" smooth="yes"/>
      <point x="137" y="1317" type="line"/>
      <point x="137" y="1361" type="line"/>
    </contour>
  </outline>
</glyph>
<glyph name="Semisoftsign-cy" format="1">
  <advance width="1289"/>
  <unicode hex="048C"/>
  <outline>
    <contour>
      <point x="287" y="1174" type="line"/>
      <point x="590" y="1174" type="line"/>
      <point x="590" y="1120" type="line"/>
      <point x="287" y="1120" type="line"/>
      <point x="287" y="788" type="line"/>
      <point x="656" y="788" type="line" smooth="yes"/>
      <point x="958.6666666666664" y="788.0"/>
      <point x="1127.0" y="632.6666666666669"/>
      <point x="1127" y="394" type="curve" smooth="yes"/>
      <point x="1127.0" y="153.99999999999983"/>
      <point x="958.6666666666664" y="0.0"/>
      <point x="656" y="0" type="curve" smooth="yes"/>
      <point x="70" y="0" type="line"/>
      <point x="70" y="54" type="line"/>
      <point x="233" y="54" type="line"/>
      <point x="233" y="1120" type="line"/>
      <point x="3" y="1120" type="line"/>
      <point x="3" y="1174" type="line"/>
      <point x="233" y="1174" type="line"/>
      <point x="233" y="1402" type="line"/>
      <point x="70" y="1402" type="line"/>
      <point x="70" y="1456" type="line"/>
      <point x="287" y="1456" type="line"/>
    </contour>
    <contour>
      <point x="287" y="734" type="line"/>
      <point x="287" y="54" type="line"/>
      <point x="656" y="54" type="line" smooth="yes"/>
      <point x="934.6666666666665" y="54.0"/>
      <point x="1072.0" y="196.0"/>
      <point x="1072" y="396" type="curve" smooth="yes"/>
      <point x="1072.0" y="588.0000000000001"/>
      <point x="933.3333333333331" y="734.0"/>
      <point x="656" y="734" type="curve" smooth="yes"/>
    </contour>
    <contour>
      <point x="450" y="1456" type="line"/>
      <point x="450" y="1402" type="line"/>
      <point x="287" y="1402" type="line"/>
      <point x="287" y="1456" type="line"/>
    </contour>
  </outline>
</glyph>
<glyph name="Ertick-cy" format="1">
  <advance width="1271"/>
  <unicode hex="048E"/>
  <outline>
    <contour>
      <point x="1097" y="541" type="line"/>
      <point x="1056" y="506" type="line"/>
      <point x="755" y="859" type="line"/>
      <point x="796" y="894" type="line"/>
    </contour>
    <contour>
      <point x="632" y="1456" type="line" smooth="yes"/>
      <point x="933.3333333333331" y="1456.0"/>
      <point x="1102.0" y="1291.6666666666665"/>
      <point x="1102" y="1041" type="curve" smooth="yes"/>
      <point x="1102.0" y="787.6666666666667"/>
      <point x="934.6666666666665" y="625.0"/>
      <point x="632" y="625" type="curve" smooth="yes"/>
      <point x="281" y="625" type="line"/>
      <point x="281" y="54" type="line"/>
      <point x="444" y="54" type="line"/>
      <point x="444" y="0" type="line"/>
      <point x="64" y="0" type="line"/>
      <point x="64" y="54" type="line"/>
      <point x="227" y="54" type="line"/>
      <point x="227" y="1402" type="line"/>
      <point x="64" y="1402" type="line"/>
      <point x="64" y="1456" type="line"/>
      <point x="227" y="1456" type="line"/>
    </contour>
    <contour>
      <point x="281" y="679" type="line"/>
      <point x="632" y="679" type="line" smooth="yes"/>
      <point x="908.0" y="679.0"/>
      <point x="1048.0" y="833.6666666666667"/>
      <point x="1048" y="1039" type="curve" smooth="yes"/>
      <point x="1048.0" y="1249.6666666666665"/>
      <point x="909.3333333333333" y="1402.0"/>
      <point x="632" y="1402" type="curve" smooth="yes"/>
      <point x="281" y="1402" type="line"/>
    </contour>
  </outline>
</glyph>
